<svg xmlns="http://www.w3.org/2000/svg" xmlns:xlink="http://www.w3.org/1999/xlink" width="1450" zoomAndPan="magnify" viewBox="0 0 1087.5 352.49999" height="470" preserveAspectRatio="xMidYMid meet" version="1.0"><defs><g/><clipPath id="8e15df9abb"><path d="M 124 176 L 245.859375 176 L 245.859375 267.261719 L 124 267.261719 Z M 124 176 " clip-rule="nonzero"/></clipPath><clipPath id="1056cc0536"><path d="M 39 31.347656 L 233 31.347656 L 233 132 L 39 132 Z M 39 31.347656 " clip-rule="nonzero"/></clipPath><clipPath id="6e8ef7b76c"><path d="M 705 59 L 797 59 L 797 267.261719 L 705 267.261719 Z M 705 59 " clip-rule="nonzero"/></clipPath><clipPath id="9ce5cd0d00"><path d="M 594.304688 31.347656 L 807.753906 31.347656 L 807.753906 260 L 594.304688 260 Z M 594.304688 31.347656 " clip-rule="nonzero"/></clipPath><clipPath id="c554525db2"><path d="M 194.09375 31.347656 L 408.289062 31.347656 L 408.289062 267.261719 L 194.09375 267.261719 Z M 194.09375 31.347656 " clip-rule="nonzero"/></clipPath><clipPath id="94740944fb"><path d="M 362.898438 31.347656 L 613.789062 31.347656 L 613.789062 267.261719 L 362.898438 267.261719 Z M 362.898438 31.347656 " clip-rule="nonzero"/></clipPath><clipPath id="7aa17ddc32"><path d="M 807.464844 23.605469 L 1051.617188 23.605469 L 1051.617188 267.757812 L 807.464844 267.757812 Z M 807.464844 23.605469 " clip-rule="nonzero"/></clipPath></defs><path fill="#00bf62" d="M 120.003906 258.277344 C 118.308594 253.707031 116.421875 249.15625 113.617188 245.113281 C 110.851562 240.996094 107.523438 237.300781 103.878906 234.074219 C 102.582031 232.945312 101.253906 231.878906 99.914062 230.835938 C 99.898438 230.824219 99.894531 230.808594 99.898438 230.789062 C 103.917969 216.128906 101.527344 193.8125 101.222656 191.152344 C 101.214844 191.101562 101.148438 191.105469 101.136719 191.15625 C 99.328125 199.972656 93.800781 200.667969 93.269531 200.710938 C 93.246094 200.714844 93.230469 200.695312 93.230469 200.671875 C 93.65625 176.597656 72.042969 156.214844 72.042969 156.214844 C 60.074219 144.179688 55.503906 128.785156 58.285156 109.574219 C 58.289062 109.539062 58.253906 109.515625 58.222656 109.527344 C 33.371094 119.621094 36.277344 150.78125 36.433594 152.300781 C 36.4375 152.335938 36.414062 152.351562 36.378906 152.339844 C 33.757812 151.558594 31.3125 145.101562 30.953125 144.113281 C 30.9375 144.074219 30.882812 144.082031 30.871094 144.125 C 20.449219 181.785156 45.203125 216.257812 46.257812 217.40625 C 46.277344 217.421875 46.265625 217.4375 46.246094 217.453125 C 41.886719 220.589844 35.136719 217.027344 33.667969 216.183594 C 33.625 216.15625 33.582031 216.222656 33.621094 216.261719 C 69.09375 252.636719 90.046875 237.695312 92.925781 235.996094 C 92.957031 235.976562 92.949219 235.949219 92.914062 235.933594 C 53.488281 214.433594 52.113281 171.484375 52.089844 166.328125 C 52.089844 166.273438 52.164062 166.265625 52.175781 166.316406 C 53.058594 171.460938 56.199219 179.367188 58.585938 184.910156 C 59.980469 188.445312 61.546875 191.910156 63.230469 195.308594 C 65.375 199.550781 67.726562 203.679688 70.28125 207.710938 C 72.890625 211.761719 76.050781 215.441406 79.488281 218.808594 C 86.414062 225.523438 94.476562 230.71875 101.085938 237.101562 C 104.371094 240.304688 107.234375 243.832031 109.558594 247.679688 C 111.949219 251.496094 113.457031 255.78125 114.824219 260.066406 L 114.882812 260.25 C 114.890625 260.285156 114.90625 260.320312 114.917969 260.355469 C 115.472656 261.855469 117.195312 262.582031 118.667969 261.886719 C 119.988281 261.269531 120.507812 259.644531 120.003906 258.277344 " fill-opacity="1" fill-rule="nonzero"/><g clip-path="url(#8e15df9abb)"><path fill="#00bf62" d="M 237.734375 213.355469 L 237.734375 200.394531 C 237.734375 195.753906 239.015625 192.140625 241.597656 189.558594 C 244.191406 186.980469 245.472656 184.523438 245.472656 182.203125 C 245.472656 179.886719 244.761719 178.382812 243.34375 177.695312 C 241.921875 177.011719 239.375 176.671875 235.699219 176.671875 L 176.363281 176.671875 C 170.265625 176.671875 167.214844 178.957031 167.214844 183.542969 C 167.214844 186.089844 168.320312 188.171875 170.523438 189.765625 C 172.742188 191.367188 175.851562 192.160156 179.863281 192.160156 C 181.335938 192.160156 183.832031 192.066406 187.375 191.847656 C 190.902344 191.636719 193.507812 191.53125 195.195312 191.53125 C 204.890625 191.53125 209.738281 194.101562 209.738281 199.242188 L 209.738281 220.476562 C 209.738281 230.644531 204.035156 238.382812 192.625 243.667969 C 181.222656 248.976562 168.855469 251.617188 155.546875 251.617188 C 144.695312 251.617188 134.6875 249.980469 125.511719 246.710938 C 124.675781 246.414062 123.902344 247.28125 124.28125 248.085938 C 125.457031 250.59375 126.445312 253.117188 127.351562 255.558594 C 127.8125 256.789062 128.03125 258.0625 128.03125 259.316406 C 128.03125 260.015625 127.964844 260.710938 127.832031 261.390625 C 127.476562 263.226562 128.714844 264.992188 130.5625 265.328125 C 138.316406 266.734375 146.363281 267.433594 154.71875 267.433594 C 167.683594 267.433594 181.179688 265.082031 195.195312 260.390625 C 209.214844 255.703125 220.832031 250.042969 230.058594 243.394531 C 239.277344 236.753906 243.894531 231.269531 243.894531 226.957031 C 243.894531 225.367188 242.871094 223.582031 240.8125 221.578125 C 238.757812 219.570312 237.734375 216.832031 237.734375 213.355469 " fill-opacity="1" fill-rule="nonzero"/></g><g clip-path="url(#1056cc0536)"><path fill="#00bf62" d="M 232.039062 86.304688 C 231.507812 83.722656 231.246094 81.800781 231.246094 80.535156 L 231.246094 67.886719 C 231.246094 58.609375 222.390625 50.203125 204.683594 42.671875 C 186.976562 35.128906 167.738281 31.355469 146.972656 31.355469 C 125.566406 31.355469 106.28125 36.445312 89.097656 46.617188 C 71.917969 56.792969 58.503906 70.949219 48.863281 89.070312 C 45.21875 95.917969 42.261719 102.972656 40 110.242188 C 39.675781 111.289062 40.980469 112.050781 41.75 111.265625 C 45.328125 107.625 49.78125 104.511719 55.277344 102.273438 C 57.875 101.210938 60.894531 101.636719 63.101562 103.371094 C 65.3125 105.105469 66.441406 107.933594 66.035156 110.714844 C 64.957031 118.179688 65.125 124.925781 66.550781 131.019531 C 66.867188 132.367188 68.824219 132.214844 68.957031 130.839844 C 71.171875 108.230469 78.449219 89.453125 90.78125 74.507812 C 105.824219 56.28125 125.839844 47.171875 150.855469 47.171875 C 170.578125 47.171875 185.984375 51.863281 197.066406 61.246094 C 203.398438 66.621094 209.46875 75.3125 215.273438 87.335938 C 218.335938 93.761719 220.65625 97.6875 222.230469 99.117188 C 223.820312 100.539062 225.5 101.25 227.300781 101.25 C 228.980469 101.25 230.328125 100.488281 231.328125 98.953125 C 232.320312 97.425781 232.824219 95.609375 232.824219 93.5 C 232.824219 91.285156 232.5625 88.894531 232.039062 86.304688 " fill-opacity="1" fill-rule="nonzero"/></g><path fill="#00bf62" d="M 126.042969 171.695312 C 126.023438 171.683594 126.007812 171.703125 126.011719 171.722656 C 128.640625 181.507812 127.226562 189.773438 121.765625 196.753906 C 121.765625 196.753906 111.820312 208.65625 113.527344 221.117188 C 113.527344 221.128906 113.523438 221.136719 113.503906 221.140625 C 113.230469 221.148438 110.320312 221.128906 108.839844 216.664062 C 108.824219 216.644531 108.792969 216.644531 108.792969 216.671875 C 108.796875 217.785156 108.882812 225.398438 110.417969 232.167969 L 110.421875 232.171875 C 110.738281 233.601562 111.128906 234.988281 111.59375 236.265625 C 111.601562 236.289062 111.617188 236.308594 111.625 236.335938 C 112.046875 237.300781 112.539062 238.175781 113.023438 238.949219 C 115.804688 235.855469 119.039062 233.019531 121.769531 229.664062 C 123.34375 227.707031 124.757812 225.609375 125.855469 223.34375 C 126.933594 221.097656 127.898438 218.8125 128.75 216.480469 C 129.410156 214.613281 130.003906 212.71875 130.515625 210.796875 C 131.414062 207.777344 132.546875 203.480469 132.6875 200.765625 C 132.683594 200.734375 132.726562 200.734375 132.734375 200.761719 C 133.039062 203.441406 134.984375 225.792969 115.867188 239.375 C 115.851562 239.382812 115.851562 239.398438 115.867188 239.40625 C 117.46875 240.113281 129.253906 246.5625 145.398438 225.511719 C 145.414062 225.488281 145.382812 225.460938 145.367188 225.472656 C 144.652344 226.007812 141.378906 228.265625 138.917969 226.910156 C 138.914062 226.90625 138.910156 226.894531 138.914062 226.886719 C 139.390625 226.230469 150.09375 206.828125 142.367188 187.941406 C 142.355469 187.921875 142.320312 187.921875 142.316406 187.945312 C 142.191406 188.46875 141.324219 191.972656 140.015625 192.539062 C 140.003906 192.550781 139.988281 192.539062 139.984375 192.523438 C 139.976562 191.726562 139.554688 175.390625 126.042969 171.695312 " fill-opacity="1" fill-rule="nonzero"/><g clip-path="url(#6e8ef7b76c)"><path fill="#00bf62" d="M 781.726562 263.960938 C 782.265625 257.804688 782.570312 251.570312 781.558594 245.414062 C 780.625 239.195312 778.820312 233.152344 776.394531 227.480469 C 775.523438 225.480469 774.578125 223.535156 773.609375 221.617188 C 773.601562 221.597656 773.605469 221.574219 773.617188 221.554688 C 786.183594 206.941406 795.558594 180.082031 796.652344 176.867188 C 796.675781 176.804688 796.597656 176.777344 796.554688 176.828125 C 789.695312 185.941406 782.988281 183.734375 782.355469 183.5 C 782.328125 183.488281 782.320312 183.460938 782.332031 183.433594 C 795.890625 156.082031 782.199219 121.003906 782.199219 121.003906 C 775.023438 100.714844 778.148438 80.601562 791.761719 60.105469 C 791.785156 60.070312 791.761719 60.015625 791.714844 60.015625 C 757.773438 58.082031 744.179688 95.355469 743.535156 97.183594 C 743.519531 97.226562 743.480469 97.230469 743.449219 97.203125 C 740.871094 94.882812 741.578125 86.15625 741.703125 84.832031 C 741.707031 84.777344 741.636719 84.757812 741.601562 84.796875 C 709.214844 122.277344 718.855469 175.214844 719.441406 177.097656 C 719.453125 177.125 719.429688 177.140625 719.402344 177.148438 C 712.703125 178.371094 706.902344 170.628906 705.679688 168.863281 C 705.644531 168.808594 705.5625 168.863281 705.582031 168.921875 C 726.46875 229.851562 758.582031 224.117188 762.800781 223.730469 C 762.847656 223.726562 762.855469 223.695312 762.824219 223.65625 C 729.335938 177.617188 751.078125 127.671875 753.851562 121.753906 C 753.882812 121.691406 753.972656 121.71875 753.953125 121.785156 C 752.175781 128.160156 751.480469 138.917969 751.203125 146.566406 C 750.882812 151.371094 750.796875 156.195312 750.878906 161 C 751.03125 167.023438 751.484375 173.03125 752.222656 179.035156 C 753.015625 185.089844 754.632812 191.027344 756.742188 196.75 C 761.03125 208.199219 767.449219 218.527344 771.554688 229.429688 C 773.578125 234.882812 774.941406 240.480469 775.515625 246.144531 C 776.179688 251.8125 775.582031 257.542969 774.820312 263.191406 L 774.789062 263.4375 C 774.78125 263.484375 774.773438 263.53125 774.769531 263.582031 C 774.589844 265.59375 776.167969 267.363281 778.238281 267.371094 C 780.082031 267.375 781.5625 265.800781 781.726562 263.960938 " fill-opacity="1" fill-rule="nonzero"/></g><path fill="#00bf62" d="M 695.0625 241.84375 C 695.054688 241.859375 695.074219 241.875 695.089844 241.875 C 703.527344 240.0625 710.621094 241.722656 716.558594 246.867188 C 716.558594 246.867188 726.6875 256.195312 737.417969 255.324219 C 737.425781 255.328125 737.4375 255.332031 737.4375 255.347656 C 737.441406 255.589844 737.390625 258.140625 733.542969 259.214844 C 733.523438 259.226562 733.523438 259.253906 733.550781 259.253906 C 734.503906 259.308594 741.050781 259.621094 746.882812 258.617188 L 746.890625 258.613281 C 748.121094 258.40625 749.320312 258.132812 750.421875 257.789062 C 750.441406 257.785156 750.460938 257.773438 750.484375 257.769531 C 751.316406 257.445312 752.078125 257.054688 752.746094 256.671875 C 750.113281 254.078125 747.710938 251.09375 744.855469 248.53125 C 743.1875 247.046875 741.398438 245.703125 739.460938 244.625 C 737.542969 243.5625 735.589844 242.605469 733.59375 241.734375 C 731.996094 241.066406 730.371094 240.445312 728.726562 239.898438 C 726.140625 238.960938 722.460938 237.75 720.125 237.488281 C 720.097656 237.488281 720.101562 237.453125 720.121094 237.445312 C 722.429688 237.316406 741.664062 236.742188 753.140625 254.199219 C 753.148438 254.210938 753.15625 254.214844 753.164062 254.199219 C 753.792969 252.832031 759.460938 242.820312 741.535156 227.589844 C 741.515625 227.574219 741.492188 227.597656 741.503906 227.617188 C 741.953125 228.269531 743.859375 231.253906 742.667969 233.347656 C 742.664062 233.347656 742.660156 233.355469 742.648438 233.351562 C 742.089844 232.898438 725.519531 222.523438 709.203125 228.34375 C 709.1875 228.359375 709.1875 228.386719 709.207031 228.386719 C 709.65625 228.527344 712.65625 229.464844 713.132812 230.640625 C 713.140625 230.652344 713.132812 230.667969 713.117188 230.667969 C 712.429688 230.636719 698.382812 230.179688 695.0625 241.84375 " fill-opacity="1" fill-rule="nonzero"/><g clip-path="url(#9ce5cd0d00)"><path fill="#00bf62" d="M 712.230469 130.03125 L 688.875 98.886719 C 662.808594 64.132812 647.566406 44.296875 643.121094 39.375 C 638.675781 34.453125 634.949219 31.992188 631.917969 31.992188 C 630.140625 31.992188 627.96875 32.28125 625.40625 32.863281 C 622.851562 33.433594 620.628906 33.726562 618.75 33.726562 C 616.234375 33.726562 613.109375 33.433594 609.339844 32.863281 C 605.582031 32.28125 603.222656 31.992188 602.289062 31.992188 C 596.960938 31.992188 594.292969 34.171875 594.292969 38.511719 C 594.292969 40.953125 595.207031 42.757812 597.046875 43.921875 C 598.882812 45.085938 602.464844 45.664062 607.8125 45.664062 C 611.792969 45.664062 615.09375 47.179688 617.722656 50.214844 C 620.335938 53.246094 621.648438 57.320312 621.648438 62.4375 L 621.648438 229.628906 C 621.648438 234.957031 620.097656 239.054688 617.015625 241.933594 C 613.917969 244.808594 609.808594 246.242188 604.667969 246.242188 C 598.382812 246.242188 595.238281 248.308594 595.238281 252.441406 C 595.238281 257.425781 597.90625 259.917969 603.234375 259.917969 C 604.90625 259.917969 608.988281 259.472656 615.46875 258.582031 C 621.957031 257.683594 626.558594 257.242188 629.269531 257.242188 C 631.261719 257.242188 635.59375 257.683594 642.289062 258.582031 C 648.976562 259.472656 654.003906 259.917969 657.347656 259.917969 C 660.796875 259.917969 662.996094 259.390625 663.933594 258.332031 C 664.875 257.257812 665.34375 255.890625 665.34375 254.199219 C 665.34375 248.683594 661.148438 245.921875 652.769531 245.921875 C 649.414062 245.921875 645.875 244.625 642.15625 242.003906 C 638.4375 239.398438 636.578125 235.898438 636.578125 231.507812 L 636.578125 86.519531 C 636.578125 82.554688 637.367188 80.566406 638.945312 80.566406 C 640.101562 80.566406 641.355469 81.453125 642.726562 83.238281 L 702.242188 161.828125 C 704.816406 160.59375 707.816406 160.894531 710.078125 162.429688 C 709.675781 153.714844 709.925781 142.355469 712.230469 130.03125 Z M 726.882812 174.785156 C 726.902344 174.863281 726.925781 174.945312 726.945312 175.027344 C 726.925781 174.910156 726.890625 174.839844 726.882812 174.785156 Z M 798.039062 32.3125 C 795.730469 32.3125 791.992188 32.78125 786.820312 33.726562 C 781.640625 34.667969 777.484375 35.136719 774.351562 35.136719 C 771.9375 35.136719 767.113281 34.511719 759.839844 33.246094 C 752.574219 31.992188 748.316406 31.367188 747.058594 31.367188 C 744.652344 31.367188 742.425781 32.0625 740.390625 33.464844 C 738.355469 34.867188 737.339844 36.757812 737.339844 39.144531 C 737.339844 41.105469 738.441406 42.71875 740.640625 43.964844 C 742.84375 45.210938 745.71875 45.824219 749.28125 45.824219 C 753.894531 45.824219 757.691406 47.109375 760.671875 49.675781 C 763.332031 51.96875 764.808594 54.929688 765.097656 58.585938 C 770.074219 55.730469 775.667969 53.632812 781.890625 52.695312 C 782.699219 51.054688 784.058594 49.601562 785.992188 48.347656 C 788.554688 46.664062 792.566406 45.824219 798.003906 45.824219 C 804.296875 45.824219 807.445312 43.808594 807.445312 39.769531 C 807.445312 34.792969 804.308594 32.3125 798.039062 32.3125 " fill-opacity="1" fill-rule="nonzero"/></g><g clip-path="url(#c554525db2)"><path fill="#00bf62" d="M 260.410156 138.082031 C 250.390625 137.445312 242.132812 145.707031 242.765625 155.726562 C 243.289062 163.988281 249.992188 170.691406 258.253906 171.214844 C 268.273438 171.847656 276.53125 163.585938 275.898438 153.566406 C 275.375 145.308594 268.671875 138.601562 260.410156 138.082031 Z M 408.03125 257.242188 L 406.597656 267.277344 C 401.9375 267.277344 397.996094 266.917969 393.339844 266.5625 C 367.179688 264.769531 353.203125 257.960938 337.433594 235.742188 C 324.175781 217.46875 311.273438 194.890625 299.808594 176.617188 C 296.492188 171.308594 293.707031 167.996094 289.863281 165.972656 C 287.546875 164.753906 286.898438 161.761719 288.542969 159.722656 C 289.316406 158.761719 290.066406 157.785156 290.785156 156.792969 C 294.191406 152.101562 298.890625 148.511719 304.234375 146.246094 C 307.789062 144.738281 310.933594 142.816406 313.785156 140.421875 C 327.757812 130.03125 333.492188 115.695312 333.492188 96.347656 C 333.492188 58.003906 308.050781 44.027344 280.457031 44.027344 C 270.066406 44.027344 201.9375 43.839844 194.097656 43.609375 L 194.097656 31.484375 L 285.476562 31.484375 C 311.632812 31.484375 329.195312 34.710938 342.808594 43.667969 C 357.503906 52.984375 367.179688 69.113281 367.179688 90.96875 C 367.179688 121.789062 347.46875 141.140625 320.953125 152.609375 C 327.402344 163.714844 342.808594 187.726562 353.5625 203.851562 C 366.820312 222.84375 373.628906 231.800781 381.871094 240.757812 C 391.546875 251.152344 399.789062 255.097656 408.03125 257.242188 " fill-opacity="1" fill-rule="nonzero"/></g><g clip-path="url(#94740944fb)"><path fill="#00bf62" d="M 395.980469 236.390625 C 395.980469 245.5 388.601562 252.878906 379.496094 252.878906 C 370.390625 252.878906 363.011719 245.5 363.011719 236.390625 C 363.011719 227.289062 370.390625 219.910156 379.496094 219.910156 C 388.601562 219.910156 395.980469 227.289062 395.980469 236.390625 Z M 604.648438 65.351562 C 604.648438 74.457031 597.265625 81.835938 588.164062 81.835938 C 579.058594 81.835938 571.679688 74.457031 571.679688 65.351562 C 571.679688 56.25 579.058594 48.867188 588.164062 48.867188 C 597.265625 48.867188 604.648438 56.25 604.648438 65.351562 Z M 570.492188 218.050781 C 565.105469 226.078125 558.296875 233.0625 550.253906 238.808594 C 542.417969 244.398438 534.175781 247.238281 525.746094 247.238281 C 520.988281 247.238281 516.800781 246.265625 513.292969 244.351562 C 509.289062 242.171875 508.828125 239.585938 508.828125 237.832031 C 508.828125 236.53125 509.917969 232.71875 520.027344 225.398438 C 528.035156 219.59375 538.132812 214.164062 550.046875 209.257812 C 560.363281 205.011719 570.339844 202.136719 579.769531 200.703125 C 577.878906 205.867188 574.769531 211.683594 570.492188 218.050781 Z M 406.097656 80.710938 C 411.488281 72.683594 418.296875 65.699219 426.339844 59.957031 C 434.171875 54.363281 442.417969 51.53125 450.851562 51.53125 C 455.605469 51.53125 459.796875 52.496094 463.304688 54.410156 C 467.304688 56.59375 467.769531 59.175781 467.769531 60.933594 C 467.769531 62.230469 466.675781 66.046875 456.566406 73.367188 C 448.558594 79.171875 438.460938 84.601562 426.550781 89.503906 C 416.230469 93.753906 406.253906 96.625 396.820312 98.0625 C 398.71875 92.894531 401.824219 87.078125 406.097656 80.710938 Z M 597.378906 101.308594 C 586.648438 91.324219 573.140625 86.261719 557.222656 86.261719 C 537.964844 86.261719 521.492188 92.78125 508.261719 105.640625 C 495.304688 118.238281 485.472656 132.132812 479.035156 146.945312 C 477.066406 151.476562 475.496094 155.300781 474.234375 158.550781 C 471.480469 162.261719 468.597656 165.847656 465.585938 169.300781 C 454.742188 181.726562 440.394531 188.027344 422.949219 188.027344 C 411.519531 188.027344 403.019531 184.597656 396.957031 177.542969 C 390.871094 170.464844 387.789062 160.238281 387.789062 147.144531 C 387.789062 137.484375 389.054688 127.476562 391.550781 117.367188 C 407.039062 114.699219 422.269531 110.417969 436.84375 104.632812 C 452.054688 98.601562 464.640625 91.472656 474.261719 83.4375 C 484.292969 75.054688 489.378906 66.160156 489.378906 56.996094 C 489.378906 48.644531 485.886719 42.148438 479 37.691406 C 472.492188 33.480469 464.464844 31.34375 455.144531 31.34375 C 439.761719 31.34375 424.722656 37.402344 410.445312 49.339844 C 396.371094 61.113281 384.8125 76.472656 376.097656 94.996094 C 367.375 113.523438 362.957031 132.511719 362.957031 151.4375 C 362.957031 171.941406 368.425781 187.421875 379.214844 197.457031 C 389.945312 207.441406 403.453125 212.503906 419.371094 212.503906 C 438.628906 212.503906 455.101562 205.980469 468.332031 193.121094 C 481.289062 180.527344 491.121094 166.632812 497.558594 151.820312 C 499.523438 147.289062 501.101562 143.460938 502.355469 140.214844 C 505.113281 136.5 507.996094 132.914062 511.007812 129.464844 C 521.855469 117.035156 536.199219 110.734375 553.644531 110.734375 C 565.074219 110.734375 573.574219 114.164062 579.636719 121.222656 C 585.722656 128.296875 588.808594 138.527344 588.808594 151.621094 C 588.808594 161.277344 587.542969 171.285156 585.039062 181.394531 C 569.554688 184.0625 554.328125 188.34375 539.75 194.128906 C 524.542969 200.160156 511.953125 207.292969 502.332031 215.324219 C 492.300781 223.707031 487.214844 232.605469 487.214844 241.765625 C 487.214844 250.121094 490.707031 256.617188 497.59375 261.074219 C 504.101562 265.285156 512.128906 267.417969 521.449219 267.417969 C 536.832031 267.417969 551.871094 261.363281 566.144531 249.425781 C 580.222656 237.652344 591.78125 222.289062 600.496094 203.769531 C 609.21875 185.242188 613.640625 166.25 613.640625 147.324219 C 613.640625 126.824219 608.167969 111.339844 597.378906 101.308594 " fill-opacity="1" fill-rule="nonzero"/></g><g clip-path="url(#7aa17ddc32)"><path fill="#00bf62" d="M 1045.054688 153.886719 C 1045.253906 151.125 1045.359375 148.328125 1045.359375 145.511719 C 1045.359375 126.1875 1040.601562 107.953125 1032.207031 91.910156 L 973.804688 58.914062 L 898.542969 100.105469 C 898.089844 100.351562 897.601562 100.46875 897.121094 100.46875 C 896.078125 100.46875 895.0625 99.914062 894.523438 98.929688 C 893.742188 97.496094 894.265625 95.695312 895.699219 94.914062 L 916.820312 83.355469 L 903.613281 70.207031 L 851.910156 100.171875 L 854.191406 102.242188 L 850.210938 106.625 L 843.476562 100.507812 L 843.476562 105.148438 L 854.191406 114.875 L 850.210938 119.257812 L 843.476562 113.140625 L 843.476562 117.78125 L 854.191406 127.511719 L 850.210938 131.890625 L 843.476562 125.773438 L 843.476562 130.414062 L 854.191406 140.140625 L 850.210938 144.523438 L 843.476562 138.40625 L 843.476562 157.550781 C 851.851562 159.683594 859.964844 162.730469 867.675781 166.636719 L 867.675781 148.425781 L 860.941406 154.542969 L 856.960938 150.164062 L 867.675781 140.433594 L 867.675781 135.792969 L 860.941406 141.910156 L 856.960938 137.53125 L 867.675781 127.800781 L 867.675781 123.164062 L 860.941406 129.277344 L 856.960938 124.894531 L 868.648438 114.289062 C 869.773438 113.265625 871.496094 113.265625 872.625 114.289062 L 884.308594 124.894531 L 880.332031 129.277344 L 873.59375 123.164062 L 873.59375 127.800781 L 884.308594 137.53125 L 880.332031 141.910156 L 873.59375 135.792969 L 873.59375 140.433594 L 884.308594 150.164062 L 880.332031 154.542969 L 873.59375 148.425781 L 873.59375 169.847656 C 879.359375 173.195312 884.863281 177.046875 890.054688 181.375 L 890.054688 146.996094 L 929.371094 127.574219 L 968.6875 146.996094 L 968.6875 181.375 C 972.320312 178.34375 976.109375 175.558594 980.03125 173.011719 C 977.40625 172.011719 975.425781 169.609375 975.128906 166.625 C 974.804688 163.390625 976.558594 160.433594 979.296875 159.050781 L 979.296875 159.046875 C 982.304688 156.765625 986.585938 154.019531 986.585938 154.019531 L 989.867188 157.773438 L 993.320312 155.972656 L 990.539062 151.261719 L 993.367188 149.34375 L 990.101562 142.871094 L 992.828125 141.414062 L 996.507812 147.707031 L 999.976562 146.105469 L 1000.976562 147.875 C 1001.652344 147.59375 1002.382812 147.402344 1003.148438 147.328125 C 1007.347656 146.90625 1011.09375 149.976562 1011.511719 154.171875 C 1011.683594 155.898438 1011.25 157.535156 1010.410156 158.910156 C 1011.757812 158.5 1013.113281 158.113281 1014.476562 157.753906 L 1014.476562 139.582031 L 1007.738281 145.695312 L 1003.757812 141.316406 L 1014.476562 131.585938 L 1014.476562 126.945312 L 1007.738281 133.0625 L 1003.757812 128.683594 L 1014.476562 118.953125 L 1014.476562 114.3125 L 1007.738281 120.429688 L 1003.757812 116.046875 L 1014.476562 106.324219 L 1014.476562 101.679688 L 1007.738281 107.796875 L 1003.757812 103.417969 L 1015.445312 92.808594 C 1016.574219 91.785156 1018.296875 91.785156 1019.421875 92.808594 L 1031.109375 103.417969 L 1027.128906 107.796875 L 1020.390625 101.679688 L 1020.390625 106.324219 L 1031.109375 116.046875 L 1027.128906 120.429688 L 1020.390625 114.3125 L 1020.390625 118.953125 L 1031.109375 128.683594 L 1027.128906 133.0625 L 1020.390625 126.945312 L 1020.390625 131.585938 L 1031.109375 141.316406 L 1027.128906 145.695312 L 1020.390625 139.582031 L 1020.390625 156.367188 C 1028.433594 154.699219 1036.695312 153.855469 1045.054688 153.886719 Z M 1043.589844 159.804688 C 1015.984375 160.039062 989.640625 170.292969 969.082031 188.859375 C 948.53125 207.421875 935.667969 232.585938 932.628906 260.019531 C 960.222656 259.796875 986.566406 249.554688 1007.128906 230.980469 C 1027.695312 212.402344 1040.566406 187.230469 1043.589844 159.804688 Z M 929.371094 244.453125 C 934.691406 222.460938 946.191406 202.445312 962.769531 186.648438 L 962.769531 150.675781 L 929.371094 134.171875 L 895.972656 150.675781 L 895.972656 186.648438 C 912.550781 202.445312 924.050781 222.460938 929.371094 244.453125 Z M 926.113281 260.019531 C 923.078125 232.585938 910.210938 207.421875 889.660156 188.859375 C 869.105469 170.292969 842.757812 160.042969 815.15625 159.804688 C 818.175781 187.230469 831.046875 212.402344 851.613281 230.980469 C 872.175781 249.550781 898.523438 259.796875 926.113281 260.019531 Z M 813.6875 153.886719 C 821.773438 153.855469 829.761719 154.640625 837.558594 156.203125 L 837.558594 138.40625 L 830.820312 144.523438 L 826.84375 140.140625 L 837.558594 130.414062 L 837.558594 125.773438 L 830.820312 131.890625 L 826.84375 127.511719 L 837.558594 117.78125 L 837.558594 113.140625 L 830.820312 119.257812 L 826.84375 114.875 L 837.558594 105.148438 L 837.558594 100.507812 L 830.820312 106.625 L 826.84375 102.242188 L 838.527344 91.636719 C 839.65625 90.609375 841.378906 90.609375 842.503906 91.636719 L 847.3125 96 L 902.609375 63.949219 C 903.761719 63.277344 905.230469 63.46875 906.179688 64.414062 L 922.230469 80.394531 L 972.40625 52.933594 C 973.304688 52.445312 974.390625 52.453125 975.28125 52.953125 L 1026.183594 81.710938 C 1005.410156 50.292969 969.773438 29.523438 929.371094 29.523438 C 865.414062 29.523438 813.382812 81.554688 813.382812 145.511719 C 813.382812 148.328125 813.488281 151.121094 813.6875 153.886719 Z M 1051.277344 145.511719 C 1051.277344 212.734375 996.589844 267.421875 929.371094 267.421875 C 862.152344 267.421875 807.464844 212.734375 807.464844 145.511719 C 807.464844 78.292969 862.152344 23.605469 929.371094 23.605469 C 975.796875 23.605469 1016.238281 49.695312 1036.820312 87.976562 C 1037.03125 88.246094 1037.179688 88.546875 1037.289062 88.863281 C 1046.214844 105.796875 1051.277344 125.074219 1051.277344 145.511719 Z M 930.558594 162.59375 L 938.21875 162.59375 L 938.21875 154.929688 L 930.558594 154.929688 Z M 920.523438 162.59375 L 928.183594 162.59375 L 928.183594 154.929688 L 920.523438 154.929688 Z M 930.558594 153.175781 L 938.21875 153.175781 L 938.21875 145.511719 L 930.558594 145.511719 Z M 920.523438 145.511719 L 928.183594 145.511719 L 928.183594 153.175781 L 920.523438 153.175781 L 920.523438 145.511719 " fill-opacity="1" fill-rule="nonzero"/></g><g fill="#00bf62" fill-opacity="1"><g transform="translate(43.815791, 315.508229)"><g><path d="M 26.859375 -24.421875 C 26.210938 -25.609375 25.285156 -26.515625 24.078125 -27.140625 C 22.878906 -27.765625 21.46875 -28.078125 19.84375 -28.078125 C 17.03125 -28.078125 14.773438 -27.148438 13.078125 -25.296875 C 11.378906 -23.453125 10.53125 -20.988281 10.53125 -17.90625 C 10.53125 -14.613281 11.421875 -12.039062 13.203125 -10.1875 C 14.984375 -8.34375 17.429688 -7.421875 20.546875 -7.421875 C 22.691406 -7.421875 24.5 -7.960938 25.96875 -9.046875 C 27.445312 -10.140625 28.523438 -11.703125 29.203125 -13.734375 L 18.15625 -13.734375 L 18.15625 -20.140625 L 37.09375 -20.140625 L 37.09375 -12.0625 C 36.445312 -9.882812 35.347656 -7.863281 33.796875 -6 C 32.253906 -4.132812 30.296875 -2.625 27.921875 -1.46875 C 25.554688 -0.320312 22.878906 0.25 19.890625 0.25 C 16.359375 0.25 13.210938 -0.519531 10.453125 -2.0625 C 7.691406 -3.601562 5.535156 -5.742188 3.984375 -8.484375 C 2.441406 -11.234375 1.671875 -14.375 1.671875 -17.90625 C 1.671875 -21.4375 2.441406 -24.582031 3.984375 -27.34375 C 5.535156 -30.101562 7.679688 -32.253906 10.421875 -33.796875 C 13.171875 -35.347656 16.3125 -36.125 19.84375 -36.125 C 24.113281 -36.125 27.710938 -35.085938 30.640625 -33.015625 C 33.578125 -30.953125 35.523438 -28.085938 36.484375 -24.421875 Z M 26.859375 -24.421875 "/></g></g></g><g fill="#00bf62" fill-opacity="1"><g transform="translate(90.566291, 315.508229)"><g><path d="M 21.375 0 L 13.9375 -13.484375 L 11.859375 -13.484375 L 11.859375 0 L 3.15625 0 L 3.15625 -35.71875 L 17.75 -35.71875 C 20.570312 -35.71875 22.972656 -35.222656 24.953125 -34.234375 C 26.941406 -33.253906 28.425781 -31.90625 29.40625 -30.1875 C 30.382812 -28.476562 30.875 -26.570312 30.875 -24.46875 C 30.875 -22.09375 30.203125 -19.972656 28.859375 -18.109375 C 27.523438 -16.242188 25.550781 -14.921875 22.9375 -14.140625 L 31.1875 0 Z M 11.859375 -19.640625 L 17.25 -19.640625 C 18.84375 -19.640625 20.035156 -20.03125 20.828125 -20.8125 C 21.628906 -21.59375 22.03125 -22.691406 22.03125 -24.109375 C 22.03125 -25.472656 21.628906 -26.539062 20.828125 -27.3125 C 20.035156 -28.09375 18.84375 -28.484375 17.25 -28.484375 L 11.859375 -28.484375 Z M 11.859375 -19.640625 "/></g></g></g><g fill="#00bf62" fill-opacity="1"><g transform="translate(131.721173, 315.508229)"><g><path d="M 11.859375 -28.75 L 11.859375 -21.515625 L 23.5 -21.515625 L 23.5 -14.796875 L 11.859375 -14.796875 L 11.859375 -6.96875 L 25.03125 -6.96875 L 25.03125 0 L 3.15625 0 L 3.15625 -35.71875 L 25.03125 -35.71875 L 25.03125 -28.75 Z M 11.859375 -28.75 "/></g></g></g><g fill="#00bf62" fill-opacity="1"><g transform="translate(167.229572, 315.508229)"><g><path d="M 11.859375 -28.75 L 11.859375 -21.515625 L 23.5 -21.515625 L 23.5 -14.796875 L 11.859375 -14.796875 L 11.859375 -6.96875 L 25.03125 -6.96875 L 25.03125 0 L 3.15625 0 L 3.15625 -35.71875 L 25.03125 -35.71875 L 25.03125 -28.75 Z M 11.859375 -28.75 "/></g></g></g><g fill="#00bf62" fill-opacity="1"><g transform="translate(202.737975, 315.508229)"><g><path d="M 35.109375 0 L 26.40625 0 L 11.859375 -22.03125 L 11.859375 0 L 3.15625 0 L 3.15625 -35.71875 L 11.859375 -35.71875 L 26.40625 -13.578125 L 26.40625 -35.71875 L 35.109375 -35.71875 Z M 35.109375 0 "/></g></g></g><g fill="#00bf62" fill-opacity="1"><g transform="translate(248.979788, 315.508229)"><g><path d="M 30.375 -24.21875 C 30.375 -22.144531 29.894531 -20.25 28.9375 -18.53125 C 27.988281 -16.820312 26.53125 -15.441406 24.5625 -14.390625 C 22.601562 -13.347656 20.164062 -12.828125 17.25 -12.828125 L 11.859375 -12.828125 L 11.859375 0 L 3.15625 0 L 3.15625 -35.71875 L 17.25 -35.71875 C 20.09375 -35.71875 22.5 -35.222656 24.46875 -34.234375 C 26.4375 -33.253906 27.910156 -31.898438 28.890625 -30.171875 C 29.878906 -28.441406 30.375 -26.457031 30.375 -24.21875 Z M 16.578125 -19.734375 C 18.242188 -19.734375 19.484375 -20.125 20.296875 -20.90625 C 21.109375 -21.6875 21.515625 -22.789062 21.515625 -24.21875 C 21.515625 -25.644531 21.109375 -26.742188 20.296875 -27.515625 C 19.484375 -28.296875 18.242188 -28.6875 16.578125 -28.6875 L 11.859375 -28.6875 L 11.859375 -19.734375 Z M 16.578125 -19.734375 "/></g></g></g><g fill="#00bf62" fill-opacity="1"><g transform="translate(288.710326, 315.508229)"><g><path d="M 25.390625 -6.3125 L 12.0625 -6.3125 L 9.921875 0 L 0.8125 0 L 13.734375 -35.71875 L 23.8125 -35.71875 L 36.734375 0 L 27.515625 0 Z M 23.140625 -13.03125 L 18.71875 -26.09375 L 14.34375 -13.03125 Z M 23.140625 -13.03125 "/></g></g></g><g fill="#00bf62" fill-opacity="1"><g transform="translate(334.189087, 315.508229)"><g><path d="M 21.375 0 L 13.9375 -13.484375 L 11.859375 -13.484375 L 11.859375 0 L 3.15625 0 L 3.15625 -35.71875 L 17.75 -35.71875 C 20.570312 -35.71875 22.972656 -35.222656 24.953125 -34.234375 C 26.941406 -33.253906 28.425781 -31.90625 29.40625 -30.1875 C 30.382812 -28.476562 30.875 -26.570312 30.875 -24.46875 C 30.875 -22.09375 30.203125 -19.972656 28.859375 -18.109375 C 27.523438 -16.242188 25.550781 -14.921875 22.9375 -14.140625 L 31.1875 0 Z M 11.859375 -19.640625 L 17.25 -19.640625 C 18.84375 -19.640625 20.035156 -20.03125 20.828125 -20.8125 C 21.628906 -21.59375 22.03125 -22.691406 22.03125 -24.109375 C 22.03125 -25.472656 21.628906 -26.539062 20.828125 -27.3125 C 20.035156 -28.09375 18.84375 -28.484375 17.25 -28.484375 L 11.859375 -28.484375 Z M 11.859375 -19.640625 "/></g></g></g><g fill="#00bf62" fill-opacity="1"><g transform="translate(375.343973, 315.508229)"><g><path d="M 23.859375 0 L 11.859375 -15.765625 L 11.859375 0 L 3.15625 0 L 3.15625 -35.71875 L 11.859375 -35.71875 L 11.859375 -20.046875 L 23.765625 -35.71875 L 33.984375 -35.71875 L 20.140625 -18.21875 L 34.5 0 Z M 23.859375 0 "/></g></g></g><g fill="#00bf62" fill-opacity="1"><g transform="translate(418.787977, 315.508229)"><g/></g></g><g fill="#00bf62" fill-opacity="1"><g transform="translate(437.560375, 315.508229)"><g><path d="M 43.59375 -35.71875 L 43.59375 0 L 34.90625 0 L 34.90625 -21.421875 L 26.90625 0 L 19.890625 0 L 11.859375 -21.46875 L 11.859375 0 L 3.15625 0 L 3.15625 -35.71875 L 13.4375 -35.71875 L 23.453125 -10.984375 L 33.375 -35.71875 Z M 43.59375 -35.71875 "/></g></g></g><g fill="#00bf62" fill-opacity="1"><g transform="translate(492.24649, 315.508229)"><g><path d="M 11.859375 -28.75 L 11.859375 -21.515625 L 23.5 -21.515625 L 23.5 -14.796875 L 11.859375 -14.796875 L 11.859375 -6.96875 L 25.03125 -6.96875 L 25.03125 0 L 3.15625 0 L 3.15625 -35.71875 L 25.03125 -35.71875 L 25.03125 -28.75 Z M 11.859375 -28.75 "/></g></g></g><g fill="#00bf62" fill-opacity="1"><g transform="translate(527.754882, 315.508229)"><g><path d="M 43.59375 -35.71875 L 43.59375 0 L 34.90625 0 L 34.90625 -21.421875 L 26.90625 0 L 19.890625 0 L 11.859375 -21.46875 L 11.859375 0 L 3.15625 0 L 3.15625 -35.71875 L 13.4375 -35.71875 L 23.453125 -10.984375 L 33.375 -35.71875 Z M 43.59375 -35.71875 "/></g></g></g><g fill="#00bf62" fill-opacity="1"><g transform="translate(582.440997, 315.508229)"><g><path d="M 20.046875 0.359375 C 16.691406 0.359375 13.613281 -0.421875 10.8125 -1.984375 C 8.007812 -3.546875 5.785156 -5.722656 4.140625 -8.515625 C 2.492188 -11.316406 1.671875 -14.460938 1.671875 -17.953125 C 1.671875 -21.453125 2.492188 -24.59375 4.140625 -27.375 C 5.785156 -30.15625 8.007812 -32.320312 10.8125 -33.875 C 13.613281 -35.4375 16.691406 -36.21875 20.046875 -36.21875 C 23.398438 -36.21875 26.472656 -35.4375 29.265625 -33.875 C 32.066406 -32.320312 34.273438 -30.15625 35.890625 -27.375 C 37.503906 -24.59375 38.3125 -21.453125 38.3125 -17.953125 C 38.3125 -14.460938 37.492188 -11.316406 35.859375 -8.515625 C 34.234375 -5.722656 32.03125 -3.546875 29.25 -1.984375 C 26.46875 -0.421875 23.398438 0.359375 20.046875 0.359375 Z M 20.046875 -7.578125 C 22.890625 -7.578125 25.164062 -8.523438 26.875 -10.421875 C 28.59375 -12.328125 29.453125 -14.835938 29.453125 -17.953125 C 29.453125 -21.109375 28.59375 -23.628906 26.875 -25.515625 C 25.164062 -27.398438 22.890625 -28.34375 20.046875 -28.34375 C 17.160156 -28.34375 14.859375 -27.40625 13.140625 -25.53125 C 11.429688 -23.664062 10.578125 -21.140625 10.578125 -17.953125 C 10.578125 -14.804688 11.429688 -12.289062 13.140625 -10.40625 C 14.859375 -8.519531 17.160156 -7.578125 20.046875 -7.578125 Z M 20.046875 -7.578125 "/></g></g></g><g fill="#00bf62" fill-opacity="1"><g transform="translate(630.412362, 315.508229)"><g><path d="M 21.375 0 L 13.9375 -13.484375 L 11.859375 -13.484375 L 11.859375 0 L 3.15625 0 L 3.15625 -35.71875 L 17.75 -35.71875 C 20.570312 -35.71875 22.972656 -35.222656 24.953125 -34.234375 C 26.941406 -33.253906 28.425781 -31.90625 29.40625 -30.1875 C 30.382812 -28.476562 30.875 -26.570312 30.875 -24.46875 C 30.875 -22.09375 30.203125 -19.972656 28.859375 -18.109375 C 27.523438 -16.242188 25.550781 -14.921875 22.9375 -14.140625 L 31.1875 0 Z M 11.859375 -19.640625 L 17.25 -19.640625 C 18.84375 -19.640625 20.035156 -20.03125 20.828125 -20.8125 C 21.628906 -21.59375 22.03125 -22.691406 22.03125 -24.109375 C 22.03125 -25.472656 21.628906 -26.539062 20.828125 -27.3125 C 20.035156 -28.09375 18.84375 -28.484375 17.25 -28.484375 L 11.859375 -28.484375 Z M 11.859375 -19.640625 "/></g></g></g><g fill="#00bf62" fill-opacity="1"><g transform="translate(671.567225, 315.508229)"><g><path d="M 11.859375 -35.71875 L 11.859375 0 L 3.15625 0 L 3.15625 -35.71875 Z M 11.859375 -35.71875 "/></g></g></g><g fill="#00bf62" fill-opacity="1"><g transform="translate(694.561768, 315.508229)"><g><path d="M 25.390625 -6.3125 L 12.0625 -6.3125 L 9.921875 0 L 0.8125 0 L 13.734375 -35.71875 L 23.8125 -35.71875 L 36.734375 0 L 27.515625 0 Z M 23.140625 -13.03125 L 18.71875 -26.09375 L 14.34375 -13.03125 Z M 23.140625 -13.03125 "/></g></g></g><g fill="#00bf62" fill-opacity="1"><g transform="translate(740.04053, 315.508229)"><g><path d="M 11.859375 -6.71875 L 23.25 -6.71875 L 23.25 0 L 3.15625 0 L 3.15625 -35.71875 L 11.859375 -35.71875 Z M 11.859375 -6.71875 "/></g></g></g><g fill="#00bf62" fill-opacity="1"><g transform="translate(772.293302, 315.508229)"><g/></g></g><g fill="#00bf62" fill-opacity="1"><g transform="translate(791.065699, 315.508229)"><g><path d="M 26.859375 -24.421875 C 26.210938 -25.609375 25.285156 -26.515625 24.078125 -27.140625 C 22.878906 -27.765625 21.46875 -28.078125 19.84375 -28.078125 C 17.03125 -28.078125 14.773438 -27.148438 13.078125 -25.296875 C 11.378906 -23.453125 10.53125 -20.988281 10.53125 -17.90625 C 10.53125 -14.613281 11.421875 -12.039062 13.203125 -10.1875 C 14.984375 -8.34375 17.429688 -7.421875 20.546875 -7.421875 C 22.691406 -7.421875 24.5 -7.960938 25.96875 -9.046875 C 27.445312 -10.140625 28.523438 -11.703125 29.203125 -13.734375 L 18.15625 -13.734375 L 18.15625 -20.140625 L 37.09375 -20.140625 L 37.09375 -12.0625 C 36.445312 -9.882812 35.347656 -7.863281 33.796875 -6 C 32.253906 -4.132812 30.296875 -2.625 27.921875 -1.46875 C 25.554688 -0.320312 22.878906 0.25 19.890625 0.25 C 16.359375 0.25 13.210938 -0.519531 10.453125 -2.0625 C 7.691406 -3.601562 5.535156 -5.742188 3.984375 -8.484375 C 2.441406 -11.234375 1.671875 -14.375 1.671875 -17.90625 C 1.671875 -21.4375 2.441406 -24.582031 3.984375 -27.34375 C 5.535156 -30.101562 7.679688 -32.253906 10.421875 -33.796875 C 13.171875 -35.347656 16.3125 -36.125 19.84375 -36.125 C 24.113281 -36.125 27.710938 -35.085938 30.640625 -33.015625 C 33.578125 -30.953125 35.523438 -28.085938 36.484375 -24.421875 Z M 26.859375 -24.421875 "/></g></g></g><g fill="#00bf62" fill-opacity="1"><g transform="translate(837.816201, 315.508229)"><g><path d="M 25.390625 -6.3125 L 12.0625 -6.3125 L 9.921875 0 L 0.8125 0 L 13.734375 -35.71875 L 23.8125 -35.71875 L 36.734375 0 L 27.515625 0 Z M 23.140625 -13.03125 L 18.71875 -26.09375 L 14.34375 -13.03125 Z M 23.140625 -13.03125 "/></g></g></g><g fill="#00bf62" fill-opacity="1"><g transform="translate(883.294963, 315.508229)"><g><path d="M 21.375 0 L 13.9375 -13.484375 L 11.859375 -13.484375 L 11.859375 0 L 3.15625 0 L 3.15625 -35.71875 L 17.75 -35.71875 C 20.570312 -35.71875 22.972656 -35.222656 24.953125 -34.234375 C 26.941406 -33.253906 28.425781 -31.90625 29.40625 -30.1875 C 30.382812 -28.476562 30.875 -26.570312 30.875 -24.46875 C 30.875 -22.09375 30.203125 -19.972656 28.859375 -18.109375 C 27.523438 -16.242188 25.550781 -14.921875 22.9375 -14.140625 L 31.1875 0 Z M 11.859375 -19.640625 L 17.25 -19.640625 C 18.84375 -19.640625 20.035156 -20.03125 20.828125 -20.8125 C 21.628906 -21.59375 22.03125 -22.691406 22.03125 -24.109375 C 22.03125 -25.472656 21.628906 -26.539062 20.828125 -27.3125 C 20.035156 -28.09375 18.84375 -28.484375 17.25 -28.484375 L 11.859375 -28.484375 Z M 11.859375 -19.640625 "/></g></g></g><g fill="#00bf62" fill-opacity="1"><g transform="translate(924.449872, 315.508229)"><g><path d="M 16.53125 -35.71875 C 20.300781 -35.71875 23.59375 -34.96875 26.40625 -33.46875 C 29.21875 -31.976562 31.394531 -29.882812 32.9375 -27.1875 C 34.476562 -24.488281 35.25 -21.378906 35.25 -17.859375 C 35.25 -14.359375 34.476562 -11.253906 32.9375 -8.546875 C 31.394531 -5.835938 29.207031 -3.734375 26.375 -2.234375 C 23.539062 -0.742188 20.257812 0 16.53125 0 L 3.15625 0 L 3.15625 -35.71875 Z M 15.96875 -7.53125 C 19.257812 -7.53125 21.820312 -8.425781 23.65625 -10.21875 C 25.488281 -12.019531 26.40625 -14.566406 26.40625 -17.859375 C 26.40625 -21.148438 25.488281 -23.707031 23.65625 -25.53125 C 21.820312 -27.363281 19.257812 -28.28125 15.96875 -28.28125 L 11.859375 -28.28125 L 11.859375 -7.53125 Z M 15.96875 -7.53125 "/></g></g></g><g fill="#00bf62" fill-opacity="1"><g transform="translate(969.419956, 315.508229)"><g><path d="M 11.859375 -28.75 L 11.859375 -21.515625 L 23.5 -21.515625 L 23.5 -14.796875 L 11.859375 -14.796875 L 11.859375 -6.96875 L 25.03125 -6.96875 L 25.03125 0 L 3.15625 0 L 3.15625 -35.71875 L 25.03125 -35.71875 L 25.03125 -28.75 Z M 11.859375 -28.75 "/></g></g></g><g fill="#00bf62" fill-opacity="1"><g transform="translate(1004.928394, 315.508229)"><g><path d="M 35.109375 0 L 26.40625 0 L 11.859375 -22.03125 L 11.859375 0 L 3.15625 0 L 3.15625 -35.71875 L 11.859375 -35.71875 L 26.40625 -13.578125 L 26.40625 -35.71875 L 35.109375 -35.71875 Z M 35.109375 0 "/></g></g></g></svg>