<svg xmlns="http://www.w3.org/2000/svg" xmlns:xlink="http://www.w3.org/1999/xlink" width="1920" zoomAndPan="magnify" viewBox="0 0 1440 809.999993" height="1080" preserveAspectRatio="xMidYMid meet" version="1.0"><defs><filter x="0%" y="0%" width="100%" height="100%" id="9402e4fca4"><feColorMatrix values="0 0 0 0 1 0 0 0 0 1 0 0 0 0 1 0 0 0 1 0" color-interpolation-filters="sRGB"/></filter><g/><mask id="dfc0ecc724"><g filter="url(#9402e4fca4)"><rect x="-144" width="1728" fill="#000000" y="-80.999999" height="971.999992" fill-opacity="0.15"/></g></mask><clipPath id="3186ddae5c"><path d="M 0.078125 117 L 125 117 L 125 324 L 0.078125 324 Z M 0.078125 117 " clip-rule="nonzero"/></clipPath><clipPath id="8b8fa83de1"><path d="M 130 207 L 293.574219 207 L 293.574219 330.753906 L 130 330.753906 Z M 130 207 " clip-rule="nonzero"/></clipPath><clipPath id="0387765c1c"><path d="M 16 11.644531 L 277 11.644531 L 277 148 L 16 148 Z M 16 11.644531 " clip-rule="nonzero"/></clipPath><clipPath id="931cca69c9"><path d="M 915 50 L 1039 50 L 1039 330.753906 L 915 330.753906 Z M 915 50 " clip-rule="nonzero"/></clipPath><clipPath id="8e215afe4f"><path d="M 764.9375 11.644531 L 1053 11.644531 L 1053 321 L 764.9375 321 Z M 764.9375 11.644531 " clip-rule="nonzero"/></clipPath><clipPath id="a8a515984a"><path d="M 224.441406 11.644531 L 513.40625 11.644531 L 513.40625 330.753906 L 224.441406 330.753906 Z M 224.441406 11.644531 " clip-rule="nonzero"/></clipPath><clipPath id="460c3df4f5"><path d="M 452.414062 11.644531 L 791.378906 11.644531 L 791.378906 330.753906 L 452.414062 330.753906 Z M 452.414062 11.644531 " clip-rule="nonzero"/></clipPath><clipPath id="2e94425769"><path d="M 1052.816406 1.1875 L 1382.222656 1.1875 L 1382.222656 330.59375 L 1052.816406 330.59375 Z M 1052.816406 1.1875 " clip-rule="nonzero"/></clipPath><clipPath id="4fd0641f34"><rect x="0" width="1383" y="0" height="420"/></clipPath></defs><g mask="url(#dfc0ecc724)"><g transform="matrix(1, 0, 0, 1, 34, 198)"><g clip-path="url(#4fd0641f34)"><g clip-path="url(#3186ddae5c)"><path fill="#00bf63" d="M 124.386719 318.113281 C 122.097656 311.945312 119.546875 305.796875 115.761719 300.335938 C 112.027344 294.773438 107.53125 289.785156 102.605469 285.429688 C 100.855469 283.902344 99.0625 282.460938 97.253906 281.054688 C 97.234375 281.039062 97.226562 281.019531 97.234375 280.992188 C 102.660156 261.191406 99.433594 231.054688 99.019531 227.460938 C 99.011719 227.394531 98.921875 227.398438 98.90625 227.46875 C 96.460938 239.371094 88.996094 240.308594 88.28125 240.371094 C 88.246094 240.375 88.226562 240.347656 88.226562 240.316406 C 88.800781 207.800781 59.613281 180.277344 59.613281 180.277344 C 43.449219 164.023438 37.277344 143.234375 41.03125 117.289062 C 41.039062 117.242188 40.992188 117.207031 40.945312 117.226562 C 7.386719 130.855469 11.308594 172.941406 11.523438 174.992188 C 11.527344 175.039062 11.496094 175.058594 11.449219 175.042969 C 7.910156 173.992188 4.609375 165.269531 4.121094 163.933594 C 4.101562 163.882812 4.027344 163.894531 4.011719 163.949219 C -10.066406 214.808594 23.367188 261.367188 24.792969 262.914062 C 24.816406 262.9375 24.800781 262.960938 24.777344 262.984375 C 18.886719 267.21875 9.769531 262.40625 7.789062 261.269531 C 7.726562 261.230469 7.671875 261.320312 7.722656 261.371094 C 55.628906 310.496094 83.925781 290.320312 87.8125 288.023438 C 87.855469 288 87.847656 287.960938 87.800781 287.9375 C 34.558594 258.902344 32.699219 200.898438 32.667969 193.9375 C 32.667969 193.863281 32.769531 193.851562 32.78125 193.921875 C 33.976562 200.867188 38.214844 211.542969 41.4375 219.035156 C 43.320312 223.804688 45.441406 228.484375 47.710938 233.074219 C 50.605469 238.804688 53.785156 244.382812 57.234375 249.820312 C 60.757812 255.292969 65.027344 260.265625 69.667969 264.8125 C 79.023438 273.878906 89.910156 280.894531 98.835938 289.515625 C 103.273438 293.839844 107.140625 298.605469 110.28125 303.800781 C 113.507812 308.953125 115.542969 314.742188 117.386719 320.527344 L 117.46875 320.777344 C 117.484375 320.824219 117.5 320.875 117.519531 320.921875 C 118.265625 322.945312 120.589844 323.925781 122.582031 322.988281 C 124.363281 322.152344 125.070312 319.960938 124.386719 318.113281 " fill-opacity="1" fill-rule="nonzero"/></g><g clip-path="url(#8b8fa83de1)"><path fill="#00bf63" d="M 283.382812 257.449219 L 283.382812 239.941406 C 283.382812 233.675781 285.113281 228.792969 288.601562 225.3125 C 292.101562 221.828125 293.835938 218.511719 293.835938 215.378906 C 293.835938 212.246094 292.875 210.21875 290.957031 209.285156 C 289.039062 208.367188 285.597656 207.902344 280.632812 207.902344 L 200.5 207.902344 C 192.261719 207.902344 188.144531 210.992188 188.144531 217.183594 C 188.144531 220.625 189.636719 223.433594 192.613281 225.589844 C 195.605469 227.75 199.808594 228.820312 205.226562 228.820312 C 207.214844 228.820312 210.585938 228.695312 215.371094 228.398438 C 220.136719 228.117188 223.652344 227.976562 225.933594 227.976562 C 239.027344 227.976562 245.574219 231.445312 245.574219 238.390625 L 245.574219 267.066406 C 245.574219 280.792969 237.871094 291.246094 222.464844 298.386719 C 207.0625 305.550781 190.359375 309.121094 172.386719 309.121094 C 157.730469 309.121094 144.214844 306.910156 131.828125 302.496094 C 130.695312 302.09375 129.652344 303.265625 130.160156 304.351562 C 131.75 307.738281 133.085938 311.144531 134.308594 314.441406 C 134.929688 316.105469 135.226562 317.824219 135.226562 319.519531 C 135.226562 320.464844 135.136719 321.402344 134.957031 322.316406 C 134.476562 324.800781 136.152344 327.183594 138.644531 327.636719 C 149.117188 329.535156 159.988281 330.480469 171.269531 330.480469 C 188.777344 330.480469 207.003906 327.304688 225.933594 320.972656 C 244.867188 314.636719 260.554688 306.992188 273.011719 298.015625 C 285.46875 289.046875 291.703125 281.640625 291.703125 275.816406 C 291.703125 273.671875 290.320312 271.257812 287.542969 268.550781 C 284.765625 265.839844 283.382812 262.144531 283.382812 257.449219 " fill-opacity="1" fill-rule="nonzero"/></g><g clip-path="url(#0387765c1c)"><path fill="#00bf63" d="M 275.691406 85.863281 C 274.972656 82.378906 274.621094 79.78125 274.621094 78.074219 L 274.621094 60.988281 C 274.621094 48.460938 262.660156 37.105469 238.746094 26.933594 C 214.835938 16.75 188.847656 11.65625 160.804688 11.65625 C 131.898438 11.65625 105.855469 18.527344 82.648438 32.265625 C 59.441406 46.007812 41.328125 65.125 28.308594 89.597656 C 23.386719 98.847656 19.394531 108.371094 16.339844 118.191406 C 15.902344 119.605469 17.664062 120.632812 18.703125 119.574219 C 23.535156 114.65625 29.550781 110.449219 36.96875 107.429688 C 40.480469 105.992188 44.558594 106.570312 47.535156 108.914062 C 50.527344 111.253906 52.050781 115.074219 51.5 118.828125 C 50.042969 128.910156 50.269531 138.023438 52.195312 146.25 C 52.621094 148.070312 55.265625 147.867188 55.445312 146.007812 C 58.4375 115.472656 68.265625 90.117188 84.917969 69.933594 C 105.234375 45.316406 132.265625 33.015625 166.054688 33.015625 C 192.6875 33.015625 213.492188 39.347656 228.460938 52.019531 C 237.011719 59.28125 245.207031 71.019531 253.050781 87.253906 C 257.183594 95.933594 260.316406 101.234375 262.445312 103.167969 C 264.59375 105.085938 266.859375 106.046875 269.289062 106.046875 C 271.558594 106.046875 273.378906 105.019531 274.734375 102.945312 C 276.070312 100.882812 276.75 98.429688 276.75 95.578125 C 276.75 92.589844 276.398438 89.359375 275.691406 85.863281 " fill-opacity="1" fill-rule="nonzero"/></g><path fill="#00bf63" d="M 132.539062 201.183594 C 132.515625 201.167969 132.496094 201.199219 132.5 201.222656 C 136.050781 214.4375 134.140625 225.601562 126.761719 235.027344 C 126.761719 235.027344 113.332031 251.097656 115.640625 267.925781 C 115.636719 267.941406 115.632812 267.957031 115.609375 267.960938 C 115.238281 267.972656 111.308594 267.941406 109.308594 261.917969 C 109.289062 261.886719 109.246094 261.886719 109.246094 261.925781 C 109.25 263.429688 109.363281 273.710938 111.441406 282.855469 L 111.445312 282.859375 C 111.875 284.789062 112.398438 286.664062 113.027344 288.386719 C 113.039062 288.417969 113.058594 288.449219 113.066406 288.480469 C 113.636719 289.785156 114.304688 290.96875 114.960938 292.011719 C 118.710938 287.832031 123.082031 284.003906 126.769531 279.472656 C 128.898438 276.828125 130.804688 273.992188 132.285156 270.9375 C 133.746094 267.902344 135.046875 264.816406 136.199219 261.664062 C 137.085938 259.144531 137.890625 256.585938 138.582031 253.992188 C 139.792969 249.910156 141.324219 244.113281 141.511719 240.445312 C 141.511719 240.402344 141.566406 240.402344 141.578125 240.441406 C 141.988281 244.054688 144.617188 274.242188 118.796875 292.589844 C 118.78125 292.601562 118.777344 292.617188 118.800781 292.628906 C 120.960938 293.582031 136.875 302.296875 158.683594 273.863281 C 158.703125 273.832031 158.660156 273.792969 158.636719 273.8125 C 157.671875 274.53125 153.253906 277.582031 149.929688 275.753906 C 149.925781 275.746094 149.917969 275.734375 149.921875 275.71875 C 150.566406 274.835938 165.019531 248.628906 154.585938 223.125 C 154.570312 223.097656 154.523438 223.097656 154.519531 223.128906 C 154.351562 223.839844 153.179688 228.570312 151.414062 229.335938 C 151.394531 229.347656 151.371094 229.335938 151.371094 229.3125 C 151.359375 228.238281 150.789062 206.175781 132.539062 201.183594 " fill-opacity="1" fill-rule="nonzero"/><g clip-path="url(#931cca69c9)"><path fill="#00bf63" d="M 1018.054688 325.789062 C 1018.789062 317.480469 1019.199219 309.058594 1017.832031 300.742188 C 1016.570312 292.34375 1014.136719 284.183594 1010.855469 276.523438 C 1009.679688 273.824219 1008.40625 271.199219 1007.097656 268.605469 C 1007.085938 268.582031 1007.089844 268.546875 1007.109375 268.523438 C 1024.074219 248.789062 1036.742188 212.511719 1038.21875 208.167969 C 1038.25 208.085938 1038.140625 208.046875 1038.085938 208.117188 C 1028.824219 220.425781 1019.761719 217.445312 1018.910156 217.128906 C 1018.871094 217.113281 1018.859375 217.074219 1018.878906 217.035156 C 1037.191406 180.097656 1018.699219 132.726562 1018.699219 132.726562 C 1009.007812 105.324219 1013.226562 78.15625 1031.609375 50.480469 C 1031.644531 50.429688 1031.609375 50.359375 1031.550781 50.359375 C 985.707031 47.746094 967.351562 98.085938 966.480469 100.554688 C 966.457031 100.613281 966.40625 100.621094 966.363281 100.582031 C 962.882812 97.449219 963.835938 85.664062 964.003906 83.871094 C 964.011719 83.800781 963.917969 83.769531 963.867188 83.824219 C 920.128906 134.445312 933.148438 205.9375 933.941406 208.480469 C 933.953125 208.519531 933.925781 208.539062 933.886719 208.546875 C 924.839844 210.203125 917.007812 199.742188 915.355469 197.359375 C 915.304688 197.285156 915.199219 197.359375 915.222656 197.441406 C 943.429688 279.726562 986.800781 271.984375 992.5 271.460938 C 992.5625 271.453125 992.574219 271.410156 992.53125 271.359375 C 947.304688 209.183594 976.667969 141.730469 980.414062 133.738281 C 980.453125 133.652344 980.574219 133.691406 980.550781 133.78125 C 978.152344 142.386719 977.207031 156.917969 976.835938 167.25 C 976.40625 173.734375 976.289062 180.25 976.394531 186.742188 C 976.605469 194.875 977.214844 202.988281 978.214844 211.097656 C 979.28125 219.277344 981.46875 227.292969 984.320312 235.023438 C 990.109375 250.480469 998.773438 264.4375 1004.320312 279.15625 C 1007.054688 286.519531 1008.894531 294.082031 1009.671875 301.730469 C 1010.570312 309.386719 1009.761719 317.125 1008.730469 324.753906 L 1008.6875 325.085938 C 1008.675781 325.148438 1008.667969 325.210938 1008.664062 325.28125 C 1008.421875 328 1010.550781 330.390625 1013.347656 330.398438 C 1015.839844 330.402344 1017.835938 328.277344 1018.054688 325.789062 " fill-opacity="1" fill-rule="nonzero"/></g><path fill="#00bf63" d="M 901.015625 295.925781 C 901.003906 295.945312 901.03125 295.964844 901.050781 295.964844 C 912.449219 293.515625 922.027344 295.757812 930.050781 302.707031 C 930.050781 302.707031 943.726562 315.304688 958.21875 314.128906 C 958.230469 314.132812 958.246094 314.136719 958.246094 314.160156 C 958.25 314.488281 958.183594 317.933594 952.984375 319.382812 C 952.957031 319.398438 952.957031 319.433594 952.996094 319.4375 C 954.28125 319.511719 963.121094 319.929688 971 318.574219 L 971.011719 318.570312 C 972.675781 318.289062 974.289062 317.921875 975.78125 317.457031 C 975.808594 317.449219 975.832031 317.4375 975.863281 317.429688 C 976.988281 316.992188 978.015625 316.46875 978.917969 315.945312 C 975.363281 312.445312 972.117188 308.417969 968.265625 304.953125 C 966.011719 302.949219 963.59375 301.136719 960.976562 299.679688 C 958.386719 298.246094 955.75 296.949219 953.054688 295.777344 C 950.898438 294.875 948.703125 294.035156 946.480469 293.296875 C 942.988281 292.03125 938.019531 290.394531 934.863281 290.042969 C 934.828125 290.042969 934.832031 289.992188 934.859375 289.984375 C 937.976562 289.808594 963.953125 289.03125 979.453125 312.609375 C 979.464844 312.625 979.476562 312.628906 979.488281 312.613281 C 980.332031 310.761719 987.988281 297.242188 963.777344 276.671875 C 963.753906 276.652344 963.71875 276.6875 963.734375 276.710938 C 964.34375 277.589844 966.917969 281.621094 965.308594 284.445312 C 965.300781 284.449219 965.296875 284.457031 965.28125 284.453125 C 964.53125 283.84375 942.152344 269.832031 920.117188 277.691406 C 920.089844 277.710938 920.089844 277.75 920.121094 277.75 C 920.726562 277.9375 924.777344 279.203125 925.421875 280.796875 C 925.429688 280.808594 925.421875 280.832031 925.398438 280.832031 C 924.472656 280.789062 905.5 280.167969 901.015625 295.925781 " fill-opacity="1" fill-rule="nonzero"/><g clip-path="url(#8e215afe4f)"><path fill="#00bf63" d="M 924.199219 144.914062 L 892.660156 102.855469 C 857.457031 55.914062 836.871094 29.128906 830.867188 22.480469 C 824.863281 15.832031 819.828125 12.507812 815.734375 12.507812 C 813.335938 12.507812 810.40625 12.902344 806.941406 13.683594 C 803.492188 14.457031 800.492188 14.851562 797.953125 14.851562 C 794.558594 14.851562 790.335938 14.457031 785.246094 13.683594 C 780.167969 12.902344 776.984375 12.507812 775.722656 12.507812 C 768.527344 12.507812 764.925781 15.453125 764.925781 21.316406 C 764.925781 24.613281 766.15625 27.050781 768.640625 28.621094 C 771.121094 30.191406 775.960938 30.976562 783.183594 30.976562 C 788.554688 30.976562 793.015625 33.023438 796.5625 37.121094 C 800.097656 41.214844 801.863281 46.714844 801.863281 53.628906 L 801.863281 279.425781 C 801.863281 286.621094 799.773438 292.15625 795.609375 296.042969 C 791.429688 299.929688 785.875 301.863281 778.933594 301.863281 C 770.449219 301.863281 766.199219 304.652344 766.199219 310.238281 C 766.199219 316.96875 769.804688 320.332031 777 320.332031 C 779.257812 320.332031 784.765625 319.730469 793.519531 318.527344 C 802.285156 317.316406 808.496094 316.71875 812.160156 316.71875 C 814.851562 316.71875 820.699219 317.316406 829.746094 318.527344 C 838.777344 319.730469 845.566406 320.332031 850.082031 320.332031 C 854.738281 320.332031 857.710938 319.621094 858.972656 318.1875 C 860.25 316.742188 860.878906 314.894531 860.878906 312.609375 C 860.878906 305.160156 855.214844 301.429688 843.894531 301.429688 C 839.367188 301.429688 834.582031 299.675781 829.5625 296.140625 C 824.542969 292.621094 822.03125 287.894531 822.03125 281.964844 L 822.03125 86.152344 C 822.03125 80.792969 823.097656 78.113281 825.230469 78.113281 C 826.785156 78.113281 828.484375 79.308594 830.332031 81.71875 L 910.710938 187.859375 C 914.1875 186.191406 918.242188 186.597656 921.296875 188.671875 C 920.75 176.902344 921.085938 161.5625 924.199219 144.914062 Z M 943.988281 205.359375 C 944.015625 205.460938 944.046875 205.574219 944.074219 205.683594 C 944.046875 205.527344 944.003906 205.433594 943.988281 205.359375 Z M 1040.085938 12.945312 C 1036.972656 12.945312 1031.921875 13.574219 1024.9375 14.851562 C 1017.941406 16.125 1012.332031 16.757812 1008.097656 16.757812 C 1004.839844 16.757812 998.320312 15.914062 988.503906 14.203125 C 978.6875 12.507812 972.9375 11.667969 971.238281 11.667969 C 967.988281 11.667969 964.980469 12.605469 962.234375 14.5 C 959.484375 16.394531 958.113281 18.945312 958.113281 22.171875 C 958.113281 24.820312 959.601562 26.996094 962.570312 28.679688 C 965.542969 30.363281 969.429688 31.1875 974.238281 31.1875 C 980.46875 31.1875 985.597656 32.925781 989.625 36.390625 C 993.214844 39.488281 995.210938 43.488281 995.601562 48.425781 C 1002.320312 44.566406 1009.878906 41.734375 1018.28125 40.472656 C 1019.375 38.253906 1021.207031 36.292969 1023.816406 34.597656 C 1027.28125 32.324219 1032.695312 31.1875 1040.042969 31.1875 C 1048.542969 31.1875 1052.789062 28.46875 1052.789062 23.011719 C 1052.789062 16.292969 1048.554688 12.945312 1040.085938 12.945312 " fill-opacity="1" fill-rule="nonzero"/></g><g clip-path="url(#a8a515984a)"><path fill="#00bf63" d="M 314.003906 155.789062 C 300.476562 154.929688 289.320312 166.085938 290.175781 179.617188 C 290.882812 190.773438 299.9375 199.828125 311.09375 200.535156 C 324.621094 201.390625 335.777344 190.234375 334.921875 176.703125 C 334.21875 165.546875 325.164062 156.492188 314.003906 155.789062 Z M 513.371094 316.71875 L 511.433594 330.273438 C 505.144531 330.273438 499.820312 329.789062 493.527344 329.304688 C 458.199219 326.882812 439.324219 317.6875 418.03125 287.683594 C 400.125 263 382.699219 232.511719 367.214844 207.832031 C 362.734375 200.660156 358.972656 196.191406 353.78125 193.457031 C 350.65625 191.808594 349.777344 187.765625 351.996094 185.015625 C 353.046875 183.71875 354.054688 182.398438 355.027344 181.058594 C 359.625 174.722656 365.976562 169.875 373.1875 166.816406 C 377.992188 164.78125 382.238281 162.183594 386.089844 158.949219 C 404.960938 144.914062 412.707031 125.554688 412.707031 99.425781 C 412.707031 47.640625 378.347656 28.765625 341.078125 28.765625 C 327.046875 28.765625 235.039062 28.511719 224.449219 28.203125 L 224.449219 11.828125 L 347.855469 11.828125 C 383.183594 11.828125 406.898438 16.179688 425.289062 28.28125 C 445.132812 40.863281 458.199219 62.644531 458.199219 92.164062 C 458.199219 133.78125 431.582031 159.917969 395.769531 175.40625 C 404.476562 190.40625 425.289062 222.832031 439.808594 244.609375 C 457.714844 270.261719 466.910156 282.359375 478.039062 294.457031 C 491.109375 308.496094 502.238281 313.820312 513.371094 316.71875 " fill-opacity="1" fill-rule="nonzero"/></g><g clip-path="url(#460c3df4f5)"><path fill="#00bf63" d="M 497.101562 288.558594 C 497.101562 300.855469 487.136719 310.824219 474.839844 310.824219 C 462.542969 310.824219 452.578125 300.855469 452.578125 288.558594 C 452.578125 276.265625 462.542969 266.296875 474.839844 266.296875 C 487.136719 266.296875 497.101562 276.265625 497.101562 288.558594 Z M 778.910156 57.566406 C 778.910156 69.863281 768.941406 79.828125 756.648438 79.828125 C 744.351562 79.828125 734.382812 69.863281 734.382812 57.566406 C 734.382812 45.273438 744.351562 35.300781 756.648438 35.300781 C 768.941406 35.300781 778.910156 45.273438 778.910156 57.566406 Z M 732.785156 263.789062 C 725.507812 274.632812 716.3125 284.0625 705.449219 291.820312 C 694.871094 299.375 683.734375 303.207031 672.351562 303.207031 C 665.925781 303.207031 660.269531 301.894531 655.53125 299.308594 C 650.125 296.363281 649.503906 292.871094 649.503906 290.5 C 649.503906 288.746094 650.972656 283.597656 664.628906 273.707031 C 675.445312 265.871094 689.082031 258.539062 705.167969 251.914062 C 719.101562 246.175781 732.578125 242.296875 745.3125 240.359375 C 742.757812 247.335938 738.558594 255.191406 732.785156 263.789062 Z M 510.769531 78.308594 C 518.046875 67.46875 527.242188 58.035156 538.101562 50.28125 C 548.683594 42.726562 559.820312 38.898438 571.207031 38.898438 C 577.628906 38.898438 583.285156 40.207031 588.023438 42.789062 C 593.429688 45.738281 594.054688 49.226562 594.054688 51.597656 C 594.054688 53.351562 592.578125 58.503906 578.921875 68.390625 C 568.109375 76.230469 554.472656 83.5625 538.386719 90.183594 C 524.453125 95.921875 510.976562 99.800781 498.238281 101.742188 C 500.796875 94.765625 504.996094 86.910156 510.769531 78.308594 Z M 769.09375 106.125 C 754.601562 92.640625 736.359375 85.804688 714.863281 85.804688 C 688.855469 85.804688 666.609375 94.609375 648.738281 111.980469 C 631.242188 128.988281 617.960938 147.753906 609.269531 167.757812 C 606.609375 173.875 604.488281 179.046875 602.789062 183.433594 C 599.0625 188.445312 595.171875 193.289062 591.105469 197.949219 C 576.457031 214.734375 557.085938 223.242188 533.523438 223.242188 C 518.089844 223.242188 506.605469 218.613281 498.421875 209.082031 C 490.203125 199.523438 486.039062 185.710938 486.039062 168.027344 C 486.039062 154.984375 487.746094 141.46875 491.121094 127.816406 C 512.039062 124.210938 532.605469 118.429688 552.289062 110.617188 C 572.832031 102.472656 589.832031 92.839844 602.820312 81.992188 C 616.371094 70.671875 623.238281 58.65625 623.238281 46.285156 C 623.238281 35 618.523438 26.230469 609.21875 20.207031 C 600.433594 14.523438 589.59375 11.640625 577.003906 11.640625 C 556.230469 11.640625 535.921875 19.816406 516.640625 35.941406 C 497.628906 51.839844 482.019531 72.585938 470.246094 97.597656 C 458.472656 122.621094 452.5 148.269531 452.5 173.824219 C 452.5 201.515625 459.890625 222.425781 474.460938 235.976562 C 488.949219 249.457031 507.195312 256.296875 528.691406 256.296875 C 554.699219 256.296875 576.945312 247.488281 594.816406 230.121094 C 612.3125 213.113281 625.589844 194.347656 634.285156 174.34375 C 636.941406 168.222656 639.070312 163.054688 640.765625 158.667969 C 644.488281 153.65625 648.382812 148.808594 652.449219 144.152344 C 667.097656 127.367188 686.46875 118.855469 710.03125 118.855469 C 725.464844 118.855469 736.949219 123.488281 745.132812 133.019531 C 753.351562 142.578125 757.519531 156.390625 757.519531 174.074219 C 757.519531 187.117188 755.808594 200.632812 752.429688 214.285156 C 731.515625 217.886719 710.953125 223.671875 691.269531 231.484375 C 670.726562 239.628906 653.722656 249.257812 640.734375 260.105469 C 627.183594 271.429688 620.3125 283.441406 620.3125 295.816406 C 620.3125 307.097656 625.03125 315.871094 634.335938 321.890625 C 643.121094 327.578125 653.960938 330.460938 666.550781 330.460938 C 687.324219 330.460938 707.636719 322.28125 726.914062 306.160156 C 745.925781 290.257812 761.535156 269.511719 773.304688 244.5 C 785.082031 219.476562 791.054688 193.832031 791.054688 168.273438 C 791.054688 140.585938 783.664062 119.675781 769.09375 106.125 " fill-opacity="1" fill-rule="nonzero"/></g><g clip-path="url(#2e94425769)"><path fill="#00bf63" d="M 1373.691406 177.136719 C 1373.957031 173.402344 1374.105469 169.628906 1374.105469 165.828125 C 1374.105469 139.726562 1367.675781 115.101562 1356.339844 93.433594 L 1277.464844 48.875 L 1175.820312 104.503906 C 1175.210938 104.835938 1174.550781 104.992188 1173.902344 104.992188 C 1172.488281 104.992188 1171.121094 104.242188 1170.394531 102.914062 C 1169.335938 100.976562 1170.042969 98.546875 1171.980469 97.492188 L 1200.503906 81.878906 L 1182.667969 64.125 L 1112.84375 104.59375 L 1115.921875 107.390625 L 1110.546875 113.308594 L 1101.449219 105.046875 L 1101.449219 111.3125 L 1115.921875 124.449219 L 1110.546875 130.367188 L 1101.449219 122.109375 L 1101.449219 128.375 L 1115.921875 141.511719 L 1110.546875 147.429688 L 1101.449219 139.167969 L 1101.449219 145.433594 L 1115.921875 158.574219 L 1110.546875 164.492188 L 1101.449219 156.230469 L 1101.449219 182.085938 C 1112.765625 184.964844 1123.71875 189.078125 1134.136719 194.355469 L 1134.136719 169.761719 L 1125.035156 178.023438 L 1119.664062 172.105469 L 1134.136719 158.96875 L 1134.136719 152.703125 L 1125.035156 160.964844 L 1119.664062 155.046875 L 1134.136719 141.90625 L 1134.136719 135.640625 L 1125.035156 143.898438 L 1119.664062 137.984375 L 1135.445312 123.65625 C 1136.96875 122.273438 1139.292969 122.273438 1140.816406 123.65625 L 1156.601562 137.984375 L 1151.226562 143.898438 L 1142.128906 135.640625 L 1142.128906 141.90625 L 1156.601562 155.046875 L 1151.226562 160.964844 L 1142.128906 152.703125 L 1142.128906 158.96875 L 1156.601562 172.105469 L 1151.226562 178.023438 L 1142.128906 169.761719 L 1142.128906 198.691406 C 1149.910156 203.210938 1157.347656 208.410156 1164.355469 214.261719 L 1164.355469 167.832031 L 1217.457031 141.597656 L 1270.554688 167.832031 L 1270.554688 214.261719 C 1275.460938 210.167969 1280.578125 206.40625 1285.875 202.964844 C 1282.328125 201.617188 1279.652344 198.367188 1279.253906 194.339844 C 1278.816406 189.96875 1281.183594 185.976562 1284.878906 184.109375 L 1284.878906 184.105469 C 1288.941406 181.027344 1294.722656 177.316406 1294.722656 177.316406 L 1299.160156 182.382812 L 1303.820312 179.953125 L 1300.066406 173.589844 L 1303.886719 171 L 1299.472656 162.257812 L 1303.15625 160.292969 L 1308.125 168.789062 L 1312.8125 166.625 L 1314.160156 169.015625 C 1315.074219 168.636719 1316.058594 168.378906 1317.09375 168.277344 C 1322.765625 167.710938 1327.824219 171.851562 1328.386719 177.523438 C 1328.621094 179.855469 1328.035156 182.0625 1326.898438 183.917969 C 1328.722656 183.367188 1330.550781 182.839844 1332.390625 182.359375 L 1332.390625 157.816406 L 1323.292969 166.074219 L 1317.917969 160.15625 L 1332.390625 147.019531 L 1332.390625 140.753906 L 1323.292969 149.015625 L 1317.917969 143.097656 L 1332.390625 129.957031 L 1332.390625 123.691406 L 1323.292969 131.949219 L 1317.917969 126.03125 L 1332.390625 112.898438 L 1332.390625 106.628906 L 1323.292969 114.890625 L 1317.917969 108.972656 L 1333.703125 94.644531 C 1335.226562 93.261719 1337.550781 93.261719 1339.070312 94.644531 L 1354.855469 108.972656 L 1349.480469 114.890625 L 1340.382812 106.628906 L 1340.382812 112.898438 L 1354.855469 126.03125 L 1349.480469 131.949219 L 1340.382812 123.691406 L 1340.382812 129.957031 L 1354.855469 143.097656 L 1349.480469 149.015625 L 1340.382812 140.753906 L 1340.382812 147.019531 L 1354.855469 160.15625 L 1349.480469 166.074219 L 1340.382812 157.816406 L 1340.382812 180.484375 C 1351.246094 178.230469 1362.398438 177.09375 1373.691406 177.136719 Z M 1371.710938 185.125 C 1334.429688 185.445312 1298.851562 199.289062 1271.089844 224.367188 C 1243.332031 249.433594 1225.957031 283.421875 1221.855469 320.472656 C 1259.121094 320.171875 1294.703125 306.335938 1322.46875 281.253906 C 1350.246094 256.164062 1367.625 222.167969 1371.710938 185.125 Z M 1217.457031 299.449219 C 1224.640625 269.746094 1240.171875 242.714844 1262.5625 221.378906 L 1262.5625 172.796875 L 1217.457031 150.511719 L 1172.347656 172.796875 L 1172.347656 221.378906 C 1194.738281 242.714844 1210.269531 269.746094 1217.457031 299.449219 Z M 1213.058594 320.472656 C 1208.953125 283.421875 1191.578125 249.433594 1163.824219 224.367188 C 1136.0625 199.289062 1100.480469 185.449219 1063.203125 185.125 C 1067.285156 222.167969 1084.664062 256.164062 1112.441406 281.253906 C 1140.210938 306.332031 1175.792969 320.167969 1213.058594 320.472656 Z M 1061.222656 177.136719 C 1072.140625 177.09375 1082.929688 178.152344 1093.457031 180.265625 L 1093.457031 156.230469 L 1084.359375 164.492188 L 1078.988281 158.574219 L 1093.457031 145.433594 L 1093.457031 139.167969 L 1084.359375 147.429688 L 1078.988281 141.511719 L 1093.457031 128.375 L 1093.457031 122.109375 L 1084.359375 130.367188 L 1078.988281 124.449219 L 1093.457031 111.3125 L 1093.457031 105.046875 L 1084.359375 113.308594 L 1078.988281 107.390625 L 1094.769531 93.0625 C 1096.292969 91.679688 1098.617188 91.679688 1100.140625 93.0625 L 1106.632812 98.957031 L 1181.3125 55.671875 C 1182.871094 54.765625 1184.851562 55.023438 1186.132812 56.300781 L 1207.8125 77.878906 L 1275.574219 40.796875 C 1276.789062 40.132812 1278.257812 40.144531 1279.460938 40.824219 L 1348.207031 79.660156 C 1320.152344 37.230469 1272.019531 9.179688 1217.457031 9.179688 C 1131.082031 9.179688 1060.808594 79.449219 1060.808594 165.828125 C 1060.808594 169.628906 1060.953125 173.398438 1061.222656 177.136719 Z M 1382.09375 165.828125 C 1382.09375 256.609375 1308.238281 330.464844 1217.457031 330.464844 C 1126.675781 330.464844 1052.816406 256.609375 1052.816406 165.828125 C 1052.816406 75.042969 1126.675781 1.1875 1217.457031 1.1875 C 1280.152344 1.1875 1334.773438 36.421875 1362.570312 88.125 C 1362.851562 88.484375 1363.054688 88.890625 1363.203125 89.316406 C 1375.257812 112.191406 1382.09375 138.222656 1382.09375 165.828125 Z M 1219.058594 188.894531 L 1229.40625 188.894531 L 1229.40625 178.546875 L 1219.058594 178.546875 Z M 1205.507812 188.894531 L 1215.851562 188.894531 L 1215.851562 178.546875 L 1205.507812 178.546875 Z M 1219.058594 176.171875 L 1229.40625 176.171875 L 1229.40625 165.828125 L 1219.058594 165.828125 Z M 1205.507812 165.828125 L 1215.851562 165.828125 L 1215.851562 176.171875 L 1205.507812 176.171875 L 1205.507812 165.828125 " fill-opacity="1" fill-rule="nonzero"/></g><g fill="#00bf63" fill-opacity="1"><g transform="translate(11.14822, 395.409208)"><g><path d="M 36.28125 -32.984375 C 35.40625 -34.578125 34.15625 -35.796875 32.53125 -36.640625 C 30.90625 -37.492188 28.992188 -37.921875 26.796875 -37.921875 C 22.992188 -37.921875 19.945312 -36.671875 17.65625 -34.171875 C 15.363281 -31.679688 14.21875 -28.351562 14.21875 -24.1875 C 14.21875 -19.738281 15.421875 -16.265625 17.828125 -13.765625 C 20.234375 -11.273438 23.539062 -10.03125 27.75 -10.03125 C 30.632812 -10.03125 33.070312 -10.757812 35.0625 -12.21875 C 37.0625 -13.6875 38.519531 -15.796875 39.4375 -18.546875 L 24.53125 -18.546875 L 24.53125 -27.203125 L 50.078125 -27.203125 L 50.078125 -16.28125 C 49.210938 -13.351562 47.738281 -10.628906 45.65625 -8.109375 C 43.570312 -5.585938 40.925781 -3.546875 37.71875 -1.984375 C 34.507812 -0.429688 30.890625 0.34375 26.859375 0.34375 C 22.097656 0.34375 17.847656 -0.695312 14.109375 -2.78125 C 10.378906 -4.863281 7.472656 -7.757812 5.390625 -11.46875 C 3.304688 -15.175781 2.265625 -19.414062 2.265625 -24.1875 C 2.265625 -28.945312 3.304688 -33.191406 5.390625 -36.921875 C 7.472656 -40.660156 10.367188 -43.570312 14.078125 -45.65625 C 17.796875 -47.738281 22.035156 -48.78125 26.796875 -48.78125 C 32.566406 -48.78125 37.429688 -47.378906 41.390625 -44.578125 C 45.359375 -41.785156 47.984375 -37.921875 49.265625 -32.984375 Z M 36.28125 -32.984375 "/></g></g></g><g fill="#00bf63" fill-opacity="1"><g transform="translate(74.286024, 395.409208)"><g><path d="M 28.859375 0 L 18.828125 -18.203125 L 16.015625 -18.203125 L 16.015625 0 L 4.265625 0 L 4.265625 -48.234375 L 23.984375 -48.234375 C 27.785156 -48.234375 31.023438 -47.566406 33.703125 -46.234375 C 36.378906 -44.910156 38.378906 -43.09375 39.703125 -40.78125 C 41.035156 -38.46875 41.703125 -35.890625 41.703125 -33.046875 C 41.703125 -29.835938 40.796875 -26.972656 38.984375 -24.453125 C 37.179688 -21.929688 34.515625 -20.144531 30.984375 -19.09375 L 42.109375 0 Z M 16.015625 -26.515625 L 23.296875 -26.515625 C 25.441406 -26.515625 27.050781 -27.039062 28.125 -28.09375 C 29.207031 -29.15625 29.75 -30.644531 29.75 -32.5625 C 29.75 -34.394531 29.207031 -35.835938 28.125 -36.890625 C 27.050781 -37.941406 25.441406 -38.46875 23.296875 -38.46875 L 16.015625 -38.46875 Z M 16.015625 -26.515625 "/></g></g></g><g fill="#00bf63" fill-opacity="1"><g transform="translate(129.866798, 395.409208)"><g><path d="M 16.015625 -38.8125 L 16.015625 -29.0625 L 31.734375 -29.0625 L 31.734375 -20 L 16.015625 -20 L 16.015625 -9.40625 L 33.796875 -9.40625 L 33.796875 0 L 4.265625 0 L 4.265625 -48.234375 L 33.796875 -48.234375 L 33.796875 -38.8125 Z M 16.015625 -38.8125 "/></g></g></g><g fill="#00bf63" fill-opacity="1"><g transform="translate(177.821843, 395.409208)"><g><path d="M 16.015625 -38.8125 L 16.015625 -29.0625 L 31.734375 -29.0625 L 31.734375 -20 L 16.015625 -20 L 16.015625 -9.40625 L 33.796875 -9.40625 L 33.796875 0 L 4.265625 0 L 4.265625 -48.234375 L 33.796875 -48.234375 L 33.796875 -38.8125 Z M 16.015625 -38.8125 "/></g></g></g><g fill="#00bf63" fill-opacity="1"><g transform="translate(225.776896, 395.409208)"><g><path d="M 47.40625 0 L 35.65625 0 L 16.015625 -29.75 L 16.015625 0 L 4.265625 0 L 4.265625 -48.234375 L 16.015625 -48.234375 L 35.65625 -18.34375 L 35.65625 -48.234375 L 47.40625 -48.234375 Z M 47.40625 0 "/></g></g></g><g fill="#00bf63" fill-opacity="1"><g transform="translate(288.227705, 395.409208)"><g><path d="M 41.015625 -32.703125 C 41.015625 -29.910156 40.375 -27.359375 39.09375 -25.046875 C 37.8125 -22.734375 35.84375 -20.863281 33.1875 -19.4375 C 30.53125 -18.019531 27.234375 -17.3125 23.296875 -17.3125 L 16.015625 -17.3125 L 16.015625 0 L 4.265625 0 L 4.265625 -48.234375 L 23.296875 -48.234375 C 27.140625 -48.234375 30.390625 -47.566406 33.046875 -46.234375 C 35.703125 -44.910156 37.691406 -43.078125 39.015625 -40.734375 C 40.347656 -38.398438 41.015625 -35.722656 41.015625 -32.703125 Z M 22.390625 -26.65625 C 24.640625 -26.65625 26.3125 -27.179688 27.40625 -28.234375 C 28.507812 -29.285156 29.0625 -30.773438 29.0625 -32.703125 C 29.0625 -34.628906 28.507812 -36.117188 27.40625 -37.171875 C 26.3125 -38.222656 24.640625 -38.75 22.390625 -38.75 L 16.015625 -38.75 L 16.015625 -26.65625 Z M 22.390625 -26.65625 "/></g></g></g><g fill="#00bf63" fill-opacity="1"><g transform="translate(341.884863, 395.409208)"><g><path d="M 34.28125 -8.515625 L 16.28125 -8.515625 L 13.390625 0 L 1.09375 0 L 18.546875 -48.234375 L 32.15625 -48.234375 L 49.609375 0 L 37.171875 0 Z M 31.265625 -17.59375 L 25.28125 -35.25 L 19.375 -17.59375 Z M 31.265625 -17.59375 "/></g></g></g><g fill="#00bf63" fill-opacity="1"><g transform="translate(403.305151, 395.409208)"><g><path d="M 28.859375 0 L 18.828125 -18.203125 L 16.015625 -18.203125 L 16.015625 0 L 4.265625 0 L 4.265625 -48.234375 L 23.984375 -48.234375 C 27.785156 -48.234375 31.023438 -47.566406 33.703125 -46.234375 C 36.378906 -44.910156 38.378906 -43.09375 39.703125 -40.78125 C 41.035156 -38.46875 41.703125 -35.890625 41.703125 -33.046875 C 41.703125 -29.835938 40.796875 -26.972656 38.984375 -24.453125 C 37.179688 -21.929688 34.515625 -20.144531 30.984375 -19.09375 L 42.109375 0 Z M 16.015625 -26.515625 L 23.296875 -26.515625 C 25.441406 -26.515625 27.050781 -27.039062 28.125 -28.09375 C 29.207031 -29.15625 29.75 -30.644531 29.75 -32.5625 C 29.75 -34.394531 29.207031 -35.835938 28.125 -36.890625 C 27.050781 -37.941406 25.441406 -38.46875 23.296875 -38.46875 L 16.015625 -38.46875 Z M 16.015625 -26.515625 "/></g></g></g><g fill="#00bf63" fill-opacity="1"><g transform="translate(458.885929, 395.409208)"><g><path d="M 32.21875 0 L 16.015625 -21.296875 L 16.015625 0 L 4.265625 0 L 4.265625 -48.234375 L 16.015625 -48.234375 L 16.015625 -27.0625 L 32.078125 -48.234375 L 45.890625 -48.234375 L 27.203125 -24.59375 L 46.578125 0 Z M 32.21875 0 "/></g></g></g><g fill="#00bf63" fill-opacity="1"><g transform="translate(517.558223, 395.409208)"><g/></g></g><g fill="#00bf63" fill-opacity="1"><g transform="translate(542.91085, 395.409208)"><g><path d="M 58.875 -48.234375 L 58.875 0 L 47.125 0 L 47.125 -28.921875 L 36.34375 0 L 26.859375 0 L 16.015625 -29 L 16.015625 0 L 4.265625 0 L 4.265625 -48.234375 L 18.140625 -48.234375 L 31.671875 -14.84375 L 45.0625 -48.234375 Z M 58.875 -48.234375 "/></g></g></g><g fill="#00bf63" fill-opacity="1"><g transform="translate(616.765916, 395.409208)"><g><path d="M 16.015625 -38.8125 L 16.015625 -29.0625 L 31.734375 -29.0625 L 31.734375 -20 L 16.015625 -20 L 16.015625 -9.40625 L 33.796875 -9.40625 L 33.796875 0 L 4.265625 0 L 4.265625 -48.234375 L 33.796875 -48.234375 L 33.796875 -38.8125 Z M 16.015625 -38.8125 "/></g></g></g><g fill="#00bf63" fill-opacity="1"><g transform="translate(664.720953, 395.409208)"><g><path d="M 58.875 -48.234375 L 58.875 0 L 47.125 0 L 47.125 -28.921875 L 36.34375 0 L 26.859375 0 L 16.015625 -29 L 16.015625 0 L 4.265625 0 L 4.265625 -48.234375 L 18.140625 -48.234375 L 31.671875 -14.84375 L 45.0625 -48.234375 Z M 58.875 -48.234375 "/></g></g></g><g fill="#00bf63" fill-opacity="1"><g transform="translate(738.576019, 395.409208)"><g><path d="M 27.0625 0.484375 C 22.53125 0.484375 18.375 -0.566406 14.59375 -2.671875 C 10.820312 -4.785156 7.820312 -7.726562 5.59375 -11.5 C 3.375 -15.28125 2.265625 -19.53125 2.265625 -24.25 C 2.265625 -28.96875 3.375 -33.203125 5.59375 -36.953125 C 7.820312 -40.710938 10.820312 -43.644531 14.59375 -45.75 C 18.375 -47.863281 22.53125 -48.921875 27.0625 -48.921875 C 31.601562 -48.921875 35.757812 -47.863281 39.53125 -45.75 C 43.3125 -43.644531 46.289062 -40.710938 48.46875 -36.953125 C 50.644531 -33.203125 51.734375 -28.96875 51.734375 -24.25 C 51.734375 -19.53125 50.632812 -15.28125 48.4375 -11.5 C 46.238281 -7.726562 43.257812 -4.785156 39.5 -2.671875 C 35.75 -0.566406 31.601562 0.484375 27.0625 0.484375 Z M 27.0625 -10.234375 C 30.914062 -10.234375 34 -11.515625 36.3125 -14.078125 C 38.625 -16.648438 39.78125 -20.039062 39.78125 -24.25 C 39.78125 -28.507812 38.625 -31.910156 36.3125 -34.453125 C 34 -36.992188 30.914062 -38.265625 27.0625 -38.265625 C 23.175781 -38.265625 20.078125 -37.003906 17.765625 -34.484375 C 15.453125 -31.960938 14.296875 -28.550781 14.296875 -24.25 C 14.296875 -19.988281 15.453125 -16.585938 17.765625 -14.046875 C 20.078125 -11.503906 23.175781 -10.234375 27.0625 -10.234375 Z M 27.0625 -10.234375 "/></g></g></g><g fill="#00bf63" fill-opacity="1"><g transform="translate(803.362636, 395.409208)"><g><path d="M 28.859375 0 L 18.828125 -18.203125 L 16.015625 -18.203125 L 16.015625 0 L 4.265625 0 L 4.265625 -48.234375 L 23.984375 -48.234375 C 27.785156 -48.234375 31.023438 -47.566406 33.703125 -46.234375 C 36.378906 -44.910156 38.378906 -43.09375 39.703125 -40.78125 C 41.035156 -38.46875 41.703125 -35.890625 41.703125 -33.046875 C 41.703125 -29.835938 40.796875 -26.972656 38.984375 -24.453125 C 37.179688 -21.929688 34.515625 -20.144531 30.984375 -19.09375 L 42.109375 0 Z M 16.015625 -26.515625 L 23.296875 -26.515625 C 25.441406 -26.515625 27.050781 -27.039062 28.125 -28.09375 C 29.207031 -29.15625 29.75 -30.644531 29.75 -32.5625 C 29.75 -34.394531 29.207031 -35.835938 28.125 -36.890625 C 27.050781 -37.941406 25.441406 -38.46875 23.296875 -38.46875 L 16.015625 -38.46875 Z M 16.015625 -26.515625 "/></g></g></g><g fill="#00bf63" fill-opacity="1"><g transform="translate(858.943383, 395.409208)"><g><path d="M 16.015625 -48.234375 L 16.015625 0 L 4.265625 0 L 4.265625 -48.234375 Z M 16.015625 -48.234375 "/></g></g></g><g fill="#00bf63" fill-opacity="1"><g transform="translate(889.99813, 395.409208)"><g><path d="M 34.28125 -8.515625 L 16.28125 -8.515625 L 13.390625 0 L 1.09375 0 L 18.546875 -48.234375 L 32.15625 -48.234375 L 49.609375 0 L 37.171875 0 Z M 31.265625 -17.59375 L 25.28125 -35.25 L 19.375 -17.59375 Z M 31.265625 -17.59375 "/></g></g></g><g fill="#00bf63" fill-opacity="1"><g transform="translate(951.418419, 395.409208)"><g><path d="M 16.015625 -9.0625 L 31.390625 -9.0625 L 31.390625 0 L 4.265625 0 L 4.265625 -48.234375 L 16.015625 -48.234375 Z M 16.015625 -9.0625 "/></g></g></g><g fill="#00bf63" fill-opacity="1"><g transform="translate(994.976653, 395.409208)"><g/></g></g><g fill="#00bf63" fill-opacity="1"><g transform="translate(1020.32928, 395.409208)"><g><path d="M 36.28125 -32.984375 C 35.40625 -34.578125 34.15625 -35.796875 32.53125 -36.640625 C 30.90625 -37.492188 28.992188 -37.921875 26.796875 -37.921875 C 22.992188 -37.921875 19.945312 -36.671875 17.65625 -34.171875 C 15.363281 -31.679688 14.21875 -28.351562 14.21875 -24.1875 C 14.21875 -19.738281 15.421875 -16.265625 17.828125 -13.765625 C 20.234375 -11.273438 23.539062 -10.03125 27.75 -10.03125 C 30.632812 -10.03125 33.070312 -10.757812 35.0625 -12.21875 C 37.0625 -13.6875 38.519531 -15.796875 39.4375 -18.546875 L 24.53125 -18.546875 L 24.53125 -27.203125 L 50.078125 -27.203125 L 50.078125 -16.28125 C 49.210938 -13.351562 47.738281 -10.628906 45.65625 -8.109375 C 43.570312 -5.585938 40.925781 -3.546875 37.71875 -1.984375 C 34.507812 -0.429688 30.890625 0.34375 26.859375 0.34375 C 22.097656 0.34375 17.847656 -0.695312 14.109375 -2.78125 C 10.378906 -4.863281 7.472656 -7.757812 5.390625 -11.46875 C 3.304688 -15.175781 2.265625 -19.414062 2.265625 -24.1875 C 2.265625 -28.945312 3.304688 -33.191406 5.390625 -36.921875 C 7.472656 -40.660156 10.367188 -43.570312 14.078125 -45.65625 C 17.796875 -47.738281 22.035156 -48.78125 26.796875 -48.78125 C 32.566406 -48.78125 37.429688 -47.378906 41.390625 -44.578125 C 45.359375 -41.785156 47.984375 -37.921875 49.265625 -32.984375 Z M 36.28125 -32.984375 "/></g></g></g><g fill="#00bf63" fill-opacity="1"><g transform="translate(1083.467088, 395.409208)"><g><path d="M 34.28125 -8.515625 L 16.28125 -8.515625 L 13.390625 0 L 1.09375 0 L 18.546875 -48.234375 L 32.15625 -48.234375 L 49.609375 0 L 37.171875 0 Z M 31.265625 -17.59375 L 25.28125 -35.25 L 19.375 -17.59375 Z M 31.265625 -17.59375 "/></g></g></g><g fill="#00bf63" fill-opacity="1"><g transform="translate(1144.887376, 395.409208)"><g><path d="M 28.859375 0 L 18.828125 -18.203125 L 16.015625 -18.203125 L 16.015625 0 L 4.265625 0 L 4.265625 -48.234375 L 23.984375 -48.234375 C 27.785156 -48.234375 31.023438 -47.566406 33.703125 -46.234375 C 36.378906 -44.910156 38.378906 -43.09375 39.703125 -40.78125 C 41.035156 -38.46875 41.703125 -35.890625 41.703125 -33.046875 C 41.703125 -29.835938 40.796875 -26.972656 38.984375 -24.453125 C 37.179688 -21.929688 34.515625 -20.144531 30.984375 -19.09375 L 42.109375 0 Z M 16.015625 -26.515625 L 23.296875 -26.515625 C 25.441406 -26.515625 27.050781 -27.039062 28.125 -28.09375 C 29.207031 -29.15625 29.75 -30.644531 29.75 -32.5625 C 29.75 -34.394531 29.207031 -35.835938 28.125 -36.890625 C 27.050781 -37.941406 25.441406 -38.46875 23.296875 -38.46875 L 16.015625 -38.46875 Z M 16.015625 -26.515625 "/></g></g></g><g fill="#00bf63" fill-opacity="1"><g transform="translate(1200.468185, 395.409208)"><g><path d="M 22.328125 -48.234375 C 27.410156 -48.234375 31.851562 -47.222656 35.65625 -45.203125 C 39.457031 -43.191406 42.398438 -40.363281 44.484375 -36.71875 C 46.566406 -33.082031 47.609375 -28.878906 47.609375 -24.109375 C 47.609375 -19.390625 46.566406 -15.195312 44.484375 -11.53125 C 42.398438 -7.875 39.445312 -5.035156 35.625 -3.015625 C 31.800781 -1.003906 27.367188 0 22.328125 0 L 4.265625 0 L 4.265625 -48.234375 Z M 21.578125 -10.171875 C 26.015625 -10.171875 29.46875 -11.382812 31.9375 -13.8125 C 34.414062 -16.238281 35.65625 -19.671875 35.65625 -24.109375 C 35.65625 -28.554688 34.414062 -32.015625 31.9375 -34.484375 C 29.46875 -36.960938 26.015625 -38.203125 21.578125 -38.203125 L 16.015625 -38.203125 L 16.015625 -10.171875 Z M 21.578125 -10.171875 "/></g></g></g><g fill="#00bf63" fill-opacity="1"><g transform="translate(1261.201491, 395.409208)"><g><path d="M 16.015625 -38.8125 L 16.015625 -29.0625 L 31.734375 -29.0625 L 31.734375 -20 L 16.015625 -20 L 16.015625 -9.40625 L 33.796875 -9.40625 L 33.796875 0 L 4.265625 0 L 4.265625 -48.234375 L 33.796875 -48.234375 L 33.796875 -38.8125 Z M 16.015625 -38.8125 "/></g></g></g><g fill="#00bf63" fill-opacity="1"><g transform="translate(1309.15659, 395.409208)"><g><path d="M 47.40625 0 L 35.65625 0 L 16.015625 -29.75 L 16.015625 0 L 4.265625 0 L 4.265625 -48.234375 L 16.015625 -48.234375 L 35.65625 -18.34375 L 35.65625 -48.234375 L 47.40625 -48.234375 Z M 47.40625 0 "/></g></g></g></g></g></g></svg>