<svg xmlns="http://www.w3.org/2000/svg" xmlns:xlink="http://www.w3.org/1999/xlink" width="453" zoomAndPan="magnify" viewBox="0 0 339.75 110.249996" height="147" preserveAspectRatio="xMidYMid meet" version="1.0"><defs><clipPath id="a19890e9ff"><path d="M 39.472656 54.675781 L 77.285156 54.675781 L 77.285156 82.996094 L 39.472656 82.996094 Z M 39.472656 54.675781 " clip-rule="nonzero"/></clipPath><clipPath id="0b604f2117"><path d="M 13.097656 9.78125 L 73.296875 9.78125 L 73.296875 41.019531 L 13.097656 41.019531 Z M 13.097656 9.78125 " clip-rule="nonzero"/></clipPath><clipPath id="e953fa811b"><path d="M 219.757812 18.363281 L 248.304688 18.363281 L 248.304688 82.996094 L 219.757812 82.996094 Z M 219.757812 18.363281 " clip-rule="nonzero"/></clipPath><clipPath id="c58d8a5226"><path d="M 185.410156 9.78125 L 251.644531 9.78125 L 251.644531 80.742188 L 185.410156 80.742188 Z M 185.410156 9.78125 " clip-rule="nonzero"/></clipPath><clipPath id="74216597b0"><path d="M 61.222656 9.78125 L 127.6875 9.78125 L 127.6875 82.996094 L 61.222656 82.996094 Z M 61.222656 9.78125 " clip-rule="nonzero"/></clipPath><clipPath id="d6ef3c05ab"><path d="M 113.605469 9.78125 L 191.457031 9.78125 L 191.457031 82.996094 L 113.605469 82.996094 Z M 113.605469 9.78125 " clip-rule="nonzero"/></clipPath><clipPath id="84cc672b60"><path d="M 251.554688 7.378906 L 327.316406 7.378906 L 327.316406 83.152344 L 251.554688 83.152344 Z M 251.554688 7.378906 " clip-rule="nonzero"/></clipPath></defs><path fill="#fefefe" d="M 38.234375 80.210938 C 37.707031 78.789062 37.121094 77.378906 36.25 76.125 C 35.394531 74.847656 34.359375 73.699219 33.230469 72.699219 C 32.828125 72.347656 32.414062 72.015625 32 71.691406 C 31.992188 71.6875 31.992188 71.683594 31.992188 71.679688 C 33.242188 67.128906 32.5 60.203125 32.40625 59.378906 C 32.402344 59.363281 32.382812 59.363281 32.378906 59.378906 C 31.816406 62.113281 30.101562 62.332031 29.9375 62.34375 C 29.929688 62.34375 29.925781 62.339844 29.925781 62.332031 C 30.058594 54.859375 23.351562 48.535156 23.351562 48.535156 C 19.636719 44.800781 18.21875 40.023438 19.082031 34.058594 C 19.082031 34.050781 19.070312 34.042969 19.0625 34.046875 C 11.351562 37.179688 12.253906 46.847656 12.300781 47.320312 C 12.300781 47.332031 12.292969 47.335938 12.285156 47.332031 C 11.46875 47.089844 10.710938 45.085938 10.601562 44.777344 C 10.59375 44.765625 10.578125 44.769531 10.574219 44.78125 C 7.339844 56.46875 15.023438 67.167969 15.347656 67.523438 C 15.355469 67.53125 15.351562 67.535156 15.34375 67.539062 C 13.992188 68.511719 11.898438 67.40625 11.441406 67.144531 C 11.429688 67.136719 11.414062 67.15625 11.429688 67.171875 C 22.433594 78.457031 28.9375 73.820312 29.832031 73.292969 C 29.839844 73.289062 29.835938 73.28125 29.828125 73.273438 C 17.59375 66.601562 17.167969 53.273438 17.160156 51.671875 C 17.160156 51.65625 17.183594 51.652344 17.183594 51.667969 C 17.460938 53.265625 18.433594 55.71875 19.175781 57.441406 C 19.605469 58.539062 20.09375 59.613281 20.617188 60.667969 C 21.28125 61.984375 22.011719 63.265625 22.804688 64.515625 C 23.613281 65.773438 24.59375 66.914062 25.660156 67.960938 C 27.808594 70.042969 30.3125 71.65625 32.363281 73.636719 C 33.382812 74.632812 34.269531 75.726562 34.992188 76.921875 C 35.734375 78.105469 36.203125 79.433594 36.625 80.765625 L 36.644531 80.820312 C 36.644531 80.832031 36.652344 80.84375 36.65625 80.855469 C 36.828125 81.320312 37.359375 81.546875 37.816406 81.328125 C 38.226562 81.136719 38.390625 80.632812 38.234375 80.210938 " fill-opacity="1" fill-rule="nonzero"/><g clip-path="url(#a19890e9ff)"><path fill="#fefefe" d="M 74.765625 66.269531 L 74.765625 62.246094 C 74.765625 60.804688 75.164062 59.683594 75.964844 58.882812 C 76.769531 58.082031 77.167969 57.320312 77.167969 56.601562 C 77.167969 55.882812 76.945312 55.414062 76.503906 55.199219 C 76.0625 54.988281 75.273438 54.882812 74.132812 54.882812 L 55.722656 54.882812 C 53.828125 54.882812 52.882812 55.59375 52.882812 57.015625 C 52.882812 57.804688 53.226562 58.453125 53.910156 58.945312 C 54.597656 59.445312 55.5625 59.691406 56.808594 59.691406 C 57.265625 59.691406 58.039062 59.660156 59.136719 59.59375 C 60.234375 59.527344 61.042969 59.496094 61.566406 59.496094 C 64.574219 59.496094 66.078125 60.292969 66.078125 61.886719 L 66.078125 68.476562 C 66.078125 71.632812 64.308594 74.035156 60.765625 75.675781 C 57.230469 77.324219 53.390625 78.140625 49.261719 78.140625 C 45.894531 78.140625 42.789062 77.632812 39.941406 76.621094 C 39.683594 76.527344 39.441406 76.796875 39.558594 77.046875 C 39.925781 77.824219 40.230469 78.609375 40.511719 79.367188 C 40.65625 79.746094 40.722656 80.144531 40.722656 80.53125 C 40.722656 80.75 40.703125 80.964844 40.660156 81.175781 C 40.550781 81.746094 40.9375 82.292969 41.507812 82.398438 C 43.914062 82.832031 46.414062 83.050781 49.003906 83.050781 C 53.027344 83.050781 57.214844 82.320312 61.566406 80.863281 C 65.914062 79.410156 69.519531 77.652344 72.382812 75.589844 C 75.242188 73.53125 76.675781 71.828125 76.675781 70.488281 C 76.675781 69.996094 76.359375 69.441406 75.71875 68.820312 C 75.082031 68.195312 74.765625 67.347656 74.765625 66.269531 " fill-opacity="1" fill-rule="nonzero"/></g><g clip-path="url(#0b604f2117)"><path fill="#fefefe" d="M 72.996094 26.839844 C 72.832031 26.035156 72.75 25.441406 72.75 25.046875 L 72.75 21.121094 C 72.75 18.242188 70.003906 15.632812 64.507812 13.296875 C 59.015625 10.957031 53.042969 9.785156 46.601562 9.785156 C 39.957031 9.785156 33.972656 11.363281 28.640625 14.523438 C 23.3125 17.679688 19.148438 22.074219 16.15625 27.695312 C 15.027344 29.820312 14.109375 32.011719 13.40625 34.265625 C 13.308594 34.59375 13.710938 34.828125 13.949219 34.585938 C 15.0625 33.453125 16.441406 32.488281 18.148438 31.792969 C 18.953125 31.464844 19.890625 31.597656 20.574219 32.136719 C 21.261719 32.671875 21.613281 33.550781 21.484375 34.414062 C 21.152344 36.730469 21.203125 38.824219 21.644531 40.714844 C 21.746094 41.132812 22.351562 41.085938 22.394531 40.660156 C 23.078125 33.644531 25.339844 27.816406 29.164062 23.175781 C 33.832031 17.519531 40.042969 14.695312 47.804688 14.695312 C 53.925781 14.695312 58.707031 16.148438 62.144531 19.0625 C 64.109375 20.730469 65.992188 23.425781 67.796875 27.160156 C 68.746094 29.152344 69.464844 30.371094 69.953125 30.816406 C 70.445312 31.257812 70.96875 31.476562 71.527344 31.476562 C 72.046875 31.476562 72.464844 31.238281 72.777344 30.765625 C 73.085938 30.289062 73.242188 29.726562 73.242188 29.070312 C 73.242188 28.382812 73.160156 27.640625 72.996094 26.839844 " fill-opacity="1" fill-rule="nonzero"/></g><path fill="#fefefe" d="M 40.105469 53.339844 C 40.101562 53.335938 40.097656 53.339844 40.097656 53.347656 C 40.914062 56.382812 40.472656 58.949219 38.78125 61.117188 C 38.78125 61.117188 35.691406 64.808594 36.222656 68.675781 C 36.222656 68.679688 36.222656 68.683594 36.214844 68.683594 C 36.132812 68.6875 35.226562 68.679688 34.769531 67.292969 C 34.761719 67.289062 34.753906 67.289062 34.753906 67.296875 C 34.753906 67.644531 34.78125 70.003906 35.257812 72.105469 L 35.257812 72.109375 C 35.359375 72.550781 35.480469 72.980469 35.621094 73.378906 C 35.625 73.386719 35.628906 73.390625 35.632812 73.398438 C 35.761719 73.699219 35.917969 73.972656 36.066406 74.210938 C 36.929688 73.25 37.933594 72.371094 38.78125 71.328125 C 39.269531 70.722656 39.707031 70.070312 40.046875 69.367188 C 40.382812 68.671875 40.683594 67.960938 40.945312 67.238281 C 41.152344 66.660156 41.335938 66.070312 41.496094 65.472656 C 41.773438 64.535156 42.125 63.203125 42.167969 62.359375 C 42.167969 62.351562 42.179688 62.351562 42.183594 62.359375 C 42.277344 63.191406 42.882812 70.128906 36.949219 74.34375 C 36.945312 74.34375 36.945312 74.351562 36.949219 74.351562 C 37.445312 74.570312 41.101562 76.574219 46.113281 70.039062 C 46.117188 70.035156 46.109375 70.023438 46.101562 70.027344 C 45.882812 70.195312 44.867188 70.894531 44.101562 70.476562 C 44.101562 70.472656 44.097656 70.46875 44.101562 70.46875 C 44.25 70.265625 47.570312 64.242188 45.171875 58.382812 C 45.167969 58.375 45.15625 58.375 45.15625 58.382812 C 45.117188 58.542969 44.847656 59.632812 44.441406 59.808594 C 44.4375 59.8125 44.433594 59.808594 44.433594 59.804688 C 44.429688 59.554688 44.300781 54.484375 40.105469 53.339844 " fill-opacity="1" fill-rule="nonzero"/><g clip-path="url(#e953fa811b)"><path fill="#fefefe" d="M 243.566406 81.972656 C 243.734375 80.0625 243.828125 78.128906 243.515625 76.21875 C 243.226562 74.289062 242.664062 72.410156 241.914062 70.652344 C 241.640625 70.03125 241.347656 69.425781 241.046875 68.832031 C 241.046875 68.824219 241.046875 68.820312 241.050781 68.8125 C 244.949219 64.277344 247.859375 55.941406 248.199219 54.945312 C 248.207031 54.925781 248.183594 54.917969 248.167969 54.933594 C 246.039062 57.761719 243.957031 57.074219 243.761719 57.003906 C 243.753906 57 243.75 56.992188 243.753906 56.980469 C 247.960938 48.492188 243.714844 37.605469 243.714844 37.605469 C 241.488281 31.308594 242.457031 25.070312 246.679688 18.707031 C 246.6875 18.695312 246.679688 18.679688 246.667969 18.679688 C 236.132812 18.078125 231.917969 29.648438 231.714844 30.214844 C 231.710938 30.226562 231.699219 30.230469 231.691406 30.21875 C 230.890625 29.5 231.109375 26.792969 231.148438 26.382812 C 231.148438 26.363281 231.128906 26.359375 231.117188 26.371094 C 221.066406 38.003906 224.058594 54.429688 224.238281 55.015625 C 224.242188 55.023438 224.234375 55.027344 224.226562 55.03125 C 222.148438 55.410156 220.347656 53.007812 219.96875 52.460938 C 219.957031 52.441406 219.933594 52.460938 219.9375 52.476562 C 226.421875 71.386719 236.386719 69.609375 237.695312 69.488281 C 237.710938 69.488281 237.710938 69.476562 237.703125 69.464844 C 227.308594 55.175781 234.058594 39.675781 234.917969 37.839844 C 234.925781 37.820312 234.953125 37.828125 234.949219 37.847656 C 234.398438 39.828125 234.183594 43.167969 234.09375 45.539062 C 233.996094 47.03125 233.96875 48.527344 233.996094 50.019531 C 234.042969 51.890625 234.183594 53.753906 234.410156 55.617188 C 234.65625 57.496094 235.160156 59.339844 235.8125 61.113281 C 237.144531 64.667969 239.136719 67.875 240.410156 71.257812 C 241.039062 72.949219 241.460938 74.6875 241.640625 76.445312 C 241.847656 78.203125 241.660156 79.980469 241.425781 81.734375 L 241.414062 81.8125 C 241.410156 81.824219 241.410156 81.839844 241.410156 81.855469 C 241.351562 82.480469 241.84375 83.027344 242.484375 83.03125 C 243.058594 83.03125 243.515625 82.542969 243.566406 81.972656 " fill-opacity="1" fill-rule="nonzero"/></g><path fill="#fefefe" d="M 216.675781 75.109375 C 216.671875 75.113281 216.679688 75.117188 216.683594 75.117188 C 219.300781 74.554688 221.503906 75.070312 223.34375 76.667969 C 223.34375 76.667969 226.488281 79.5625 229.816406 79.292969 C 229.820312 79.292969 229.824219 79.296875 229.824219 79.300781 C 229.824219 79.375 229.808594 80.167969 228.617188 80.5 C 228.609375 80.503906 228.609375 80.511719 228.617188 80.511719 C 228.914062 80.53125 230.945312 80.625 232.753906 80.316406 L 232.757812 80.3125 C 233.140625 80.25 233.511719 80.164062 233.851562 80.058594 C 233.859375 80.054688 233.867188 80.054688 233.871094 80.050781 C 234.128906 79.949219 234.367188 79.828125 234.574219 79.710938 C 233.757812 78.90625 233.011719 77.980469 232.125 77.183594 C 231.609375 76.722656 231.054688 76.308594 230.453125 75.972656 C 229.855469 75.644531 229.25 75.34375 228.632812 75.074219 C 228.136719 74.867188 227.632812 74.675781 227.121094 74.503906 C 226.320312 74.214844 225.175781 73.839844 224.453125 73.757812 C 224.445312 73.757812 224.445312 73.746094 224.449219 73.746094 C 225.167969 73.703125 231.136719 73.527344 234.695312 78.945312 C 234.699219 78.949219 234.703125 78.949219 234.703125 78.945312 C 234.898438 78.519531 236.65625 75.414062 231.09375 70.6875 C 231.089844 70.679688 231.082031 70.6875 231.085938 70.695312 C 231.226562 70.898438 231.816406 71.824219 231.445312 72.472656 C 231.445312 72.472656 231.445312 72.476562 231.441406 72.472656 C 231.269531 72.332031 226.125 69.113281 221.0625 70.917969 C 221.058594 70.925781 221.058594 70.933594 221.0625 70.933594 C 221.203125 70.976562 222.132812 71.265625 222.28125 71.632812 C 222.285156 71.636719 222.28125 71.640625 222.277344 71.640625 C 222.0625 71.632812 217.707031 71.488281 216.675781 75.109375 " fill-opacity="1" fill-rule="nonzero"/><g clip-path="url(#c58d8a5226)"><path fill="#fefefe" d="M 222.003906 40.410156 L 214.753906 30.742188 C 206.667969 19.957031 201.9375 13.800781 200.558594 12.273438 C 199.179688 10.746094 198.023438 9.984375 197.082031 9.984375 C 196.53125 9.984375 195.855469 10.074219 195.058594 10.253906 C 194.269531 10.429688 193.578125 10.519531 192.996094 10.519531 C 192.214844 10.519531 191.246094 10.429688 190.074219 10.253906 C 188.910156 10.074219 188.175781 9.984375 187.886719 9.984375 C 186.234375 9.984375 185.40625 10.660156 185.40625 12.007812 C 185.40625 12.765625 185.691406 13.324219 186.261719 13.683594 C 186.832031 14.046875 187.941406 14.226562 189.601562 14.226562 C 190.835938 14.226562 191.859375 14.695312 192.675781 15.636719 C 193.488281 16.578125 193.894531 17.84375 193.894531 19.429688 L 193.894531 71.320312 C 193.894531 72.972656 193.414062 74.242188 192.457031 75.136719 C 191.496094 76.03125 190.21875 76.472656 188.625 76.472656 C 186.675781 76.472656 185.699219 77.117188 185.699219 78.398438 C 185.699219 79.945312 186.527344 80.71875 188.179688 80.71875 C 188.699219 80.71875 189.964844 80.582031 191.976562 80.304688 C 193.988281 80.023438 195.417969 79.886719 196.257812 79.886719 C 196.878906 79.886719 198.222656 80.023438 200.300781 80.304688 C 202.375 80.582031 203.933594 80.71875 204.972656 80.71875 C 206.042969 80.71875 206.726562 80.554688 207.015625 80.226562 C 207.308594 79.894531 207.453125 79.46875 207.453125 78.945312 C 207.453125 77.230469 206.152344 76.375 203.550781 76.375 C 202.511719 76.375 201.410156 75.972656 200.257812 75.160156 C 199.105469 74.351562 198.527344 73.265625 198.527344 71.902344 L 198.527344 26.90625 C 198.527344 25.675781 198.773438 25.058594 199.261719 25.058594 C 199.621094 25.058594 200.007812 25.332031 200.433594 25.886719 L 218.902344 50.277344 C 219.703125 49.894531 220.632812 49.988281 221.335938 50.464844 C 221.210938 47.757812 221.289062 44.234375 222.003906 40.410156 Z M 226.550781 54.296875 C 226.554688 54.320312 226.5625 54.347656 226.570312 54.375 C 226.5625 54.335938 226.550781 54.316406 226.550781 54.296875 Z M 248.628906 10.082031 C 247.914062 10.082031 246.753906 10.226562 245.148438 10.519531 C 243.539062 10.8125 242.25 10.957031 241.277344 10.957031 C 240.53125 10.957031 239.03125 10.765625 236.777344 10.371094 C 234.519531 9.984375 233.199219 9.789062 232.808594 9.789062 C 232.0625 9.789062 231.371094 10.003906 230.742188 10.441406 C 230.109375 10.875 229.792969 11.460938 229.792969 12.203125 C 229.792969 12.8125 230.136719 13.3125 230.816406 13.699219 C 231.5 14.085938 232.394531 14.277344 233.5 14.277344 C 234.929688 14.277344 236.109375 14.675781 237.035156 15.472656 C 237.859375 16.183594 238.316406 17.101562 238.40625 18.234375 C 239.953125 17.351562 241.6875 16.699219 243.617188 16.40625 C 243.867188 15.898438 244.289062 15.449219 244.890625 15.058594 C 245.6875 14.535156 246.929688 14.277344 248.617188 14.277344 C 250.570312 14.277344 251.546875 13.648438 251.546875 12.394531 C 251.546875 10.851562 250.574219 10.082031 248.628906 10.082031 " fill-opacity="1" fill-rule="nonzero"/></g><g clip-path="url(#74216597b0)"><path fill="#fefefe" d="M 81.800781 42.90625 C 78.691406 42.710938 76.128906 45.273438 76.324219 48.382812 C 76.488281 50.945312 78.570312 53.027344 81.132812 53.191406 C 84.242188 53.386719 86.804688 50.824219 86.605469 47.710938 C 86.445312 45.148438 84.363281 43.070312 81.800781 42.90625 Z M 127.609375 79.886719 L 127.164062 83.003906 C 125.71875 83.003906 124.496094 82.890625 123.050781 82.78125 C 114.933594 82.222656 110.59375 80.109375 105.703125 73.214844 C 101.585938 67.542969 97.585938 60.539062 94.027344 54.867188 C 92.996094 53.21875 92.132812 52.191406 90.941406 51.5625 C 90.222656 51.183594 90.019531 50.257812 90.53125 49.625 C 90.769531 49.324219 91.003906 49.023438 91.226562 48.714844 C 92.285156 47.257812 93.742188 46.144531 95.398438 45.441406 C 96.503906 44.972656 97.480469 44.375 98.363281 43.632812 C 102.699219 40.410156 104.480469 35.960938 104.480469 29.957031 C 104.480469 18.054688 96.585938 13.71875 88.023438 13.71875 C 84.796875 13.71875 63.65625 13.660156 61.222656 13.589844 L 61.222656 9.824219 L 89.578125 9.824219 C 97.695312 9.824219 103.144531 10.828125 107.371094 13.605469 C 111.929688 16.496094 114.933594 21.503906 114.933594 28.285156 C 114.933594 37.851562 108.816406 43.855469 100.585938 47.414062 C 102.589844 50.863281 107.371094 58.3125 110.707031 63.320312 C 114.820312 69.210938 116.933594 71.992188 119.492188 74.773438 C 122.492188 78 125.050781 79.222656 127.609375 79.886719 " fill-opacity="1" fill-rule="nonzero"/></g><g clip-path="url(#d6ef3c05ab)"><path fill="#fefefe" d="M 123.867188 73.417969 C 123.867188 76.242188 121.578125 78.535156 118.753906 78.535156 C 115.929688 78.535156 113.640625 76.242188 113.640625 73.417969 C 113.640625 70.59375 115.929688 68.300781 118.753906 68.300781 C 121.578125 68.300781 123.867188 70.59375 123.867188 73.417969 Z M 188.621094 20.335938 C 188.621094 23.160156 186.328125 25.453125 183.503906 25.453125 C 180.679688 25.453125 178.390625 23.160156 178.390625 20.335938 C 178.390625 17.511719 180.679688 15.21875 183.503906 15.21875 C 186.328125 15.21875 188.621094 17.511719 188.621094 20.335938 Z M 178.019531 67.726562 C 176.347656 70.214844 174.234375 72.382812 171.742188 74.167969 C 169.308594 75.902344 166.75 76.785156 164.136719 76.785156 C 162.660156 76.785156 161.359375 76.480469 160.269531 75.886719 C 159.027344 75.210938 158.886719 74.410156 158.886719 73.863281 C 158.886719 73.460938 159.222656 72.277344 162.359375 70.003906 C 164.847656 68.203125 167.980469 66.519531 171.675781 64.996094 C 174.878906 63.679688 177.972656 62.785156 180.898438 62.339844 C 180.3125 63.945312 179.347656 65.75 178.019531 67.726562 Z M 127.007812 25.101562 C 128.679688 22.609375 130.792969 20.445312 133.289062 18.660156 C 135.71875 16.925781 138.277344 16.046875 140.894531 16.046875 C 142.371094 16.046875 143.671875 16.347656 144.761719 16.941406 C 146 17.617188 146.144531 18.417969 146.144531 18.964844 C 146.144531 19.367188 145.804688 20.550781 142.667969 22.824219 C 140.183594 24.625 137.050781 26.308594 133.355469 27.832031 C 130.152344 29.148438 127.058594 30.042969 124.128906 30.488281 C 124.71875 28.882812 125.683594 27.078125 127.007812 25.101562 Z M 186.363281 31.496094 C 183.035156 28.394531 178.84375 26.824219 173.902344 26.824219 C 167.925781 26.824219 162.816406 28.847656 158.710938 32.839844 C 154.691406 36.75 151.640625 41.0625 149.640625 45.65625 C 149.03125 47.0625 148.542969 48.25 148.152344 49.257812 C 147.296875 50.410156 146.402344 51.523438 145.46875 52.597656 C 142.101562 56.453125 137.652344 58.40625 132.238281 58.40625 C 128.691406 58.40625 126.054688 57.34375 124.171875 55.152344 C 122.285156 52.957031 121.328125 49.785156 121.328125 45.71875 C 121.328125 42.722656 121.71875 39.617188 122.496094 36.476562 C 127.300781 35.652344 132.027344 34.320312 136.550781 32.527344 C 141.269531 30.65625 145.175781 28.441406 148.160156 25.949219 C 151.273438 23.347656 152.851562 20.585938 152.851562 17.742188 C 152.851562 15.152344 151.765625 13.132812 149.628906 11.75 C 147.609375 10.445312 145.121094 9.78125 142.226562 9.78125 C 137.453125 9.78125 132.789062 11.660156 128.359375 15.367188 C 123.992188 19.019531 120.402344 23.785156 117.699219 29.535156 C 114.992188 35.285156 113.621094 41.179688 113.621094 47.050781 C 113.621094 53.414062 115.320312 58.21875 118.667969 61.335938 C 121.996094 64.433594 126.1875 66.003906 131.128906 66.003906 C 137.101562 66.003906 142.214844 63.980469 146.320312 59.988281 C 150.339844 56.078125 153.390625 51.769531 155.390625 47.171875 C 156 45.765625 156.488281 44.578125 156.878906 43.570312 C 157.734375 42.417969 158.628906 41.304688 159.5625 40.234375 C 162.929688 36.375 167.378906 34.421875 172.792969 34.421875 C 176.339844 34.421875 178.976562 35.484375 180.859375 37.675781 C 182.746094 39.871094 183.703125 43.046875 183.703125 47.109375 C 183.703125 50.105469 183.3125 53.210938 182.535156 56.347656 C 177.730469 57.175781 173.003906 58.503906 168.480469 60.300781 C 163.761719 62.171875 159.855469 64.386719 156.871094 66.878906 C 153.757812 69.480469 152.179688 72.242188 152.179688 75.085938 C 152.179688 77.679688 153.261719 79.695312 155.398438 81.078125 C 157.417969 82.382812 159.910156 83.046875 162.800781 83.046875 C 167.574219 83.046875 172.242188 81.167969 176.671875 77.460938 C 181.039062 73.808594 184.625 69.039062 187.332031 63.292969 C 190.039062 57.542969 191.410156 51.648438 191.410156 45.777344 C 191.410156 39.414062 189.710938 34.609375 186.363281 31.496094 " fill-opacity="1" fill-rule="nonzero"/></g><g clip-path="url(#84cc672b60)"><path fill="#fefefe" d="M 325.277344 47.8125 C 325.339844 46.957031 325.375 46.085938 325.375 45.214844 C 325.375 39.214844 323.898438 33.558594 321.292969 28.578125 L 303.167969 18.335938 L 279.816406 31.121094 C 279.675781 31.199219 279.523438 31.234375 279.375 31.234375 C 279.050781 31.234375 278.734375 31.0625 278.570312 30.757812 C 278.324219 30.3125 278.488281 29.753906 278.933594 29.511719 L 285.488281 25.921875 L 281.390625 21.84375 L 265.34375 31.140625 L 266.054688 31.785156 L 264.816406 33.144531 L 262.726562 31.246094 L 262.726562 32.6875 L 266.054688 35.703125 L 264.816406 37.066406 L 262.726562 35.167969 L 262.726562 36.605469 L 266.054688 39.625 L 264.816406 40.984375 L 262.726562 39.085938 L 262.726562 40.527344 L 266.054688 43.546875 L 264.816406 44.90625 L 262.726562 43.007812 L 262.726562 48.949219 C 265.328125 49.609375 267.84375 50.558594 270.238281 51.769531 L 270.238281 46.117188 L 268.148438 48.015625 L 266.914062 46.65625 L 270.238281 43.636719 L 270.238281 42.195312 L 268.148438 44.09375 L 266.914062 42.738281 L 270.238281 39.714844 L 270.238281 38.277344 L 268.148438 40.175781 L 266.914062 38.816406 L 270.539062 35.523438 C 270.886719 35.207031 271.421875 35.207031 271.773438 35.523438 L 275.398438 38.816406 L 274.164062 40.175781 L 272.074219 38.277344 L 272.074219 39.714844 L 275.398438 42.738281 L 274.164062 44.09375 L 272.074219 42.195312 L 272.074219 43.636719 L 275.398438 46.65625 L 274.164062 48.015625 L 272.074219 46.117188 L 272.074219 52.765625 C 273.863281 53.804688 275.570312 55 277.183594 56.34375 L 277.183594 45.671875 L 289.382812 39.644531 L 301.582031 45.671875 L 301.582031 56.34375 C 302.707031 55.402344 303.882812 54.539062 305.101562 53.746094 C 304.289062 53.4375 303.671875 52.691406 303.582031 51.765625 C 303.480469 50.761719 304.023438 49.84375 304.875 49.414062 C 305.808594 48.707031 307.136719 47.851562 307.136719 47.851562 L 308.152344 49.019531 L 309.226562 48.460938 L 308.363281 46.996094 L 309.238281 46.402344 L 308.226562 44.394531 L 309.074219 43.941406 L 310.214844 45.894531 L 311.289062 45.398438 L 311.601562 45.945312 C 311.8125 45.859375 312.039062 45.800781 312.273438 45.777344 C 313.578125 45.644531 314.742188 46.597656 314.871094 47.902344 C 314.921875 48.4375 314.789062 48.945312 314.527344 49.371094 C 314.945312 49.242188 315.367188 49.125 315.789062 49.011719 L 315.789062 43.371094 L 313.699219 45.269531 L 312.464844 43.910156 L 315.789062 40.890625 L 315.789062 39.449219 L 313.699219 41.347656 L 312.464844 39.992188 L 315.789062 36.96875 L 315.789062 35.53125 L 313.699219 37.429688 L 312.464844 36.070312 L 315.789062 33.050781 L 315.789062 31.609375 L 313.699219 33.507812 L 312.464844 32.148438 L 316.089844 28.855469 C 316.441406 28.539062 316.976562 28.539062 317.324219 28.855469 L 320.953125 32.148438 L 319.714844 33.507812 L 317.625 31.609375 L 317.625 33.050781 L 320.953125 36.070312 L 319.714844 37.429688 L 317.625 35.53125 L 317.625 36.96875 L 320.953125 39.992188 L 319.714844 41.347656 L 317.625 39.449219 L 317.625 40.890625 L 320.953125 43.910156 L 319.714844 45.269531 L 317.625 43.371094 L 317.625 48.582031 C 320.121094 48.0625 322.683594 47.800781 325.277344 47.8125 Z M 324.824219 49.648438 C 316.257812 49.722656 308.082031 52.902344 301.703125 58.664062 C 295.328125 64.425781 291.335938 72.234375 290.394531 80.75 C 298.953125 80.679688 307.128906 77.503906 313.511719 71.738281 C 319.890625 65.972656 323.886719 58.160156 324.824219 49.648438 Z M 289.382812 75.917969 C 291.03125 69.09375 294.601562 62.882812 299.746094 57.980469 L 299.746094 46.816406 L 289.382812 41.695312 L 279.019531 46.816406 L 279.019531 57.980469 C 284.164062 62.882812 287.730469 69.09375 289.382812 75.917969 Z M 288.371094 80.75 C 287.429688 72.234375 283.4375 64.425781 277.058594 58.664062 C 270.679688 52.902344 262.503906 49.722656 253.941406 49.648438 C 254.878906 58.160156 258.871094 65.972656 265.253906 71.738281 C 271.632812 77.5 279.808594 80.679688 288.371094 80.75 Z M 253.484375 47.8125 C 255.992188 47.800781 258.472656 48.046875 260.890625 48.53125 L 260.890625 43.007812 L 258.800781 44.90625 L 257.566406 43.546875 L 260.890625 40.527344 L 260.890625 39.085938 L 258.800781 40.984375 L 257.566406 39.625 L 260.890625 36.605469 L 260.890625 35.167969 L 258.800781 37.066406 L 257.566406 35.703125 L 260.890625 32.6875 L 260.890625 31.246094 L 258.800781 33.144531 L 257.566406 31.785156 L 261.191406 28.492188 C 261.542969 28.175781 262.078125 28.175781 262.425781 28.492188 L 263.917969 29.847656 L 281.078125 19.902344 C 281.433594 19.691406 281.890625 19.75 282.183594 20.042969 L 287.164062 25.003906 L 302.734375 16.480469 C 303.015625 16.332031 303.351562 16.332031 303.628906 16.488281 L 319.421875 25.414062 C 312.976562 15.664062 301.917969 9.214844 289.382812 9.214844 C 269.535156 9.214844 253.390625 25.363281 253.390625 45.214844 C 253.390625 46.085938 253.421875 46.953125 253.484375 47.8125 Z M 327.210938 45.214844 C 327.210938 66.074219 310.238281 83.046875 289.382812 83.046875 C 268.523438 83.046875 251.554688 66.074219 251.554688 45.214844 C 251.554688 24.351562 268.523438 7.378906 289.382812 7.378906 C 303.789062 7.378906 316.335938 15.476562 322.722656 27.355469 C 322.789062 27.441406 322.835938 27.535156 322.867188 27.632812 C 325.636719 32.886719 327.210938 38.871094 327.210938 45.214844 Z M 289.75 50.515625 L 292.128906 50.515625 L 292.128906 48.136719 L 289.75 48.136719 Z M 286.636719 50.515625 L 289.011719 50.515625 L 289.011719 48.136719 L 286.636719 48.136719 Z M 289.75 47.589844 L 292.128906 47.589844 L 292.128906 45.214844 L 289.75 45.214844 Z M 286.636719 45.214844 L 289.011719 45.214844 L 289.011719 47.589844 L 286.636719 47.589844 L 286.636719 45.214844 " fill-opacity="1" fill-rule="nonzero"/></g><path fill="#c1ff72" d="M 22.925781 90.390625 C 22.726562 90.023438 22.4375 89.742188 22.0625 89.546875 C 21.691406 89.355469 21.253906 89.257812 20.75 89.257812 C 19.875 89.257812 19.175781 89.546875 18.648438 90.121094 C 18.121094 90.691406 17.859375 91.457031 17.859375 92.414062 C 17.859375 93.433594 18.136719 94.234375 18.6875 94.808594 C 19.242188 95.382812 20 95.667969 20.96875 95.667969 C 21.632812 95.667969 22.195312 95.5 22.648438 95.164062 C 23.109375 94.824219 23.441406 94.339844 23.652344 93.707031 L 20.226562 93.707031 L 20.226562 91.71875 L 26.101562 91.71875 L 26.101562 94.226562 C 25.902344 94.902344 25.558594 95.53125 25.078125 96.109375 C 24.601562 96.6875 23.992188 97.15625 23.253906 97.515625 C 22.519531 97.871094 21.691406 98.046875 20.761719 98.046875 C 19.667969 98.046875 18.691406 97.808594 17.835938 97.332031 C 16.976562 96.851562 16.308594 96.1875 15.828125 95.335938 C 15.347656 94.484375 15.109375 93.507812 15.109375 92.414062 C 15.109375 91.316406 15.347656 90.339844 15.828125 89.484375 C 16.308594 88.628906 16.972656 87.960938 17.824219 87.480469 C 18.679688 87 19.652344 86.757812 20.75 86.757812 C 22.074219 86.757812 23.191406 87.082031 24.097656 87.722656 C 25.011719 88.363281 25.613281 89.253906 25.914062 90.390625 Z M 22.925781 90.390625 " fill-opacity="1" fill-rule="nonzero"/><path fill="#c1ff72" d="M 35.730469 97.96875 L 33.421875 93.785156 L 32.777344 93.785156 L 32.777344 97.96875 L 30.078125 97.96875 L 30.078125 86.886719 L 34.605469 86.886719 C 35.480469 86.886719 36.226562 87.039062 36.839844 87.347656 C 37.457031 87.652344 37.917969 88.070312 38.222656 88.601562 C 38.527344 89.132812 38.679688 89.726562 38.679688 90.375 C 38.679688 91.113281 38.46875 91.773438 38.054688 92.351562 C 37.636719 92.929688 37.027344 93.339844 36.214844 93.582031 L 38.777344 97.96875 Z M 32.777344 91.875 L 34.449219 91.875 C 34.945312 91.875 35.316406 91.753906 35.5625 91.511719 C 35.808594 91.269531 35.933594 90.929688 35.933594 90.488281 C 35.933594 90.066406 35.808594 89.734375 35.5625 89.496094 C 35.316406 89.25 34.945312 89.128906 34.449219 89.128906 L 32.777344 89.128906 Z M 32.777344 91.875 " fill-opacity="1" fill-rule="nonzero"/><path fill="#c1ff72" d="M 45.546875 89.046875 L 45.546875 91.292969 L 49.160156 91.292969 L 49.160156 93.378906 L 45.546875 93.378906 L 45.546875 95.808594 L 49.636719 95.808594 L 49.636719 97.96875 L 42.847656 97.96875 L 42.847656 86.886719 L 49.636719 86.886719 L 49.636719 89.046875 Z M 45.546875 89.046875 " fill-opacity="1" fill-rule="nonzero"/><path fill="#c1ff72" d="M 56.566406 89.046875 L 56.566406 91.292969 L 60.179688 91.292969 L 60.179688 93.378906 L 56.566406 93.378906 L 56.566406 95.808594 L 60.65625 95.808594 L 60.65625 97.96875 L 53.867188 97.96875 L 53.867188 86.886719 L 60.65625 86.886719 L 60.65625 89.046875 Z M 56.566406 89.046875 " fill-opacity="1" fill-rule="nonzero"/><path fill="#c1ff72" d="M 74.800781 97.96875 L 72.097656 97.96875 L 67.585938 91.132812 L 67.585938 97.96875 L 64.882812 97.96875 L 64.882812 86.886719 L 67.585938 86.886719 L 72.097656 93.757812 L 72.097656 86.886719 L 74.800781 86.886719 Z M 74.800781 97.96875 " fill-opacity="1" fill-rule="nonzero"/><path fill="#c1ff72" d="M 87.679688 90.453125 C 87.679688 91.097656 87.53125 91.6875 87.234375 92.21875 C 86.9375 92.75 86.488281 93.179688 85.875 93.503906 C 85.269531 93.828125 84.511719 93.988281 83.605469 93.988281 L 81.933594 93.988281 L 81.933594 97.96875 L 79.234375 97.96875 L 79.234375 86.886719 L 83.605469 86.886719 C 84.488281 86.886719 85.234375 87.039062 85.847656 87.347656 C 86.457031 87.652344 86.914062 88.070312 87.21875 88.605469 C 87.527344 89.144531 87.679688 89.761719 87.679688 90.453125 Z M 83.398438 91.847656 C 83.914062 91.847656 84.300781 91.726562 84.550781 91.484375 C 84.804688 91.238281 84.929688 90.898438 84.929688 90.453125 C 84.929688 90.011719 84.804688 89.671875 84.550781 89.429688 C 84.300781 89.1875 83.914062 89.066406 83.398438 89.066406 L 81.933594 89.066406 L 81.933594 91.847656 Z M 83.398438 91.847656 " fill-opacity="1" fill-rule="nonzero"/><path fill="#c1ff72" d="M 98.460938 96.011719 L 94.324219 96.011719 L 93.660156 97.96875 L 90.835938 97.96875 L 94.84375 86.886719 L 97.972656 86.886719 L 101.980469 97.96875 L 99.121094 97.96875 Z M 97.761719 93.925781 L 96.390625 89.871094 L 95.035156 93.925781 Z M 97.761719 93.925781 " fill-opacity="1" fill-rule="nonzero"/><path fill="#c1ff72" d="M 111.328125 97.96875 L 109.019531 93.785156 L 108.375 93.785156 L 108.375 97.96875 L 105.675781 97.96875 L 105.675781 86.886719 L 110.203125 86.886719 C 111.078125 86.886719 111.824219 87.039062 112.4375 87.347656 C 113.054688 87.652344 113.515625 88.070312 113.820312 88.601562 C 114.125 89.132812 114.277344 89.726562 114.277344 90.375 C 114.277344 91.113281 114.066406 91.773438 113.652344 92.351562 C 113.234375 92.929688 112.625 93.339844 111.8125 93.582031 L 114.371094 97.96875 Z M 108.375 91.875 L 110.046875 91.875 C 110.542969 91.875 110.914062 91.753906 111.160156 91.511719 C 111.40625 91.269531 111.53125 90.929688 111.53125 90.488281 C 111.53125 90.066406 111.40625 89.734375 111.160156 89.496094 C 110.914062 89.25 110.542969 89.128906 110.046875 89.128906 L 108.375 89.128906 Z M 108.375 91.875 " fill-opacity="1" fill-rule="nonzero"/><path fill="#c1ff72" d="M 124.867188 97.96875 L 121.144531 93.078125 L 121.144531 97.96875 L 118.445312 97.96875 L 118.445312 86.886719 L 121.144531 86.886719 L 121.144531 91.75 L 124.839844 86.886719 L 128.011719 86.886719 L 123.714844 92.316406 L 128.171875 97.96875 Z M 124.867188 97.96875 " fill-opacity="1" fill-rule="nonzero"/><path fill="#c1ff72" d="M 150.296875 86.886719 L 150.296875 97.96875 L 147.601562 97.96875 L 147.601562 91.324219 L 145.121094 97.96875 L 142.945312 97.96875 L 140.453125 91.308594 L 140.453125 97.96875 L 137.75 97.96875 L 137.75 86.886719 L 140.941406 86.886719 L 144.050781 94.5625 L 147.128906 86.886719 Z M 150.296875 86.886719 " fill-opacity="1" fill-rule="nonzero"/><path fill="#c1ff72" d="M 157.421875 89.046875 L 157.421875 91.292969 L 161.03125 91.292969 L 161.03125 93.378906 L 157.421875 93.378906 L 157.421875 95.808594 L 161.507812 95.808594 L 161.507812 97.96875 L 154.71875 97.96875 L 154.71875 86.886719 L 161.507812 86.886719 L 161.507812 89.046875 Z M 157.421875 89.046875 " fill-opacity="1" fill-rule="nonzero"/><path fill="#c1ff72" d="M 178.285156 86.886719 L 178.285156 97.96875 L 175.589844 97.96875 L 175.589844 91.324219 L 173.109375 97.96875 L 170.929688 97.96875 L 168.4375 91.308594 L 168.4375 97.96875 L 165.738281 97.96875 L 165.738281 86.886719 L 168.929688 86.886719 L 172.035156 94.5625 L 175.117188 86.886719 Z M 178.285156 86.886719 " fill-opacity="1" fill-rule="nonzero"/><path fill="#c1ff72" d="M 187.949219 98.082031 C 186.90625 98.082031 185.953125 97.839844 185.082031 97.355469 C 184.214844 96.871094 183.523438 96.195312 183.011719 95.328125 C 182.5 94.457031 182.246094 93.484375 182.246094 92.398438 C 182.246094 91.3125 182.5 90.339844 183.011719 89.476562 C 183.523438 88.613281 184.214844 87.941406 185.082031 87.457031 C 185.953125 86.972656 186.90625 86.730469 187.949219 86.730469 C 188.988281 86.730469 189.941406 86.972656 190.808594 87.457031 C 191.679688 87.941406 192.363281 88.613281 192.867188 89.476562 C 193.367188 90.339844 193.617188 91.3125 193.617188 92.398438 C 193.617188 93.484375 193.363281 94.457031 192.855469 95.328125 C 192.351562 96.195312 191.667969 96.871094 190.804688 97.355469 C 189.941406 97.839844 188.988281 98.082031 187.949219 98.082031 Z M 187.949219 95.617188 C 188.832031 95.617188 189.535156 95.324219 190.066406 94.734375 C 190.601562 94.144531 190.867188 93.367188 190.867188 92.398438 C 190.867188 91.417969 190.601562 90.636719 190.066406 90.050781 C 189.535156 89.46875 188.832031 89.175781 187.949219 89.175781 C 187.054688 89.175781 186.339844 89.464844 185.804688 90.046875 C 185.273438 90.625 185.011719 91.410156 185.011719 92.398438 C 185.011719 93.375 185.273438 94.15625 185.804688 94.742188 C 186.339844 95.328125 187.054688 95.617188 187.949219 95.617188 Z M 187.949219 95.617188 " fill-opacity="1" fill-rule="nonzero"/><path fill="#c1ff72" d="M 203.246094 97.96875 L 200.9375 93.785156 L 200.292969 93.785156 L 200.292969 97.96875 L 197.59375 97.96875 L 197.59375 86.886719 L 202.121094 86.886719 C 202.996094 86.886719 203.742188 87.039062 204.355469 87.347656 C 204.972656 87.652344 205.433594 88.070312 205.738281 88.601562 C 206.042969 89.132812 206.195312 89.726562 206.195312 90.375 C 206.195312 91.113281 205.984375 91.773438 205.570312 92.351562 C 205.15625 92.929688 204.542969 93.339844 203.730469 93.582031 L 206.292969 97.96875 Z M 200.292969 91.875 L 201.964844 91.875 C 202.460938 91.875 202.832031 91.753906 203.078125 91.511719 C 203.324219 91.269531 203.449219 90.929688 203.449219 90.488281 C 203.449219 90.066406 203.324219 89.734375 203.078125 89.496094 C 202.832031 89.25 202.460938 89.128906 201.964844 89.128906 L 200.292969 89.128906 Z M 200.292969 91.875 " fill-opacity="1" fill-rule="nonzero"/><path fill="#c1ff72" d="M 210.363281 86.886719 L 213.0625 86.886719 L 213.0625 97.96875 L 210.363281 97.96875 Z M 210.363281 86.886719 " fill-opacity="1" fill-rule="nonzero"/><path fill="#c1ff72" d="M 224.398438 96.011719 L 220.261719 96.011719 L 219.597656 97.96875 L 216.773438 97.96875 L 220.78125 86.886719 L 223.910156 86.886719 L 227.917969 97.96875 L 225.058594 97.96875 Z M 223.699219 93.925781 L 222.328125 89.871094 L 220.96875 93.925781 Z M 223.699219 93.925781 " fill-opacity="1" fill-rule="nonzero"/><path fill="#c1ff72" d="M 234.3125 95.886719 L 237.847656 95.886719 L 237.847656 97.96875 L 231.609375 97.96875 L 231.609375 86.886719 L 234.3125 86.886719 Z M 234.3125 95.886719 " fill-opacity="1" fill-rule="nonzero"/><path fill="#c1ff72" d="M 254.800781 90.390625 C 254.597656 90.023438 254.3125 89.742188 253.9375 89.546875 C 253.566406 89.355469 253.128906 89.257812 252.621094 89.257812 C 251.75 89.257812 251.050781 89.546875 250.523438 90.121094 C 249.996094 90.691406 249.734375 91.457031 249.734375 92.414062 C 249.734375 93.433594 250.007812 94.234375 250.5625 94.808594 C 251.113281 95.382812 251.875 95.667969 252.839844 95.667969 C 253.507812 95.667969 254.066406 95.5 254.523438 95.164062 C 254.980469 94.824219 255.316406 94.339844 255.527344 93.707031 L 252.097656 93.707031 L 252.097656 91.71875 L 257.976562 91.71875 L 257.976562 94.226562 C 257.773438 94.902344 257.433594 95.53125 256.953125 96.109375 C 256.472656 96.6875 255.867188 97.15625 255.128906 97.515625 C 254.394531 97.871094 253.566406 98.046875 252.636719 98.046875 C 251.542969 98.046875 250.566406 97.808594 249.707031 97.332031 C 248.851562 96.851562 248.183594 96.1875 247.703125 95.335938 C 247.222656 94.484375 246.984375 93.507812 246.984375 92.414062 C 246.984375 91.316406 247.222656 90.339844 247.703125 89.484375 C 248.183594 88.628906 248.847656 87.960938 249.699219 87.480469 C 250.550781 87 251.527344 86.757812 252.621094 86.757812 C 253.949219 86.757812 255.0625 87.082031 255.972656 87.722656 C 256.882812 88.363281 257.488281 89.253906 257.785156 90.390625 Z M 254.800781 90.390625 " fill-opacity="1" fill-rule="nonzero"/><path fill="#c1ff72" d="M 268.851562 96.011719 L 264.714844 96.011719 L 264.050781 97.96875 L 261.222656 97.96875 L 265.234375 86.886719 L 268.359375 86.886719 L 272.371094 97.96875 L 269.511719 97.96875 Z M 268.152344 93.925781 L 266.78125 89.871094 L 265.421875 93.925781 Z M 268.152344 93.925781 " fill-opacity="1" fill-rule="nonzero"/><path fill="#c1ff72" d="M 281.71875 97.96875 L 279.410156 93.785156 L 278.765625 93.785156 L 278.765625 97.96875 L 276.0625 97.96875 L 276.0625 86.886719 L 280.59375 86.886719 C 281.46875 86.886719 282.210938 87.039062 282.828125 87.347656 C 283.445312 87.652344 283.90625 88.070312 284.207031 88.601562 C 284.511719 89.132812 284.664062 89.726562 284.664062 90.375 C 284.664062 91.113281 284.457031 91.773438 284.039062 92.351562 C 283.625 92.929688 283.011719 93.339844 282.203125 93.582031 L 284.761719 97.96875 Z M 278.765625 91.875 L 280.4375 91.875 C 280.929688 91.875 281.300781 91.753906 281.546875 91.511719 C 281.796875 91.269531 281.921875 90.929688 281.921875 90.488281 C 281.921875 90.066406 281.796875 89.734375 281.546875 89.496094 C 281.300781 89.25 280.929688 89.128906 280.4375 89.128906 L 278.765625 89.128906 Z M 278.765625 91.875 " fill-opacity="1" fill-rule="nonzero"/><path fill="#c1ff72" d="M 292.984375 86.886719 C 294.152344 86.886719 295.175781 87.117188 296.046875 87.582031 C 296.921875 88.046875 297.597656 88.695312 298.074219 89.53125 C 298.554688 90.371094 298.792969 91.335938 298.792969 92.429688 C 298.792969 93.515625 298.554688 94.476562 298.074219 95.316406 C 297.597656 96.160156 296.917969 96.8125 296.039062 97.277344 C 295.160156 97.742188 294.140625 97.96875 292.984375 97.96875 L 288.835938 97.96875 L 288.835938 86.886719 Z M 292.808594 95.632812 C 293.832031 95.632812 294.625 95.355469 295.195312 94.800781 C 295.765625 94.242188 296.046875 93.449219 296.046875 92.429688 C 296.046875 91.40625 295.765625 90.613281 295.195312 90.046875 C 294.625 89.480469 293.832031 89.195312 292.808594 89.195312 L 291.535156 89.195312 L 291.535156 95.632812 Z M 292.808594 95.632812 " fill-opacity="1" fill-rule="nonzero"/><path fill="#c1ff72" d="M 305.488281 89.046875 L 305.488281 91.292969 L 309.101562 91.292969 L 309.101562 93.378906 L 305.488281 93.378906 L 305.488281 95.808594 L 309.578125 95.808594 L 309.578125 97.96875 L 302.789062 97.96875 L 302.789062 86.886719 L 309.578125 86.886719 L 309.578125 89.046875 Z M 305.488281 89.046875 " fill-opacity="1" fill-rule="nonzero"/><path fill="#c1ff72" d="M 323.722656 97.96875 L 321.019531 97.96875 L 316.507812 91.132812 L 316.507812 97.96875 L 313.804688 97.96875 L 313.804688 86.886719 L 316.507812 86.886719 L 321.019531 93.757812 L 321.019531 86.886719 L 323.722656 86.886719 Z M 323.722656 97.96875 " fill-opacity="1" fill-rule="nonzero"/></svg>