<svg xmlns="http://www.w3.org/2000/svg" xmlns:xlink="http://www.w3.org/1999/xlink" width="158" zoomAndPan="magnify" viewBox="0 0 118.5 31.5" height="42" preserveAspectRatio="xMidYMid meet" version="1.0"><defs><g/><clipPath id="d8a18e1d88"><path d="M 19.085938 7.183594 L 22.546875 7.183594 L 22.546875 14.636719 L 19.085938 14.636719 Z M 19.085938 7.183594 " clip-rule="nonzero"/></clipPath><clipPath id="daa3defc7a"><path d="M 12.625 7.183594 L 19.082031 7.183594 L 19.082031 14.636719 L 12.625 14.636719 Z M 12.625 7.183594 " clip-rule="nonzero"/></clipPath><clipPath id="161be11821"><path d="M 12 15.226562 L 23 15.226562 L 23 30 L 12 30 Z M 12 15.226562 " clip-rule="nonzero"/></clipPath><clipPath id="2a81a67696"><path d="M 0.679688 23.304688 L 18.335938 23.304688 L 18.335938 29.589844 L 0.679688 29.589844 Z M 0.679688 23.304688 " clip-rule="nonzero"/></clipPath><clipPath id="19c68c3575"><path d="M 21.125 1.371094 L 36.597656 1.371094 L 36.597656 21 L 21.125 21 Z M 21.125 1.371094 " clip-rule="nonzero"/></clipPath><clipPath id="467eeb7773"><path d="M 13.042969 14.632812 L 36.597656 14.632812 L 36.597656 23.484375 L 13.042969 23.484375 Z M 13.042969 14.632812 " clip-rule="nonzero"/></clipPath><clipPath id="229496cad4"><path d="M 13.25 0 L 23.433594 0 L 23.433594 6.269531 L 13.25 6.269531 Z M 13.25 0 " clip-rule="nonzero"/></clipPath><clipPath id="4f49ea7571"><path d="M 21.125 1.371094 L 36.597656 1.371094 L 36.597656 10.886719 L 21.125 10.886719 Z M 21.125 1.371094 " clip-rule="nonzero"/></clipPath><clipPath id="a2ac4087c2"><path d="M 23.648438 7.675781 L 30.609375 7.675781 L 30.609375 14.128906 L 23.648438 14.128906 Z M 23.648438 7.675781 " clip-rule="nonzero"/></clipPath><clipPath id="b93fbe7284"><path d="M 27.148438 7.675781 L 30.609375 7.675781 L 30.609375 14.128906 L 27.148438 14.128906 Z M 27.148438 7.675781 " clip-rule="nonzero"/></clipPath><clipPath id="2ebac7224a"><path d="M 32.003906 8.761719 L 36.328125 8.761719 L 36.328125 10.957031 L 32.003906 10.957031 Z M 32.003906 8.761719 " clip-rule="nonzero"/></clipPath><clipPath id="3260c592e6"><path d="M 32.160156 8.941406 L 36.152344 8.941406 L 36.152344 12.933594 L 32.160156 12.933594 Z M 32.160156 8.941406 " clip-rule="nonzero"/></clipPath><clipPath id="5d2d73305b"><path d="M 32.878906 9.660156 L 35.40625 9.660156 L 35.40625 12.1875 L 32.878906 12.1875 Z M 32.878906 9.660156 " clip-rule="nonzero"/></clipPath><clipPath id="7bdae66353"><path d="M 12.980469 16.746094 L 17.304688 16.746094 L 17.304688 21.070312 L 12.980469 21.070312 Z M 12.980469 16.746094 " clip-rule="nonzero"/></clipPath><clipPath id="b9c3da7d64"><path d="M 13.136719 16.902344 L 17.128906 16.902344 L 17.128906 20.894531 L 13.136719 20.894531 Z M 13.136719 16.902344 " clip-rule="nonzero"/></clipPath><clipPath id="1bab530dfe"><path d="M 13.5625 17.285156 L 16.6875 17.285156 L 16.6875 20.480469 L 13.5625 20.480469 Z M 13.5625 17.285156 " clip-rule="nonzero"/></clipPath></defs><g fill="#ffffff" fill-opacity="1"><g transform="translate(42.541612, 20.881257)"><g><path d="M 3.5 -8.46875 L 3.5 -6.34375 L 6.9375 -6.34375 L 6.9375 -4.359375 L 3.5 -4.359375 L 3.5 -2.0625 L 7.375 -2.0625 L 7.375 0 L 0.9375 0 L 0.9375 -10.53125 L 7.375 -10.53125 L 7.375 -8.46875 Z M 3.5 -8.46875 "/></g></g></g><g fill="#ffffff" fill-opacity="1"><g transform="translate(50.648365, 20.881257)"><g><path d="M 7.375 -6.328125 L 7.375 -4.203125 L 0.78125 -4.203125 L 0.78125 -6.328125 Z M 7.375 -6.328125 "/></g></g></g><g fill="#ffffff" fill-opacity="1"><g transform="translate(59.339527, 20.881257)"><g><path d="M 7.921875 -7.203125 C 7.734375 -7.546875 7.457031 -7.8125 7.09375 -8 C 6.738281 -8.1875 6.320312 -8.28125 5.84375 -8.28125 C 5.019531 -8.28125 4.359375 -8.003906 3.859375 -7.453125 C 3.359375 -6.910156 3.109375 -6.1875 3.109375 -5.28125 C 3.109375 -4.3125 3.367188 -3.550781 3.890625 -3 C 4.421875 -2.457031 5.144531 -2.1875 6.0625 -2.1875 C 6.6875 -2.1875 7.21875 -2.347656 7.65625 -2.671875 C 8.09375 -2.992188 8.410156 -3.453125 8.609375 -4.046875 L 5.359375 -4.046875 L 5.359375 -5.9375 L 10.9375 -5.9375 L 10.9375 -3.5625 C 10.75 -2.914062 10.425781 -2.316406 9.96875 -1.765625 C 9.507812 -1.210938 8.929688 -0.765625 8.234375 -0.421875 C 7.535156 -0.0859375 6.742188 0.078125 5.859375 0.078125 C 4.828125 0.078125 3.898438 -0.148438 3.078125 -0.609375 C 2.265625 -1.066406 1.628906 -1.695312 1.171875 -2.5 C 0.722656 -3.3125 0.5 -4.238281 0.5 -5.28125 C 0.5 -6.320312 0.722656 -7.25 1.171875 -8.0625 C 1.628906 -8.875 2.265625 -9.507812 3.078125 -9.96875 C 3.890625 -10.425781 4.8125 -10.65625 5.84375 -10.65625 C 7.101562 -10.65625 8.164062 -10.347656 9.03125 -9.734375 C 9.894531 -9.117188 10.46875 -8.273438 10.75 -7.203125 Z M 7.921875 -7.203125 "/></g></g></g><g fill="#ffffff" fill-opacity="1"><g transform="translate(70.75791, 20.881257)"><g><path d="M 8.953125 -7.140625 C 8.953125 -6.523438 8.8125 -5.960938 8.53125 -5.453125 C 8.25 -4.953125 7.816406 -4.546875 7.234375 -4.234375 C 6.660156 -3.929688 5.941406 -3.78125 5.078125 -3.78125 L 3.5 -3.78125 L 3.5 0 L 0.9375 0 L 0.9375 -10.53125 L 5.078125 -10.53125 C 5.921875 -10.53125 6.628906 -10.382812 7.203125 -10.09375 C 7.785156 -9.800781 8.222656 -9.398438 8.515625 -8.890625 C 8.804688 -8.378906 8.953125 -7.796875 8.953125 -7.140625 Z M 4.890625 -5.8125 C 5.378906 -5.8125 5.742188 -5.925781 5.984375 -6.15625 C 6.222656 -6.394531 6.34375 -6.722656 6.34375 -7.140625 C 6.34375 -7.554688 6.222656 -7.878906 5.984375 -8.109375 C 5.742188 -8.335938 5.378906 -8.453125 4.890625 -8.453125 L 3.5 -8.453125 L 3.5 -5.8125 Z M 4.890625 -5.8125 "/></g></g></g><g fill="#ffffff" fill-opacity="1"><g transform="translate(80.108395, 20.881257)"><g><path d="M 7.484375 -1.859375 L 3.5625 -1.859375 L 2.921875 0 L 0.234375 0 L 4.046875 -10.53125 L 7.015625 -10.53125 L 10.828125 0 L 8.109375 0 Z M 6.828125 -3.84375 L 5.515625 -7.6875 L 4.234375 -3.84375 Z M 6.828125 -3.84375 "/></g></g></g><g fill="#ffffff" fill-opacity="1"><g transform="translate(91.152163, 20.881257)"><g><path d="M 6.296875 0 L 4.109375 -3.96875 L 3.5 -3.96875 L 3.5 0 L 0.9375 0 L 0.9375 -10.53125 L 5.234375 -10.53125 C 6.066406 -10.53125 6.773438 -10.382812 7.359375 -10.09375 C 7.941406 -9.800781 8.378906 -9.398438 8.671875 -8.890625 C 8.960938 -8.390625 9.109375 -7.832031 9.109375 -7.21875 C 9.109375 -6.519531 8.910156 -5.894531 8.515625 -5.34375 C 8.117188 -4.789062 7.535156 -4.398438 6.765625 -4.171875 L 9.1875 0 Z M 3.5 -5.796875 L 5.078125 -5.796875 C 5.554688 -5.796875 5.910156 -5.910156 6.140625 -6.140625 C 6.378906 -6.367188 6.5 -6.691406 6.5 -7.109375 C 6.5 -7.503906 6.378906 -7.816406 6.140625 -8.046875 C 5.910156 -8.285156 5.554688 -8.40625 5.078125 -8.40625 L 3.5 -8.40625 Z M 3.5 -5.796875 "/></g></g></g><g fill="#ffffff" fill-opacity="1"><g transform="translate(100.922223, 20.881257)"><g><path d="M 7.03125 0 L 3.5 -4.65625 L 3.5 0 L 0.9375 0 L 0.9375 -10.53125 L 3.5 -10.53125 L 3.5 -5.90625 L 7 -10.53125 L 10.015625 -10.53125 L 5.9375 -5.375 L 10.171875 0 Z M 7.03125 0 "/></g></g></g><g clip-path="url(#d8a18e1d88)"><path fill="#ffffff" d="M 19.539062 11.539062 C 19.613281 11.542969 19.703125 11.542969 19.8125 11.542969 C 20.304688 11.542969 20.800781 11.542969 21.308594 11.542969 L 21.308594 13.460938 L 13.882812 13.460938 L 13.882812 11.53125 L 18.515625 11.53125 L 18.515625 10.328125 L 13.871094 10.328125 L 13.871094 8.386719 L 22.535156 8.386719 L 22.535156 7.191406 C 19.339844 7.191406 16.757812 7.191406 14.171875 7.191406 L 13.878906 7.191406 L 13.878906 7.183594 L 12.648438 7.183594 L 12.648438 11.621094 C 12.652344 11.636719 12.652344 11.652344 12.652344 11.671875 C 12.65625 12.261719 12.652344 12.847656 12.652344 13.472656 L 12.648438 13.472656 L 12.648438 14.632812 L 22.449219 14.632812 C 22.511719 14.589844 22.53125 14.507812 22.53125 14.371094 C 22.519531 13.363281 22.53125 12.359375 22.53125 11.351562 C 22.535156 11.019531 22.535156 10.683594 22.535156 10.351562 L 19.539062 10.351562 Z M 19.539062 11.539062 " fill-opacity="1" fill-rule="nonzero"/></g><g clip-path="url(#daa3defc7a)"><path fill="#c1ff72" d="M 19.515625 11.539062 C 19.589844 11.542969 19.679688 11.542969 19.789062 11.542969 C 20.28125 11.542969 20.777344 11.542969 21.285156 11.542969 L 21.285156 13.460938 L 13.859375 13.460938 L 13.859375 11.53125 L 18.492188 11.53125 L 18.492188 10.328125 L 13.851562 10.328125 L 13.851562 8.386719 L 22.511719 8.386719 L 22.511719 7.191406 C 19.320312 7.191406 16.734375 7.191406 14.148438 7.191406 L 13.855469 7.191406 L 13.855469 7.183594 L 12.625 7.183594 L 12.625 11.621094 C 12.628906 11.636719 12.632812 11.652344 12.632812 11.671875 C 12.632812 12.261719 12.632812 12.847656 12.632812 13.472656 L 12.625 13.472656 L 12.625 14.632812 L 22.425781 14.632812 C 22.488281 14.589844 22.507812 14.507812 22.507812 14.371094 C 22.496094 13.363281 22.507812 12.359375 22.511719 11.351562 C 22.511719 11.019531 22.511719 10.683594 22.511719 10.351562 L 19.515625 10.351562 Z M 19.515625 11.539062 " fill-opacity="1" fill-rule="nonzero"/></g><g clip-path="url(#161be11821)"><path fill="#ffffff" d="M 12.765625 15.320312 L 22.894531 15.320312 L 22.894531 19.316406 L 16.988281 19.316406 C 17.421875 21.863281 19.613281 24.671875 22.894531 25.6875 L 22.894531 29.832031 C 16.445312 28.519531 11.839844 22.503906 12.765625 15.320312 Z M 12.765625 15.320312 " fill-opacity="1" fill-rule="nonzero"/></g><g clip-path="url(#2a81a67696)"><path fill="#c1ff72" d="M -4.539062 6.804688 C -4.550781 11.839844 -0.457031 15.941406 4.574219 15.941406 L 9.539062 15.941406 C 11.6875 15.941406 13.433594 17.6875 13.433594 19.835938 L 13.433594 24.855469 L 18.175781 29.597656 L 18.175781 21.066406 C 18.175781 15.617188 13.761719 11.199219 8.308594 11.199219 L 4.574219 11.199219 C 2.171875 11.199219 0.214844 9.246094 0.203125 6.847656 C 0.195312 4.433594 2.1875 2.460938 4.601562 2.460938 L 13.609375 2.460938 L 18.355469 -2.28125 L 4.617188 -2.28125 C -0.414062 -2.28125 -4.527344 1.773438 -4.539062 6.804688 Z M -4.539062 6.804688 " fill-opacity="1" fill-rule="nonzero"/></g><g clip-path="url(#19c68c3575)"><path fill="#c1ff72" d="M 36.597656 10.71875 C 36.613281 15.898438 32.402344 20.117188 27.226562 20.117188 L 22.117188 20.117188 C 19.90625 20.117188 18.109375 21.914062 18.109375 24.125 L 18.109375 29.285156 L 13.230469 34.167969 L 13.230469 25.390625 C 13.230469 19.78125 17.773438 15.238281 23.382812 15.238281 L 27.226562 15.238281 C 29.699219 15.238281 31.710938 13.230469 31.71875 10.761719 C 31.730469 8.28125 29.679688 6.25 27.195312 6.25 L 17.925781 6.25 L 13.046875 1.371094 L 27.179688 1.371094 C 32.355469 1.371094 36.585938 5.542969 36.597656 10.71875 Z M 36.597656 10.71875 " fill-opacity="1" fill-rule="nonzero"/></g><g clip-path="url(#467eeb7773)"><path fill="#c1ff72" d="M 36.597656 10.660156 C 36.613281 15.839844 32.402344 20.058594 27.226562 20.058594 L 22.117188 20.058594 C 19.90625 20.058594 18.109375 21.851562 18.109375 24.066406 L 18.109375 29.226562 L 13.230469 34.105469 L 13.230469 25.328125 C 13.230469 19.722656 17.773438 15.175781 23.382812 15.175781 L 27.226562 15.175781 C 29.699219 15.175781 31.710938 13.171875 31.71875 10.703125 C 31.730469 8.21875 29.679688 6.1875 27.195312 6.1875 L 17.925781 6.1875 L 13.046875 1.308594 L 27.179688 1.308594 C 32.355469 1.308594 36.585938 5.484375 36.597656 10.660156 Z M 36.597656 10.660156 " fill-opacity="1" fill-rule="nonzero"/></g><g clip-path="url(#229496cad4)"><path fill="#ffffff" d="M 36.90625 -3.121094 C 36.917969 -8.320312 32.691406 -12.558594 27.492188 -12.558594 L 22.363281 -12.558594 C 20.140625 -12.558594 18.339844 -14.359375 18.339844 -16.582031 L 18.339844 -21.765625 L 13.4375 -26.664062 L 13.4375 -17.851562 C 13.4375 -12.222656 18 -7.65625 23.632812 -7.65625 L 27.492188 -7.65625 C 29.976562 -7.65625 31.996094 -5.644531 32.007812 -3.164062 C 32.015625 -0.671875 29.957031 1.371094 27.464844 1.371094 L 18.15625 1.371094 L 13.253906 6.269531 L 27.449219 6.269531 C 32.644531 6.269531 36.890625 2.074219 36.90625 -3.121094 Z M 36.90625 -3.121094 " fill-opacity="1" fill-rule="nonzero"/></g><g clip-path="url(#4f49ea7571)"><path fill="#ffffff" d="M 36.597656 10.71875 C 36.613281 15.898438 32.402344 20.117188 27.226562 20.117188 L 22.117188 20.117188 C 19.90625 20.117188 18.109375 21.914062 18.109375 24.125 L 18.109375 29.289062 L 13.230469 34.167969 L 13.230469 25.390625 C 13.230469 19.785156 17.773438 15.238281 23.382812 15.238281 L 27.226562 15.238281 C 29.699219 15.238281 31.710938 13.230469 31.71875 10.761719 C 31.730469 8.28125 29.679688 6.25 27.195312 6.25 L 17.925781 6.25 L 13.046875 1.371094 L 27.179688 1.371094 C 32.355469 1.371094 36.585938 5.542969 36.597656 10.71875 Z M 36.597656 10.71875 " fill-opacity="1" fill-rule="nonzero"/></g><g clip-path="url(#a2ac4087c2)"><path fill="#c1ff72" d="M 29.261719 11.707031 C 28.714844 11.917969 28.320312 11.546875 28.082031 10.992188 C 27.84375 10.433594 27.984375 9.851562 28.398438 9.6875 C 28.8125 9.527344 29.339844 9.847656 29.578125 10.402344 C 29.816406 10.960938 29.839844 11.476562 29.261719 11.707031 Z M 27.582031 12 C 27.582031 12 27.578125 12.003906 27.578125 12.003906 C 27.519531 12.070312 27.441406 12.0625 27.367188 12.03125 C 27.230469 11.972656 27.101562 11.824219 27.101562 11.824219 C 27.101562 11.824219 26.953125 11.996094 26.816406 12.039062 C 26.761719 12.058594 26.707031 12.058594 26.664062 12.019531 C 26.65625 12.007812 26.648438 12 26.640625 11.988281 C 26.410156 11.695312 27.152344 11.136719 27.152344 11.136719 C 27.152344 11.136719 27.777344 11.765625 27.582031 12 Z M 26.300781 10.972656 C 26.0625 11.53125 25.664062 11.902344 25.117188 11.6875 C 24.539062 11.460938 24.5625 10.941406 24.800781 10.386719 C 25.039062 9.828125 25.570312 9.507812 25.984375 9.671875 C 26.398438 9.832031 26.539062 10.417969 26.300781 10.972656 Z M 27.128906 7.675781 C 24.589844 7.675781 23.648438 8.96875 23.648438 10.5625 C 23.648438 11.628906 24.347656 12.5625 25.386719 13.058594 L 25.386719 13.0625 C 25.386719 13.65625 25.492188 14.140625 25.847656 14.140625 C 26.066406 14.140625 26.195312 13.9375 26.257812 13.632812 C 26.316406 13.9375 26.441406 14.140625 26.671875 14.140625 C 26.890625 14.140625 27.019531 13.9375 27.082031 13.632812 C 27.140625 13.9375 27.265625 14.140625 27.496094 14.140625 C 27.714844 14.140625 27.84375 13.9375 27.90625 13.632812 C 27.964844 13.9375 28.089844 14.140625 28.320312 14.140625 C 28.648438 14.140625 28.777344 13.679688 28.78125 13.101562 C 29.871094 12.613281 30.609375 11.660156 30.609375 10.5625 C 30.609375 8.96875 29.820312 7.675781 27.128906 7.675781 " fill-opacity="1" fill-rule="nonzero"/></g><g clip-path="url(#b93fbe7284)"><path fill="#ffffff" d="M 29.296875 11.699219 C 28.746094 11.914062 28.347656 11.542969 28.109375 10.984375 C 27.871094 10.429688 28.011719 9.847656 28.429688 9.6875 C 28.84375 9.523438 29.375 9.84375 29.613281 10.398438 C 29.855469 10.953125 29.878906 11.472656 29.296875 11.699219 Z M 27.609375 11.992188 C 27.609375 11.996094 27.605469 11.996094 27.605469 11.996094 C 27.546875 12.0625 27.46875 12.058594 27.394531 12.023438 C 27.257812 11.964844 27.125 11.820312 27.125 11.820312 C 27.125 11.820312 26.980469 11.988281 26.839844 12.035156 C 26.785156 12.050781 26.730469 12.050781 26.691406 12.011719 C 26.679688 12 26.671875 11.992188 26.664062 11.984375 C 26.433594 11.6875 27.175781 11.128906 27.175781 11.128906 C 27.175781 11.128906 27.808594 11.761719 27.609375 11.992188 Z M 26.324219 10.96875 C 26.082031 11.523438 25.683594 11.894531 25.136719 11.683594 C 24.554688 11.453125 24.578125 10.9375 24.820312 10.382812 C 25.058594 9.824219 25.589844 9.507812 26.003906 9.667969 C 26.417969 9.832031 26.5625 10.414062 26.324219 10.96875 Z M 27.15625 7.675781 C 24.605469 7.675781 23.660156 8.964844 23.660156 10.558594 C 23.660156 11.621094 24.363281 12.554688 25.40625 13.050781 L 25.40625 13.054688 C 25.40625 13.648438 25.511719 14.128906 25.867188 14.128906 C 26.085938 14.128906 26.214844 13.925781 26.28125 13.625 C 26.339844 13.925781 26.464844 14.128906 26.695312 14.128906 C 26.914062 14.128906 27.042969 13.925781 27.109375 13.625 C 27.167969 13.925781 27.292969 14.128906 27.523438 14.128906 C 27.742188 14.128906 27.871094 13.925781 27.9375 13.625 C 27.996094 13.925781 28.121094 14.128906 28.351562 14.128906 C 28.679688 14.128906 28.808594 13.667969 28.8125 13.09375 C 29.90625 12.605469 30.648438 11.652344 30.648438 10.558594 C 30.648438 8.964844 29.855469 7.675781 27.15625 7.675781 " fill-opacity="1" fill-rule="nonzero"/></g><g clip-path="url(#2ebac7224a)"><path fill="#c1ff72" d="M 36.296875 10.910156 C 36.296875 11.191406 36.242188 11.46875 36.132812 11.730469 C 36.023438 11.992188 35.871094 12.226562 35.667969 12.425781 C 35.46875 12.628906 35.234375 12.785156 34.972656 12.890625 C 34.707031 13 34.433594 13.054688 34.148438 13.054688 C 33.867188 13.054688 33.589844 13 33.328125 12.890625 C 33.066406 12.785156 32.832031 12.628906 32.632812 12.425781 C 32.429688 12.226562 32.273438 11.992188 32.167969 11.730469 C 32.058594 11.46875 32.003906 11.191406 32.003906 10.910156 C 32.003906 10.625 32.058594 10.351562 32.167969 10.085938 C 32.273438 9.824219 32.429688 9.589844 32.632812 9.390625 C 32.832031 9.1875 33.066406 9.035156 33.328125 8.925781 C 33.589844 8.816406 33.867188 8.761719 34.148438 8.761719 C 34.433594 8.761719 34.707031 8.816406 34.972656 8.925781 C 35.234375 9.035156 35.46875 9.1875 35.667969 9.390625 C 35.871094 9.589844 36.023438 9.824219 36.132812 10.085938 C 36.242188 10.351562 36.296875 10.625 36.296875 10.910156 Z M 36.296875 10.910156 " fill-opacity="1" fill-rule="nonzero"/></g><g clip-path="url(#3260c592e6)"><path fill="#ffffff" d="M 36.152344 10.9375 C 36.152344 11.199219 36.101562 11.457031 36 11.699219 C 35.898438 11.945312 35.753906 12.160156 35.566406 12.347656 C 35.378906 12.535156 35.164062 12.679688 34.921875 12.78125 C 34.675781 12.882812 34.421875 12.933594 34.15625 12.933594 C 33.890625 12.933594 33.636719 12.882812 33.390625 12.78125 C 33.148438 12.679688 32.933594 12.535156 32.746094 12.347656 C 32.558594 12.160156 32.414062 11.945312 32.3125 11.699219 C 32.210938 11.457031 32.160156 11.199219 32.160156 10.9375 C 32.160156 10.671875 32.210938 10.417969 32.3125 10.171875 C 32.414062 9.925781 32.558594 9.710938 32.746094 9.523438 C 32.933594 9.335938 33.148438 9.191406 33.390625 9.089844 C 33.636719 8.992188 33.890625 8.941406 34.15625 8.941406 C 34.421875 8.941406 34.675781 8.992188 34.921875 9.089844 C 35.164062 9.191406 35.378906 9.335938 35.566406 9.523438 C 35.753906 9.710938 35.898438 9.925781 36 10.171875 C 36.101562 10.417969 36.152344 10.671875 36.152344 10.9375 Z M 36.152344 10.9375 " fill-opacity="1" fill-rule="nonzero"/></g><g clip-path="url(#5d2d73305b)"><path fill="#c1ff72" d="M 34.542969 10.578125 C 34.519531 10.578125 34.5 10.558594 34.5 10.535156 C 34.5 10.535156 34.5 9.792969 34.5 9.792969 C 34.5 9.71875 34.441406 9.660156 34.371094 9.660156 L 33.929688 9.660156 C 33.859375 9.660156 33.800781 9.71875 33.800781 9.792969 L 33.800781 10.535156 C 33.800781 10.558594 33.78125 10.578125 33.757812 10.578125 C 33.757812 10.578125 33.011719 10.578125 33.011719 10.578125 C 32.9375 10.578125 32.878906 10.636719 32.878906 10.710938 L 32.878906 11.148438 C 32.878906 11.222656 32.9375 11.28125 33.011719 11.28125 L 33.757812 11.28125 C 33.78125 11.28125 33.800781 11.300781 33.800781 11.324219 C 33.800781 11.324219 33.800781 12.070312 33.800781 12.070312 C 33.800781 12.140625 33.859375 12.199219 33.929688 12.199219 L 34.371094 12.199219 C 34.441406 12.199219 34.5 12.140625 34.5 12.070312 L 34.5 11.324219 C 34.5 11.300781 34.519531 11.28125 34.542969 11.28125 C 34.542969 11.28125 35.289062 11.28125 35.289062 11.28125 C 35.363281 11.28125 35.421875 11.222656 35.421875 11.148438 L 35.421875 10.710938 C 35.421875 10.636719 35.363281 10.578125 35.289062 10.578125 Z M 34.542969 10.578125 " fill-opacity="1" fill-rule="evenodd"/></g><g clip-path="url(#7bdae66353)"><path fill="#ffffff" d="M 17.304688 18.910156 C 17.304688 19.195312 17.25 19.472656 17.140625 19.734375 C 17.03125 20 16.875 20.234375 16.671875 20.4375 C 16.46875 20.640625 16.234375 20.796875 15.96875 20.90625 C 15.707031 21.015625 15.429688 21.070312 15.144531 21.070312 C 14.855469 21.070312 14.582031 21.015625 14.316406 20.90625 C 14.050781 20.796875 13.816406 20.640625 13.613281 20.4375 C 13.410156 20.234375 13.253906 20 13.144531 19.734375 C 13.035156 19.472656 12.980469 19.195312 12.980469 18.910156 C 12.980469 18.621094 13.035156 18.34375 13.144531 18.082031 C 13.253906 17.816406 13.410156 17.582031 13.613281 17.378906 C 13.816406 17.175781 14.050781 17.019531 14.316406 16.910156 C 14.582031 16.800781 14.855469 16.746094 15.144531 16.746094 C 15.429688 16.746094 15.707031 16.800781 15.96875 16.910156 C 16.234375 17.019531 16.46875 17.175781 16.671875 17.378906 C 16.875 17.582031 17.03125 17.816406 17.140625 18.082031 C 17.25 18.34375 17.304688 18.621094 17.304688 18.910156 Z M 17.304688 18.910156 " fill-opacity="1" fill-rule="nonzero"/></g><g clip-path="url(#b9c3da7d64)"><path fill="#c1ff72" d="M 17.117188 18.894531 C 17.117188 19.15625 17.066406 19.410156 16.96875 19.65625 C 16.867188 19.898438 16.722656 20.113281 16.535156 20.300781 C 16.347656 20.488281 16.132812 20.632812 15.890625 20.730469 C 15.644531 20.832031 15.390625 20.882812 15.128906 20.882812 C 14.863281 20.882812 14.609375 20.832031 14.367188 20.730469 C 14.121094 20.632812 13.90625 20.488281 13.71875 20.300781 C 13.535156 20.113281 13.390625 19.898438 13.289062 19.65625 C 13.1875 19.410156 13.136719 19.15625 13.136719 18.894531 C 13.136719 18.628906 13.1875 18.375 13.289062 18.132812 C 13.390625 17.886719 13.535156 17.671875 13.71875 17.484375 C 13.90625 17.300781 14.121094 17.15625 14.367188 17.054688 C 14.609375 16.953125 14.863281 16.902344 15.128906 16.902344 C 15.390625 16.902344 15.644531 16.953125 15.890625 17.054688 C 16.132812 17.15625 16.347656 17.300781 16.535156 17.484375 C 16.722656 17.671875 16.867188 17.886719 16.96875 18.132812 C 17.066406 18.375 17.117188 18.628906 17.117188 18.894531 Z M 17.117188 18.894531 " fill-opacity="1" fill-rule="nonzero"/></g><g clip-path="url(#1bab530dfe)"><path fill="#ffffff" d="M 16.316406 19.050781 C 16.320312 19 16.328125 18.945312 16.328125 18.894531 C 16.328125 18.839844 16.320312 18.789062 16.316406 18.738281 L 16.652344 18.472656 C 16.683594 18.449219 16.691406 18.40625 16.671875 18.371094 L 16.351562 17.816406 C 16.332031 17.78125 16.292969 17.769531 16.257812 17.78125 L 15.859375 17.941406 C 15.777344 17.878906 15.683594 17.828125 15.585938 17.785156 L 15.527344 17.363281 C 15.519531 17.324219 15.488281 17.292969 15.449219 17.292969 L 14.808594 17.292969 C 14.769531 17.292969 14.734375 17.324219 14.730469 17.363281 L 14.667969 17.785156 C 14.570312 17.828125 14.480469 17.878906 14.398438 17.941406 L 14 17.78125 C 13.964844 17.769531 13.921875 17.78125 13.902344 17.816406 L 13.582031 18.371094 C 13.5625 18.40625 13.574219 18.449219 13.601562 18.472656 L 13.941406 18.738281 C 13.933594 18.789062 13.929688 18.839844 13.929688 18.894531 C 13.929688 18.945312 13.933594 19 13.941406 19.050781 L 13.601562 19.3125 C 13.574219 19.339844 13.5625 19.382812 13.582031 19.417969 L 13.902344 19.96875 C 13.921875 20.003906 13.964844 20.019531 14 20.003906 L 14.398438 19.84375 C 14.480469 19.90625 14.570312 19.960938 14.667969 20 L 14.730469 20.425781 C 14.734375 20.460938 14.769531 20.492188 14.808594 20.492188 L 15.449219 20.492188 C 15.488281 20.492188 15.519531 20.460938 15.527344 20.425781 L 15.585938 20 C 15.683594 19.960938 15.773438 19.90625 15.855469 19.84375 L 16.253906 20.003906 C 16.292969 20.019531 16.332031 20.003906 16.351562 19.96875 L 16.671875 19.417969 C 16.691406 19.382812 16.683594 19.339844 16.652344 19.3125 Z M 15.128906 19.453125 C 14.820312 19.453125 14.570312 19.203125 14.570312 18.894531 C 14.570312 18.585938 14.820312 18.335938 15.128906 18.335938 C 15.4375 18.335938 15.6875 18.585938 15.6875 18.894531 C 15.6875 19.203125 15.4375 19.453125 15.128906 19.453125 Z M 15.128906 19.453125 " fill-opacity="1" fill-rule="nonzero"/></g></svg>