<svg xmlns="http://www.w3.org/2000/svg" xmlns:xlink="http://www.w3.org/1999/xlink" width="158" zoomAndPan="magnify" viewBox="0 0 118.5 31.5" height="42" preserveAspectRatio="xMidYMid meet" version="1.0"><defs><g/><clipPath id="8d5cedf900"><path d="M 14.871094 8.164062 L 18.332031 8.164062 L 18.332031 15.617188 L 14.871094 15.617188 Z M 14.871094 8.164062 " clip-rule="nonzero"/></clipPath><clipPath id="a5c8d9c802"><path d="M 8.410156 8.164062 L 14.867188 8.164062 L 14.867188 15.617188 L 8.410156 15.617188 Z M 8.410156 8.164062 " clip-rule="nonzero"/></clipPath><clipPath id="061c913604"><path d="M 8 16.210938 L 19 16.210938 L 19 30.980469 L 8 30.980469 Z M 8 16.210938 " clip-rule="nonzero"/></clipPath><clipPath id="a5838206fa"><path d="M 0.679688 24.285156 L 14.121094 24.285156 L 14.121094 30.570312 L 0.679688 30.570312 Z M 0.679688 24.285156 " clip-rule="nonzero"/></clipPath><clipPath id="678c67d5f5"><path d="M 16.910156 2.351562 L 32.382812 2.351562 L 32.382812 21.980469 L 16.910156 21.980469 Z M 16.910156 2.351562 " clip-rule="nonzero"/></clipPath><clipPath id="e08a333d91"><path d="M 8.828125 15.617188 L 32.382812 15.617188 L 32.382812 24.464844 L 8.828125 24.464844 Z M 8.828125 15.617188 " clip-rule="nonzero"/></clipPath><clipPath id="ad505f10f8"><path d="M 9.035156 0 L 19.21875 0 L 19.21875 7.25 L 9.035156 7.25 Z M 9.035156 0 " clip-rule="nonzero"/></clipPath><clipPath id="df0ec73a97"><path d="M 16.910156 2.351562 L 32.382812 2.351562 L 32.382812 11.867188 L 16.910156 11.867188 Z M 16.910156 2.351562 " clip-rule="nonzero"/></clipPath><clipPath id="4b6b303725"><path d="M 19.433594 8.660156 L 26.394531 8.660156 L 26.394531 15.113281 L 19.433594 15.113281 Z M 19.433594 8.660156 " clip-rule="nonzero"/></clipPath><clipPath id="fdfd32e640"><path d="M 22.933594 8.660156 L 26.394531 8.660156 L 26.394531 15.113281 L 22.933594 15.113281 Z M 22.933594 8.660156 " clip-rule="nonzero"/></clipPath><clipPath id="15243901bb"><path d="M 27.789062 9.742188 L 32.113281 9.742188 L 32.113281 11.9375 L 27.789062 11.9375 Z M 27.789062 9.742188 " clip-rule="nonzero"/></clipPath><clipPath id="12647ce858"><path d="M 27.945312 9.921875 L 31.9375 9.921875 L 31.9375 13.914062 L 27.945312 13.914062 Z M 27.945312 9.921875 " clip-rule="nonzero"/></clipPath><clipPath id="73435204b9"><path d="M 28.664062 10.640625 L 31.191406 10.640625 L 31.191406 13.167969 L 28.664062 13.167969 Z M 28.664062 10.640625 " clip-rule="nonzero"/></clipPath><clipPath id="8151c7cecb"><path d="M 8.765625 17.726562 L 13.089844 17.726562 L 13.089844 22.050781 L 8.765625 22.050781 Z M 8.765625 17.726562 " clip-rule="nonzero"/></clipPath><clipPath id="423563529d"><path d="M 8.921875 17.882812 L 12.914062 17.882812 L 12.914062 21.875 L 8.921875 21.875 Z M 8.921875 17.882812 " clip-rule="nonzero"/></clipPath><clipPath id="418eeebc42"><path d="M 9.347656 18.269531 L 12.472656 18.269531 L 12.472656 21.460938 L 9.347656 21.460938 Z M 9.347656 18.269531 " clip-rule="nonzero"/></clipPath></defs><g fill="#00bf62" fill-opacity="1"><g transform="translate(42.541612, 21.296045)"><g><path d="M 3.5 -8.46875 L 3.5 -6.34375 L 6.9375 -6.34375 L 6.9375 -4.359375 L 3.5 -4.359375 L 3.5 -2.0625 L 7.375 -2.0625 L 7.375 0 L 0.9375 0 L 0.9375 -10.53125 L 7.375 -10.53125 L 7.375 -8.46875 Z M 3.5 -8.46875 "/></g></g></g><g fill="#00bf62" fill-opacity="1"><g transform="translate(50.653235, 21.296045)"><g><path d="M 7.375 -6.328125 L 7.375 -4.203125 L 0.78125 -4.203125 L 0.78125 -6.328125 Z M 7.375 -6.328125 "/></g></g></g><g fill="#00bf62" fill-opacity="1"><g transform="translate(59.34961, 21.296045)"><g><path d="M 7.921875 -7.203125 C 7.734375 -7.546875 7.457031 -7.8125 7.09375 -8 C 6.738281 -8.1875 6.320312 -8.28125 5.84375 -8.28125 C 5.019531 -8.28125 4.359375 -8.003906 3.859375 -7.453125 C 3.359375 -6.910156 3.109375 -6.1875 3.109375 -5.28125 C 3.109375 -4.3125 3.367188 -3.550781 3.890625 -3 C 4.421875 -2.457031 5.144531 -2.1875 6.0625 -2.1875 C 6.6875 -2.1875 7.21875 -2.347656 7.65625 -2.671875 C 8.09375 -2.992188 8.410156 -3.453125 8.609375 -4.046875 L 5.359375 -4.046875 L 5.359375 -5.9375 L 10.9375 -5.9375 L 10.9375 -3.5625 C 10.75 -2.914062 10.425781 -2.316406 9.96875 -1.765625 C 9.507812 -1.210938 8.929688 -0.765625 8.234375 -0.421875 C 7.535156 -0.0859375 6.742188 0.078125 5.859375 0.078125 C 4.828125 0.078125 3.898438 -0.148438 3.078125 -0.609375 C 2.265625 -1.066406 1.628906 -1.695312 1.171875 -2.5 C 0.722656 -3.3125 0.5 -4.238281 0.5 -5.28125 C 0.5 -6.320312 0.722656 -7.25 1.171875 -8.0625 C 1.628906 -8.875 2.265625 -9.507812 3.078125 -9.96875 C 3.890625 -10.425781 4.8125 -10.65625 5.84375 -10.65625 C 7.101562 -10.65625 8.164062 -10.347656 9.03125 -9.734375 C 9.894531 -9.117188 10.46875 -8.273438 10.75 -7.203125 Z M 7.921875 -7.203125 "/></g></g></g><g fill="#00bf62" fill-opacity="1"><g transform="translate(70.774847, 21.296045)"><g><path d="M 8.953125 -7.140625 C 8.953125 -6.523438 8.8125 -5.960938 8.53125 -5.453125 C 8.25 -4.953125 7.816406 -4.546875 7.234375 -4.234375 C 6.660156 -3.929688 5.941406 -3.78125 5.078125 -3.78125 L 3.5 -3.78125 L 3.5 0 L 0.9375 0 L 0.9375 -10.53125 L 5.078125 -10.53125 C 5.921875 -10.53125 6.628906 -10.382812 7.203125 -10.09375 C 7.785156 -9.800781 8.222656 -9.398438 8.515625 -8.890625 C 8.804688 -8.378906 8.953125 -7.796875 8.953125 -7.140625 Z M 4.890625 -5.8125 C 5.378906 -5.8125 5.742188 -5.925781 5.984375 -6.15625 C 6.222656 -6.394531 6.34375 -6.722656 6.34375 -7.140625 C 6.34375 -7.554688 6.222656 -7.878906 5.984375 -8.109375 C 5.742188 -8.335938 5.378906 -8.453125 4.890625 -8.453125 L 3.5 -8.453125 L 3.5 -5.8125 Z M 4.890625 -5.8125 "/></g></g></g><g fill="#00bf62" fill-opacity="1"><g transform="translate(80.130953, 21.296045)"><g><path d="M 7.484375 -1.859375 L 3.5625 -1.859375 L 2.921875 0 L 0.234375 0 L 4.046875 -10.53125 L 7.015625 -10.53125 L 10.828125 0 L 8.109375 0 Z M 6.828125 -3.84375 L 5.515625 -7.6875 L 4.234375 -3.84375 Z M 6.828125 -3.84375 "/></g></g></g><g fill="#00bf62" fill-opacity="1"><g transform="translate(91.181348, 21.296045)"><g><path d="M 6.296875 0 L 4.109375 -3.96875 L 3.5 -3.96875 L 3.5 0 L 0.9375 0 L 0.9375 -10.53125 L 5.234375 -10.53125 C 6.066406 -10.53125 6.773438 -10.382812 7.359375 -10.09375 C 7.941406 -9.800781 8.378906 -9.398438 8.671875 -8.890625 C 8.960938 -8.390625 9.109375 -7.832031 9.109375 -7.21875 C 9.109375 -6.519531 8.910156 -5.894531 8.515625 -5.34375 C 8.117188 -4.789062 7.535156 -4.398438 6.765625 -4.171875 L 9.1875 0 Z M 3.5 -5.796875 L 5.078125 -5.796875 C 5.554688 -5.796875 5.910156 -5.910156 6.140625 -6.140625 C 6.378906 -6.367188 6.5 -6.691406 6.5 -7.109375 C 6.5 -7.503906 6.378906 -7.816406 6.140625 -8.046875 C 5.910156 -8.285156 5.554688 -8.40625 5.078125 -8.40625 L 3.5 -8.40625 Z M 3.5 -5.796875 "/></g></g></g><g fill="#00bf62" fill-opacity="1"><g transform="translate(100.957275, 21.296045)"><g><path d="M 7.03125 0 L 3.5 -4.65625 L 3.5 0 L 0.9375 0 L 0.9375 -10.53125 L 3.5 -10.53125 L 3.5 -5.90625 L 7 -10.53125 L 10.015625 -10.53125 L 5.9375 -5.375 L 10.171875 0 Z M 7.03125 0 "/></g></g></g><g clip-path="url(#8d5cedf900)"><path fill="#00bf63" d="M 15.324219 12.519531 C 15.398438 12.523438 15.488281 12.523438 15.597656 12.523438 C 16.089844 12.523438 16.585938 12.523438 17.09375 12.523438 L 17.09375 14.441406 L 9.667969 14.441406 L 9.667969 12.511719 L 14.300781 12.511719 L 14.300781 11.308594 L 9.65625 11.308594 L 9.65625 9.367188 L 18.320312 9.367188 L 18.320312 8.171875 C 15.125 8.171875 12.542969 8.171875 9.957031 8.171875 L 9.664062 8.171875 L 9.664062 8.164062 L 8.433594 8.164062 L 8.433594 12.601562 C 8.4375 12.617188 8.4375 12.632812 8.4375 12.652344 C 8.441406 13.242188 8.4375 13.832031 8.4375 14.453125 L 8.433594 14.453125 L 8.433594 15.617188 L 18.234375 15.617188 C 18.296875 15.570312 18.316406 15.488281 18.316406 15.355469 C 18.304688 14.347656 18.316406 13.339844 18.316406 12.332031 C 18.320312 12 18.320312 11.667969 18.320312 11.335938 L 15.324219 11.335938 Z M 15.324219 12.519531 " fill-opacity="1" fill-rule="nonzero"/></g><g clip-path="url(#a5c8d9c802)"><path fill="#c1ff72" d="M 15.300781 12.519531 C 15.375 12.523438 15.464844 12.523438 15.574219 12.523438 C 16.066406 12.523438 16.5625 12.523438 17.070312 12.523438 L 17.070312 14.441406 L 9.644531 14.441406 L 9.644531 12.511719 L 14.277344 12.511719 L 14.277344 11.308594 L 9.636719 11.308594 L 9.636719 9.367188 L 18.296875 9.367188 L 18.296875 8.171875 C 15.105469 8.171875 12.519531 8.171875 9.933594 8.171875 L 9.640625 8.171875 L 9.640625 8.164062 L 8.410156 8.164062 L 8.410156 12.601562 C 8.414062 12.617188 8.417969 12.632812 8.417969 12.652344 C 8.417969 13.242188 8.417969 13.832031 8.417969 14.453125 L 8.410156 14.453125 L 8.410156 15.617188 L 18.210938 15.617188 C 18.273438 15.570312 18.292969 15.488281 18.292969 15.355469 C 18.28125 14.347656 18.292969 13.339844 18.296875 12.332031 C 18.296875 12 18.296875 11.667969 18.296875 11.335938 L 15.300781 11.335938 Z M 15.300781 12.519531 " fill-opacity="1" fill-rule="nonzero"/></g><g clip-path="url(#061c913604)"><path fill="#00bf63" d="M 8.550781 16.300781 L 18.679688 16.300781 L 18.679688 20.300781 L 12.773438 20.300781 C 13.207031 22.84375 15.398438 25.652344 18.679688 26.667969 L 18.679688 30.8125 C 12.234375 29.503906 7.625 23.488281 8.550781 16.300781 Z M 8.550781 16.300781 " fill-opacity="1" fill-rule="nonzero"/></g><g clip-path="url(#a5838206fa)"><path fill="#c1ff72" d="M -8.753906 7.785156 C -8.765625 12.820312 -4.671875 16.921875 0.359375 16.921875 L 5.324219 16.921875 C 7.472656 16.921875 9.21875 18.667969 9.21875 20.820312 L 9.21875 25.835938 L 13.960938 30.578125 L 13.960938 22.046875 C 13.960938 16.597656 9.546875 12.179688 4.09375 12.179688 L 0.359375 12.179688 C -2.042969 12.179688 -4 10.230469 -4.011719 7.828125 C -4.019531 5.414062 -2.027344 3.441406 0.386719 3.441406 L 9.394531 3.441406 L 14.140625 -1.300781 L 0.402344 -1.300781 C -4.628906 -1.300781 -8.742188 2.757812 -8.753906 7.785156 Z M -8.753906 7.785156 " fill-opacity="1" fill-rule="nonzero"/></g><g clip-path="url(#678c67d5f5)"><path fill="#c1ff72" d="M 32.382812 11.699219 C 32.398438 16.878906 28.1875 21.097656 23.011719 21.097656 L 17.902344 21.097656 C 15.691406 21.097656 13.894531 22.894531 13.894531 25.109375 L 13.894531 30.269531 L 9.015625 35.148438 L 9.015625 26.371094 C 9.015625 20.765625 13.558594 16.21875 19.167969 16.21875 L 23.011719 16.21875 C 25.484375 16.21875 27.496094 14.214844 27.507812 11.742188 C 27.515625 9.261719 25.464844 7.230469 22.980469 7.230469 L 13.710938 7.230469 L 8.832031 2.351562 L 22.964844 2.351562 C 28.140625 2.351562 32.371094 6.527344 32.382812 11.699219 Z M 32.382812 11.699219 " fill-opacity="1" fill-rule="nonzero"/></g><g clip-path="url(#e08a333d91)"><path fill="#c1ff72" d="M 32.382812 11.640625 C 32.398438 16.820312 28.1875 21.039062 23.011719 21.039062 L 17.902344 21.039062 C 15.691406 21.039062 13.894531 22.835938 13.894531 25.046875 L 13.894531 30.207031 L 9.015625 35.089844 L 9.015625 26.3125 C 9.015625 20.703125 13.558594 16.160156 19.167969 16.160156 L 23.011719 16.160156 C 25.484375 16.160156 27.496094 14.152344 27.507812 11.683594 C 27.515625 9.203125 25.464844 7.171875 22.980469 7.171875 L 13.710938 7.171875 L 8.832031 2.292969 L 22.964844 2.292969 C 28.140625 2.292969 32.371094 6.464844 32.382812 11.640625 Z M 32.382812 11.640625 " fill-opacity="1" fill-rule="nonzero"/></g><g clip-path="url(#ad505f10f8)"><path fill="#00bf63" d="M 32.691406 -2.136719 C 32.703125 -7.339844 28.476562 -11.574219 23.277344 -11.574219 L 18.148438 -11.574219 C 15.925781 -11.574219 14.125 -13.378906 14.125 -15.601562 L 14.125 -20.785156 L 9.222656 -25.683594 L 9.222656 -16.871094 C 9.222656 -11.238281 13.785156 -6.675781 19.417969 -6.675781 L 23.277344 -6.675781 C 25.761719 -6.675781 27.78125 -4.660156 27.792969 -2.179688 C 27.800781 0.3125 25.742188 2.351562 23.25 2.351562 L 13.941406 2.351562 L 9.039062 7.25 L 23.234375 7.25 C 28.429688 7.25 32.675781 3.058594 32.691406 -2.136719 Z M 32.691406 -2.136719 " fill-opacity="1" fill-rule="nonzero"/></g><g clip-path="url(#df0ec73a97)"><path fill="#00bf63" d="M 32.382812 11.699219 C 32.398438 16.878906 28.1875 21.097656 23.011719 21.097656 L 17.902344 21.097656 C 15.691406 21.097656 13.894531 22.894531 13.894531 25.109375 L 13.894531 30.269531 L 9.015625 35.148438 L 9.015625 26.371094 C 9.015625 20.765625 13.558594 16.21875 19.167969 16.21875 L 23.011719 16.21875 C 25.484375 16.21875 27.496094 14.214844 27.507812 11.742188 C 27.515625 9.261719 25.464844 7.230469 22.980469 7.230469 L 13.710938 7.230469 L 8.832031 2.351562 L 22.964844 2.351562 C 28.140625 2.351562 32.371094 6.527344 32.382812 11.699219 Z M 32.382812 11.699219 " fill-opacity="1" fill-rule="nonzero"/></g><g clip-path="url(#4b6b303725)"><path fill="#c1ff72" d="M 25.046875 12.6875 C 24.5 12.902344 24.105469 12.527344 23.867188 11.972656 C 23.628906 11.414062 23.769531 10.832031 24.183594 10.671875 C 24.597656 10.507812 25.125 10.828125 25.363281 11.386719 C 25.601562 11.941406 25.625 12.460938 25.046875 12.6875 Z M 23.367188 12.980469 C 23.367188 12.984375 23.363281 12.984375 23.363281 12.984375 C 23.304688 13.050781 23.226562 13.046875 23.152344 13.011719 C 23.015625 12.953125 22.886719 12.808594 22.886719 12.808594 C 22.886719 12.808594 22.738281 12.976562 22.601562 13.023438 C 22.546875 13.039062 22.492188 13.039062 22.449219 13 C 22.441406 12.988281 22.433594 12.980469 22.425781 12.972656 C 22.195312 12.675781 22.9375 12.117188 22.9375 12.117188 C 22.9375 12.117188 23.5625 12.746094 23.367188 12.980469 Z M 22.085938 11.957031 C 21.847656 12.511719 21.449219 12.882812 20.902344 12.667969 C 20.324219 12.441406 20.347656 11.925781 20.585938 11.367188 C 20.824219 10.8125 21.355469 10.492188 21.769531 10.652344 C 22.183594 10.816406 22.324219 11.398438 22.085938 11.957031 Z M 22.914062 8.660156 C 20.375 8.660156 19.433594 9.949219 19.433594 11.542969 C 19.433594 12.609375 20.132812 13.542969 21.171875 14.042969 L 21.171875 14.046875 C 21.171875 14.640625 21.277344 15.121094 21.632812 15.121094 C 21.851562 15.121094 21.980469 14.917969 22.042969 14.613281 C 22.101562 14.917969 22.226562 15.121094 22.457031 15.121094 C 22.675781 15.121094 22.804688 14.917969 22.867188 14.613281 C 22.925781 14.917969 23.050781 15.121094 23.28125 15.121094 C 23.5 15.121094 23.628906 14.917969 23.691406 14.613281 C 23.75 14.917969 23.875 15.121094 24.105469 15.121094 C 24.433594 15.121094 24.5625 14.660156 24.566406 14.082031 C 25.65625 13.59375 26.394531 12.640625 26.394531 11.542969 C 26.394531 9.949219 25.605469 8.660156 22.914062 8.660156 " fill-opacity="1" fill-rule="nonzero"/></g><g clip-path="url(#fdfd32e640)"><path fill="#00bf63" d="M 25.046875 12.6875 C 24.5 12.902344 24.105469 12.527344 23.867188 11.972656 C 23.628906 11.414062 23.769531 10.832031 24.183594 10.671875 C 24.597656 10.507812 25.125 10.828125 25.363281 11.386719 C 25.601562 11.941406 25.625 12.460938 25.046875 12.6875 Z M 23.367188 12.980469 C 23.367188 12.984375 23.363281 12.984375 23.363281 12.984375 C 23.304688 13.050781 23.226562 13.046875 23.152344 13.011719 C 23.015625 12.953125 22.886719 12.808594 22.886719 12.808594 C 22.886719 12.808594 22.738281 12.976562 22.601562 13.023438 C 22.546875 13.039062 22.492188 13.039062 22.449219 13 C 22.441406 12.988281 22.433594 12.980469 22.425781 12.972656 C 22.195312 12.675781 22.9375 12.117188 22.9375 12.117188 C 22.9375 12.117188 23.5625 12.746094 23.367188 12.980469 Z M 22.085938 11.957031 C 21.847656 12.511719 21.449219 12.882812 20.902344 12.667969 C 20.324219 12.441406 20.347656 11.925781 20.585938 11.367188 C 20.824219 10.8125 21.355469 10.492188 21.769531 10.652344 C 22.183594 10.816406 22.324219 11.398438 22.085938 11.957031 Z M 22.914062 8.660156 C 20.375 8.660156 19.433594 9.949219 19.433594 11.542969 C 19.433594 12.609375 20.132812 13.542969 21.171875 14.042969 L 21.171875 14.046875 C 21.171875 14.640625 21.277344 15.121094 21.632812 15.121094 C 21.851562 15.121094 21.980469 14.917969 22.042969 14.613281 C 22.101562 14.917969 22.226562 15.121094 22.457031 15.121094 C 22.675781 15.121094 22.804688 14.917969 22.867188 14.613281 C 22.925781 14.917969 23.050781 15.121094 23.28125 15.121094 C 23.5 15.121094 23.628906 14.917969 23.691406 14.613281 C 23.75 14.917969 23.875 15.121094 24.105469 15.121094 C 24.433594 15.121094 24.5625 14.660156 24.566406 14.082031 C 25.65625 13.59375 26.394531 12.640625 26.394531 11.542969 C 26.394531 9.949219 25.605469 8.660156 22.914062 8.660156 " fill-opacity="1" fill-rule="nonzero"/></g><g clip-path="url(#15243901bb)"><path fill="#c1ff72" d="M 32.082031 11.890625 C 32.082031 12.175781 32.027344 12.449219 31.917969 12.710938 C 31.8125 12.976562 31.65625 13.207031 31.453125 13.410156 C 31.253906 13.609375 31.019531 13.765625 30.757812 13.875 C 30.496094 13.984375 30.21875 14.039062 29.933594 14.039062 C 29.652344 14.039062 29.375 13.984375 29.113281 13.875 C 28.851562 13.765625 28.617188 13.609375 28.417969 13.410156 C 28.214844 13.207031 28.058594 12.976562 27.953125 12.710938 C 27.84375 12.449219 27.789062 12.175781 27.789062 11.890625 C 27.789062 11.605469 27.84375 11.332031 27.953125 11.066406 C 28.058594 10.804688 28.214844 10.574219 28.417969 10.371094 C 28.617188 10.171875 28.851562 10.015625 29.113281 9.90625 C 29.375 9.796875 29.652344 9.742188 29.933594 9.742188 C 30.21875 9.742188 30.496094 9.796875 30.757812 9.90625 C 31.019531 10.015625 31.253906 10.171875 31.453125 10.371094 C 31.65625 10.574219 31.8125 10.804688 31.917969 11.066406 C 32.027344 11.332031 32.082031 11.605469 32.082031 11.890625 Z M 32.082031 11.890625 " fill-opacity="1" fill-rule="nonzero"/></g><g clip-path="url(#12647ce858)"><path fill="#00bf63" d="M 31.925781 11.910156 C 31.925781 12.175781 31.875 12.429688 31.773438 12.671875 C 31.671875 12.917969 31.53125 13.132812 31.34375 13.320312 C 31.15625 13.507812 30.941406 13.648438 30.699219 13.75 C 30.453125 13.851562 30.199219 13.902344 29.9375 13.902344 C 29.671875 13.902344 29.417969 13.851562 29.175781 13.75 C 28.929688 13.648438 28.714844 13.507812 28.527344 13.320312 C 28.339844 13.132812 28.199219 12.917969 28.097656 12.671875 C 27.996094 12.429688 27.945312 12.175781 27.945312 11.910156 C 27.945312 11.648438 27.996094 11.394531 28.097656 11.148438 C 28.199219 10.90625 28.339844 10.691406 28.527344 10.503906 C 28.714844 10.316406 28.929688 10.175781 29.175781 10.074219 C 29.417969 9.972656 29.671875 9.921875 29.9375 9.921875 C 30.199219 9.921875 30.453125 9.972656 30.699219 10.074219 C 30.941406 10.175781 31.15625 10.316406 31.34375 10.503906 C 31.53125 10.691406 31.671875 10.90625 31.773438 11.148438 C 31.875 11.394531 31.925781 11.648438 31.925781 11.910156 Z M 31.925781 11.910156 " fill-opacity="1" fill-rule="nonzero"/></g><g clip-path="url(#73435204b9)"><path fill="#c1ff72" d="M 30.332031 11.5625 C 30.304688 11.5625 30.285156 11.542969 30.285156 11.515625 C 30.285156 11.515625 30.285156 10.773438 30.285156 10.773438 C 30.285156 10.699219 30.226562 10.640625 30.15625 10.640625 L 29.714844 10.640625 C 29.644531 10.640625 29.585938 10.699219 29.585938 10.773438 L 29.585938 11.515625 C 29.585938 11.542969 29.566406 11.5625 29.542969 11.5625 C 29.542969 11.5625 28.796875 11.5625 28.796875 11.5625 C 28.722656 11.5625 28.664062 11.621094 28.664062 11.691406 L 28.664062 12.132812 C 28.664062 12.203125 28.722656 12.261719 28.796875 12.261719 L 29.542969 12.261719 C 29.566406 12.261719 29.585938 12.28125 29.585938 12.304688 C 29.585938 12.304688 29.585938 13.050781 29.585938 13.050781 C 29.585938 13.125 29.644531 13.183594 29.714844 13.183594 L 30.15625 13.183594 C 30.226562 13.183594 30.285156 13.125 30.285156 13.050781 L 30.285156 12.304688 C 30.285156 12.28125 30.304688 12.261719 30.332031 12.261719 C 30.332031 12.261719 31.074219 12.261719 31.074219 12.261719 C 31.148438 12.261719 31.207031 12.203125 31.207031 12.132812 L 31.207031 11.691406 C 31.207031 11.621094 31.148438 11.5625 31.074219 11.5625 Z M 30.332031 11.5625 " fill-opacity="1" fill-rule="evenodd"/></g><g clip-path="url(#8151c7cecb)"><path fill="#00bf63" d="M 13.0625 19.875 C 13.0625 20.160156 13.007812 20.433594 12.898438 20.695312 C 12.789062 20.960938 12.632812 21.191406 12.433594 21.394531 C 12.230469 21.59375 12 21.75 11.734375 21.859375 C 11.472656 21.96875 11.199219 22.023438 10.914062 22.023438 C 10.628906 22.023438 10.355469 21.96875 10.089844 21.859375 C 9.828125 21.75 9.597656 21.59375 9.394531 21.394531 C 9.191406 21.191406 9.039062 20.960938 8.929688 20.695312 C 8.820312 20.433594 8.765625 20.160156 8.765625 19.875 C 8.765625 19.589844 8.820312 19.316406 8.929688 19.054688 C 9.039062 18.789062 9.191406 18.558594 9.394531 18.355469 C 9.597656 18.15625 9.828125 18 10.089844 17.890625 C 10.355469 17.78125 10.628906 17.726562 10.914062 17.726562 C 11.199219 17.726562 11.472656 17.78125 11.734375 17.890625 C 12 18 12.230469 18.15625 12.433594 18.355469 C 12.632812 18.558594 12.789062 18.789062 12.898438 19.054688 C 13.007812 19.316406 13.0625 19.589844 13.0625 19.875 Z M 13.0625 19.875 " fill-opacity="1" fill-rule="nonzero"/></g><g clip-path="url(#423563529d)"><path fill="#c1ff72" d="M 12.902344 19.875 C 12.902344 20.140625 12.851562 20.394531 12.753906 20.636719 C 12.652344 20.878906 12.507812 21.097656 12.320312 21.28125 C 12.132812 21.46875 11.917969 21.613281 11.675781 21.714844 C 11.429688 21.816406 11.175781 21.867188 10.914062 21.867188 C 10.648438 21.867188 10.394531 21.816406 10.152344 21.714844 C 9.90625 21.613281 9.691406 21.46875 9.503906 21.28125 C 9.320312 21.097656 9.175781 20.878906 9.074219 20.636719 C 8.972656 20.394531 8.921875 20.140625 8.921875 19.875 C 8.921875 19.609375 8.972656 19.355469 9.074219 19.113281 C 9.175781 18.871094 9.320312 18.652344 9.503906 18.46875 C 9.691406 18.28125 9.90625 18.136719 10.152344 18.035156 C 10.394531 17.933594 10.648438 17.882812 10.914062 17.882812 C 11.175781 17.882812 11.429688 17.933594 11.675781 18.035156 C 11.917969 18.136719 12.132812 18.28125 12.320312 18.46875 C 12.507812 18.652344 12.652344 18.871094 12.753906 19.113281 C 12.851562 19.355469 12.902344 19.609375 12.902344 19.875 Z M 12.902344 19.875 " fill-opacity="1" fill-rule="nonzero"/></g><g clip-path="url(#418eeebc42)"><path fill="#00bf63" d="M 12.101562 20.03125 C 12.109375 19.980469 12.113281 19.929688 12.113281 19.875 C 12.113281 19.824219 12.109375 19.769531 12.101562 19.71875 L 12.4375 19.453125 C 12.46875 19.429688 12.476562 19.386719 12.457031 19.351562 L 12.140625 18.796875 C 12.117188 18.765625 12.078125 18.75 12.042969 18.765625 L 11.644531 18.925781 C 11.5625 18.863281 11.46875 18.808594 11.371094 18.765625 L 11.3125 18.34375 C 11.304688 18.304688 11.273438 18.277344 11.234375 18.277344 L 10.59375 18.277344 C 10.554688 18.277344 10.519531 18.304688 10.515625 18.34375 L 10.453125 18.765625 C 10.355469 18.808594 10.265625 18.859375 10.183594 18.925781 L 9.785156 18.765625 C 9.75 18.75 9.707031 18.765625 9.6875 18.796875 L 9.367188 19.351562 C 9.347656 19.386719 9.359375 19.429688 9.386719 19.453125 L 9.726562 19.71875 C 9.71875 19.769531 9.714844 19.824219 9.714844 19.875 C 9.714844 19.929688 9.71875 19.980469 9.726562 20.03125 L 9.386719 20.296875 C 9.359375 20.320312 9.347656 20.363281 9.367188 20.398438 L 9.6875 20.953125 C 9.707031 20.988281 9.75 21 9.785156 20.988281 L 10.183594 20.824219 C 10.265625 20.890625 10.355469 20.941406 10.453125 20.984375 L 10.515625 21.40625 C 10.519531 21.445312 10.554688 21.472656 10.59375 21.472656 L 11.234375 21.472656 C 11.273438 21.472656 11.304688 21.445312 11.3125 21.40625 L 11.371094 20.984375 C 11.46875 20.941406 11.558594 20.890625 11.640625 20.824219 L 12.039062 20.988281 C 12.078125 21 12.117188 20.988281 12.136719 20.953125 L 12.457031 20.398438 C 12.476562 20.363281 12.46875 20.320312 12.4375 20.296875 Z M 10.914062 20.433594 C 10.605469 20.433594 10.355469 20.183594 10.355469 19.875 C 10.355469 19.566406 10.605469 19.316406 10.914062 19.316406 C 11.222656 19.316406 11.472656 19.566406 11.472656 19.875 C 11.472656 20.183594 11.222656 20.433594 10.914062 20.433594 Z M 10.914062 20.433594 " fill-opacity="1" fill-rule="nonzero"/></g></svg>