<svg xmlns="http://www.w3.org/2000/svg" xmlns:xlink="http://www.w3.org/1999/xlink" width="1920" zoomAndPan="magnify" viewBox="0 0 1440 809.999993" height="1080" preserveAspectRatio="xMidYMid meet" version="1.0"><defs><g/><clipPath id="72c18bd1ca"><path d="M 152 405 L 319.71875 405 L 319.71875 531 L 152 531 Z M 152 405 " clip-rule="nonzero"/></clipPath><clipPath id="3942a596e2"><path d="M 36 205.730469 L 303 205.730469 L 303 345 L 36 345 Z M 36 205.730469 " clip-rule="nonzero"/></clipPath><clipPath id="81b7f2e623"><path d="M 800.519531 205.730469 L 1094.519531 205.730469 L 1094.519531 521 L 800.519531 521 Z M 800.519531 205.730469 " clip-rule="nonzero"/></clipPath><clipPath id="ac42a7454b"><path d="M 249.203125 205.730469 L 543.953125 205.730469 L 543.953125 531 L 249.203125 531 Z M 249.203125 205.730469 " clip-rule="nonzero"/></clipPath><clipPath id="ccc4b6afc2"><path d="M 481.738281 205.730469 L 827.488281 205.730469 L 827.488281 531 L 481.738281 531 Z M 481.738281 205.730469 " clip-rule="nonzero"/></clipPath><clipPath id="041dfb7adf"><path d="M 1094.160156 195.066406 L 1430.160156 195.066406 L 1430.160156 531 L 1094.160156 531 Z M 1094.160156 195.066406 " clip-rule="nonzero"/></clipPath></defs><rect x="-144" width="1728" fill="#ffffff" y="-80.999999" height="971.999992" fill-opacity="1"/><rect x="-144" width="1728" fill="#00bf63" y="-80.999999" height="971.999992" fill-opacity="1"/><path fill="#fefefe" d="M 147.140625 518.339844 C 144.808594 512.046875 142.207031 505.777344 138.347656 500.203125 C 134.535156 494.53125 129.949219 489.441406 124.929688 485 C 123.140625 483.441406 121.3125 481.972656 119.464844 480.535156 C 119.449219 480.523438 119.4375 480.5 119.445312 480.472656 C 124.984375 460.277344 121.691406 429.539062 121.269531 425.871094 C 121.261719 425.800781 121.167969 425.808594 121.152344 425.878906 C 118.65625 438.019531 111.042969 438.976562 110.3125 439.039062 C 110.28125 439.042969 110.257812 439.015625 110.257812 438.984375 C 110.847656 405.820312 81.074219 377.742188 81.074219 377.742188 C 64.585938 361.160156 58.292969 339.957031 62.121094 313.496094 C 62.125 313.445312 62.078125 313.410156 62.03125 313.429688 C 27.800781 327.332031 31.800781 370.257812 32.019531 372.351562 C 32.023438 372.398438 31.992188 372.421875 31.945312 372.40625 C 28.335938 371.332031 24.96875 362.433594 24.472656 361.070312 C 24.449219 361.019531 24.371094 361.03125 24.355469 361.085938 C 10 412.964844 44.101562 460.453125 45.554688 462.035156 C 45.578125 462.058594 45.566406 462.082031 45.539062 462.105469 C 39.53125 466.425781 30.234375 461.515625 28.210938 460.355469 C 28.148438 460.316406 28.09375 460.40625 28.144531 460.457031 C 77.007812 510.570312 105.871094 489.988281 109.839844 487.648438 C 109.882812 487.621094 109.871094 487.582031 109.828125 487.558594 C 55.515625 457.941406 53.617188 398.777344 53.589844 391.675781 C 53.589844 391.597656 53.691406 391.585938 53.703125 391.660156 C 54.921875 398.746094 59.246094 409.636719 62.535156 417.273438 C 64.457031 422.140625 66.617188 426.914062 68.933594 431.597656 C 71.886719 437.441406 75.128906 443.128906 78.648438 448.679688 C 82.242188 454.257812 86.59375 459.332031 91.332031 463.96875 C 100.871094 473.214844 111.976562 480.375 121.082031 489.167969 C 125.609375 493.578125 129.550781 498.441406 132.753906 503.738281 C 136.046875 508.996094 138.121094 514.898438 140.003906 520.800781 L 140.085938 521.054688 C 140.101562 521.105469 140.117188 521.15625 140.136719 521.203125 C 140.898438 523.265625 143.269531 524.269531 145.304688 523.3125 C 147.121094 522.460938 147.839844 520.222656 147.140625 518.339844 " fill-opacity="1" fill-rule="nonzero"/><g clip-path="url(#72c18bd1ca)"><path fill="#fefefe" d="M 309.320312 456.457031 L 309.320312 438.601562 C 309.320312 432.210938 311.089844 427.230469 314.644531 423.679688 C 318.214844 420.125 319.984375 416.742188 319.984375 413.546875 C 319.984375 410.351562 319.003906 408.28125 317.046875 407.332031 C 315.09375 406.394531 311.582031 405.921875 306.515625 405.921875 L 224.78125 405.921875 C 216.378906 405.921875 212.175781 409.070312 212.175781 415.386719 C 212.175781 418.898438 213.703125 421.761719 216.734375 423.960938 C 219.789062 426.167969 224.074219 427.257812 229.601562 427.257812 C 231.632812 427.257812 235.066406 427.128906 239.949219 426.828125 C 244.808594 426.539062 248.394531 426.394531 250.722656 426.394531 C 264.082031 426.394531 270.753906 429.933594 270.753906 437.015625 L 270.753906 466.269531 C 270.753906 480.269531 262.898438 490.933594 247.183594 498.214844 C 231.472656 505.527344 214.4375 509.164062 196.105469 509.164062 C 181.15625 509.164062 167.371094 506.910156 154.730469 502.40625 C 153.578125 501.996094 152.511719 503.191406 153.03125 504.300781 C 154.652344 507.753906 156.015625 511.230469 157.265625 514.589844 C 157.898438 516.289062 158.199219 518.042969 158.199219 519.773438 C 158.199219 520.734375 158.109375 521.691406 157.925781 522.625 C 157.4375 525.15625 159.144531 527.589844 161.683594 528.050781 C 172.371094 529.988281 183.457031 530.953125 194.964844 530.953125 C 212.824219 530.953125 231.414062 527.710938 250.722656 521.253906 C 270.035156 514.792969 286.039062 506.996094 298.746094 497.839844 C 311.449219 488.6875 317.808594 481.136719 317.808594 475.191406 C 317.808594 473.007812 316.398438 470.542969 313.5625 467.78125 C 310.730469 465.015625 309.320312 461.246094 309.320312 456.457031 " fill-opacity="1" fill-rule="nonzero"/></g><g clip-path="url(#3942a596e2)"><path fill="#fefefe" d="M 301.476562 281.4375 C 300.742188 277.882812 300.382812 275.234375 300.382812 273.492188 L 300.382812 256.0625 C 300.382812 243.289062 288.183594 231.703125 263.792969 221.328125 C 239.402344 210.941406 212.898438 205.742188 184.289062 205.742188 C 154.804688 205.742188 128.238281 212.753906 104.570312 226.765625 C 80.898438 240.785156 62.421875 260.285156 49.140625 285.246094 C 44.121094 294.683594 40.050781 304.398438 36.933594 314.414062 C 36.484375 315.855469 38.285156 316.90625 39.34375 315.824219 C 44.273438 310.808594 50.410156 306.519531 57.976562 303.433594 C 61.558594 301.96875 65.71875 302.558594 68.753906 304.949219 C 71.804688 307.335938 73.359375 311.234375 72.796875 315.0625 C 71.308594 325.34375 71.542969 334.640625 73.507812 343.035156 C 73.941406 344.890625 76.636719 344.683594 76.824219 342.789062 C 79.871094 311.640625 89.898438 285.777344 106.886719 265.1875 C 127.605469 240.078125 155.179688 227.53125 189.644531 227.53125 C 216.808594 227.53125 238.03125 233.992188 253.300781 246.914062 C 262.019531 254.324219 270.382812 266.296875 278.382812 282.859375 C 282.597656 291.710938 285.792969 297.117188 287.964844 299.089844 C 290.15625 301.046875 292.46875 302.023438 294.949219 302.023438 C 297.261719 302.023438 299.117188 300.976562 300.5 298.859375 C 301.863281 296.761719 302.558594 294.257812 302.558594 291.347656 C 302.558594 288.300781 302.195312 285.003906 301.476562 281.4375 " fill-opacity="1" fill-rule="nonzero"/></g><path fill="#fefefe" d="M 155.457031 399.066406 C 155.4375 399.050781 155.414062 399.082031 155.417969 399.105469 C 159.039062 412.585938 157.09375 423.972656 149.566406 433.585938 C 149.566406 433.585938 135.867188 449.980469 138.222656 467.148438 C 138.21875 467.164062 138.214844 467.175781 138.191406 467.179688 C 137.8125 467.191406 133.804688 467.164062 131.761719 461.015625 C 131.742188 460.988281 131.699219 460.988281 131.699219 461.027344 C 131.703125 462.558594 131.820312 473.046875 133.9375 482.371094 L 133.945312 482.378906 C 134.378906 484.347656 134.917969 486.257812 135.558594 488.015625 C 135.570312 488.050781 135.585938 488.078125 135.597656 488.113281 C 136.179688 489.441406 136.859375 490.648438 137.527344 491.714844 C 141.355469 487.449219 145.8125 483.546875 149.574219 478.925781 C 151.746094 476.226562 153.6875 473.335938 155.199219 470.214844 C 156.691406 467.121094 158.019531 463.972656 159.191406 460.761719 C 160.097656 458.1875 160.917969 455.578125 161.625 452.933594 C 162.859375 448.769531 164.417969 442.855469 164.613281 439.113281 C 164.609375 439.070312 164.667969 439.070312 164.675781 439.109375 C 165.097656 442.796875 167.78125 473.589844 141.445312 492.300781 C 141.425781 492.3125 141.421875 492.332031 141.445312 492.34375 C 143.648438 493.316406 159.882812 502.203125 182.125 473.203125 C 182.144531 473.171875 182.105469 473.132812 182.078125 473.148438 C 181.097656 473.882812 176.589844 476.996094 173.195312 475.128906 C 173.191406 475.121094 173.1875 475.109375 173.191406 475.09375 C 173.847656 474.195312 188.589844 447.464844 177.949219 421.449219 C 177.929688 421.421875 177.886719 421.421875 177.882812 421.453125 C 177.707031 422.175781 176.511719 427 174.710938 427.785156 C 174.691406 427.796875 174.667969 427.785156 174.667969 427.757812 C 174.65625 426.660156 174.074219 404.15625 155.457031 399.066406 " fill-opacity="1" fill-rule="nonzero"/><path fill="#fefefe" d="M 1058.703125 526.167969 C 1059.449219 517.691406 1059.871094 509.101562 1058.476562 500.621094 C 1057.1875 492.054688 1054.703125 483.730469 1051.359375 475.914062 C 1050.160156 473.160156 1048.859375 470.484375 1047.523438 467.839844 C 1047.515625 467.8125 1047.519531 467.78125 1047.535156 467.753906 C 1064.84375 447.625 1077.761719 410.621094 1079.269531 406.191406 C 1079.300781 406.109375 1079.191406 406.066406 1079.136719 406.136719 C 1069.6875 418.695312 1060.441406 415.65625 1059.574219 415.332031 C 1059.535156 415.316406 1059.523438 415.277344 1059.542969 415.234375 C 1078.222656 377.558594 1059.359375 329.238281 1059.359375 329.238281 C 1049.476562 301.289062 1053.777344 273.578125 1072.53125 245.34375 C 1072.566406 245.296875 1072.53125 245.222656 1072.46875 245.222656 C 1025.707031 242.558594 1006.984375 293.90625 1006.09375 296.425781 C 1006.074219 296.484375 1006.019531 296.488281 1005.976562 296.449219 C 1002.425781 293.257812 1003.398438 281.234375 1003.570312 279.40625 C 1003.578125 279.332031 1003.480469 279.304688 1003.429688 279.359375 C 958.816406 330.992188 972.097656 403.914062 972.902344 406.507812 C 972.917969 406.550781 972.890625 406.570312 972.847656 406.578125 C 963.621094 408.265625 955.632812 397.597656 953.949219 395.164062 C 953.898438 395.089844 953.785156 395.164062 953.8125 395.25 C 982.585938 479.183594 1026.824219 471.285156 1032.636719 470.753906 C 1032.703125 470.746094 1032.710938 470.699219 1032.667969 470.644531 C 986.539062 407.226562 1016.488281 338.421875 1020.308594 330.273438 C 1020.347656 330.183594 1020.472656 330.222656 1020.449219 330.316406 C 1018 339.09375 1017.039062 353.914062 1016.65625 364.453125 C 1016.21875 371.070312 1016.097656 377.714844 1016.210938 384.335938 C 1016.421875 392.632812 1017.046875 400.910156 1018.0625 409.179688 C 1019.152344 417.523438 1021.382812 425.699219 1024.289062 433.582031 C 1030.199219 449.351562 1039.035156 463.585938 1044.691406 478.601562 C 1047.480469 486.113281 1049.355469 493.824219 1050.148438 501.628906 C 1051.066406 509.4375 1050.242188 517.328125 1049.191406 525.113281 L 1049.148438 525.449219 C 1049.136719 525.511719 1049.128906 525.578125 1049.125 525.648438 C 1048.875 528.421875 1051.050781 530.859375 1053.902344 530.867188 C 1056.445312 530.875 1058.480469 528.703125 1058.703125 526.167969 " fill-opacity="1" fill-rule="nonzero"/><path fill="#fefefe" d="M 939.320312 495.707031 C 939.308594 495.726562 939.335938 495.746094 939.355469 495.746094 C 950.984375 493.25 960.753906 495.535156 968.9375 502.621094 C 968.9375 502.621094 982.886719 515.472656 997.667969 514.273438 C 997.679688 514.277344 997.695312 514.28125 997.699219 514.304688 C 997.703125 514.636719 997.632812 518.152344 992.328125 519.632812 C 992.304688 519.648438 992.304688 519.683594 992.339844 519.6875 C 993.652344 519.761719 1002.671875 520.191406 1010.707031 518.808594 L 1010.71875 518.804688 C 1012.414062 518.519531 1014.0625 518.144531 1015.582031 517.667969 C 1015.609375 517.660156 1015.636719 517.648438 1015.667969 517.640625 C 1016.816406 517.195312 1017.859375 516.660156 1018.78125 516.128906 C 1015.15625 512.558594 1011.847656 508.445312 1007.914062 504.914062 C 1005.617188 502.871094 1003.152344 501.019531 1000.484375 499.535156 C 997.839844 498.070312 995.148438 496.75 992.402344 495.554688 C 990.199219 494.632812 987.960938 493.777344 985.695312 493.027344 C 982.132812 491.734375 977.066406 490.0625 973.847656 489.703125 C 973.808594 489.703125 973.8125 489.652344 973.84375 489.644531 C 977.019531 489.464844 1003.519531 488.671875 1019.328125 512.722656 C 1019.339844 512.742188 1019.351562 512.746094 1019.363281 512.726562 C 1020.222656 510.839844 1028.035156 497.046875 1003.339844 476.066406 C 1003.3125 476.042969 1003.28125 476.082031 1003.292969 476.105469 C 1003.914062 477.003906 1006.542969 481.117188 1004.902344 483.996094 C 1004.894531 484 1004.886719 484.007812 1004.871094 484.003906 C 1004.105469 483.378906 981.277344 469.089844 958.804688 477.109375 C 958.777344 477.128906 958.777344 477.164062 958.808594 477.167969 C 959.425781 477.359375 963.558594 478.648438 964.214844 480.273438 C 964.222656 480.285156 964.214844 480.308594 964.191406 480.308594 C 963.246094 480.265625 943.894531 479.632812 939.320312 495.707031 " fill-opacity="1" fill-rule="nonzero"/><g clip-path="url(#81b7f2e623)"><path fill="#fefefe" d="M 962.96875 341.671875 L 930.796875 298.769531 C 894.890625 250.890625 873.890625 223.566406 867.765625 216.785156 C 861.644531 210.003906 856.507812 206.617188 852.332031 206.617188 C 849.886719 206.617188 846.894531 207.015625 843.363281 207.816406 C 839.84375 208.605469 836.78125 209.003906 834.195312 209.003906 C 830.730469 209.003906 826.425781 208.605469 821.234375 207.816406 C 816.054688 207.015625 812.804688 206.617188 811.519531 206.617188 C 804.179688 206.617188 800.503906 209.617188 800.503906 215.597656 C 800.503906 218.960938 801.761719 221.449219 804.292969 223.050781 C 806.828125 224.652344 811.761719 225.453125 819.128906 225.453125 C 824.609375 225.453125 829.15625 227.542969 832.777344 231.722656 C 836.382812 235.898438 838.183594 241.507812 838.183594 248.558594 L 838.183594 478.875 C 838.183594 486.214844 836.054688 491.863281 831.804688 495.824219 C 827.539062 499.789062 821.875 501.761719 814.792969 501.761719 C 806.140625 501.761719 801.804688 504.609375 801.804688 510.304688 C 801.804688 517.171875 805.480469 520.601562 812.820312 520.601562 C 815.125 520.601562 820.746094 519.988281 829.671875 518.761719 C 838.613281 517.527344 844.949219 516.914062 848.683594 516.914062 C 851.429688 516.914062 857.394531 517.527344 866.621094 518.761719 C 875.835938 519.988281 882.757812 520.601562 887.367188 520.601562 C 892.113281 520.601562 895.148438 519.875 896.4375 518.414062 C 897.738281 516.941406 898.382812 515.054688 898.382812 512.722656 C 898.382812 505.125 892.601562 501.320312 881.054688 501.320312 C 876.4375 501.320312 871.558594 499.53125 866.4375 495.925781 C 861.316406 492.335938 858.753906 487.511719 858.753906 481.464844 L 858.753906 281.734375 C 858.753906 276.269531 859.84375 273.535156 862.015625 273.535156 C 863.605469 273.535156 865.335938 274.753906 867.222656 277.210938 L 949.210938 385.476562 C 952.753906 383.773438 956.890625 384.1875 960.007812 386.304688 C 959.449219 374.300781 959.792969 358.652344 962.96875 341.671875 Z M 983.152344 403.328125 C 983.183594 403.429688 983.210938 403.542969 983.242188 403.65625 C 983.210938 403.5 983.167969 403.398438 983.152344 403.328125 Z M 1081.175781 207.058594 C 1078 207.058594 1072.847656 207.703125 1065.726562 209.003906 C 1058.585938 210.304688 1052.867188 210.949219 1048.546875 210.949219 C 1045.222656 210.949219 1038.574219 210.089844 1028.558594 208.34375 C 1018.546875 206.617188 1012.683594 205.757812 1010.949219 205.757812 C 1007.632812 205.757812 1004.566406 206.714844 1001.765625 208.644531 C 998.960938 210.578125 997.5625 213.179688 997.5625 216.46875 C 997.5625 219.171875 999.078125 221.390625 1002.109375 223.109375 C 1005.140625 224.828125 1009.105469 225.667969 1014.011719 225.667969 C 1020.363281 225.667969 1025.597656 227.441406 1029.703125 230.976562 C 1033.367188 234.136719 1035.398438 238.214844 1035.800781 243.25 C 1042.652344 239.316406 1050.363281 236.425781 1058.933594 235.136719 C 1060.046875 232.878906 1061.921875 230.878906 1064.582031 229.144531 C 1068.113281 226.828125 1073.636719 225.667969 1081.132812 225.667969 C 1089.800781 225.667969 1094.132812 222.894531 1094.132812 217.328125 C 1094.132812 210.476562 1089.816406 207.058594 1081.175781 207.058594 " fill-opacity="1" fill-rule="nonzero"/></g><g clip-path="url(#ac42a7454b)"><path fill="#fefefe" d="M 340.558594 352.761719 C 326.757812 351.886719 315.378906 363.265625 316.253906 377.070312 C 316.972656 388.449219 326.207031 397.683594 337.585938 398.402344 C 351.386719 399.277344 362.765625 387.898438 361.894531 374.09375 C 361.175781 362.71875 351.941406 353.480469 340.558594 352.761719 Z M 543.914062 516.917969 L 541.9375 530.738281 C 535.523438 530.738281 530.09375 530.246094 523.675781 529.753906 C 487.636719 527.285156 468.386719 517.90625 446.664062 487.300781 C 428.402344 462.121094 410.628906 431.023438 394.832031 405.847656 C 390.261719 398.535156 386.425781 393.972656 381.132812 391.183594 C 377.941406 389.503906 377.046875 385.382812 379.308594 382.574219 C 380.378906 381.25 381.410156 379.90625 382.398438 378.539062 C 387.09375 372.078125 393.570312 367.132812 400.925781 364.011719 C 405.828125 361.933594 410.160156 359.289062 414.085938 355.988281 C 433.335938 341.671875 441.234375 321.925781 441.234375 295.269531 C 441.234375 242.453125 406.1875 223.195312 368.175781 223.195312 C 353.859375 223.195312 260.011719 222.9375 249.207031 222.625 L 249.207031 205.921875 L 375.085938 205.921875 C 411.121094 205.921875 435.3125 210.359375 454.070312 222.703125 C 474.308594 235.539062 487.636719 257.753906 487.636719 287.863281 C 487.636719 330.316406 460.488281 356.976562 423.957031 372.773438 C 432.84375 388.074219 454.070312 421.152344 468.878906 443.363281 C 487.144531 469.527344 496.523438 481.871094 507.878906 494.207031 C 521.207031 508.527344 532.5625 513.957031 543.914062 516.917969 " fill-opacity="1" fill-rule="nonzero"/></g><g clip-path="url(#ccc4b6afc2)"><path fill="#fefefe" d="M 527.320312 488.191406 C 527.320312 500.734375 517.152344 510.902344 504.613281 510.902344 C 492.070312 510.902344 481.902344 500.734375 481.902344 488.191406 C 481.902344 475.652344 492.070312 465.484375 504.613281 465.484375 C 517.152344 465.484375 527.320312 475.652344 527.320312 488.191406 Z M 814.769531 252.574219 C 814.769531 265.117188 804.601562 275.285156 792.0625 275.285156 C 779.519531 275.285156 769.351562 265.117188 769.351562 252.574219 C 769.351562 240.035156 779.519531 229.863281 792.0625 229.863281 C 804.601562 229.863281 814.769531 240.035156 814.769531 252.574219 Z M 767.722656 462.925781 C 760.300781 473.984375 750.917969 483.605469 739.839844 491.519531 C 729.046875 499.222656 717.691406 503.132812 706.078125 503.132812 C 699.527344 503.132812 693.753906 501.792969 688.921875 499.15625 C 683.40625 496.152344 682.773438 492.589844 682.773438 490.171875 C 682.773438 488.382812 684.273438 483.128906 698.203125 473.042969 C 709.234375 465.050781 723.144531 457.570312 739.554688 450.8125 C 753.765625 444.960938 767.511719 441.003906 780.5 439.027344 C 777.894531 446.144531 773.609375 454.15625 767.722656 462.925781 Z M 541.261719 273.734375 C 548.683594 262.675781 558.066406 253.054688 569.140625 245.140625 C 579.933594 237.4375 591.292969 233.53125 602.90625 233.53125 C 609.457031 233.53125 615.230469 234.867188 620.0625 237.503906 C 625.574219 240.507812 626.210938 244.070312 626.210938 246.488281 C 626.210938 248.277344 624.707031 253.53125 610.78125 263.617188 C 599.75 271.609375 585.839844 279.089844 569.429688 285.847656 C 555.21875 291.699219 541.472656 295.65625 528.480469 297.632812 C 531.089844 290.515625 535.371094 282.503906 541.261719 273.734375 Z M 804.757812 302.105469 C 789.976562 288.351562 771.367188 281.378906 749.441406 281.378906 C 722.910156 281.378906 700.21875 290.359375 681.992188 308.078125 C 664.144531 325.425781 650.601562 344.566406 641.734375 364.972656 C 639.023438 371.214844 636.855469 376.484375 635.121094 380.960938 C 631.324219 386.074219 627.355469 391.015625 623.207031 395.765625 C 608.265625 412.886719 588.503906 421.566406 564.46875 421.566406 C 548.726562 421.566406 537.015625 416.84375 528.667969 407.121094 C 520.285156 397.375 516.035156 383.285156 516.035156 365.246094 C 516.035156 351.941406 517.777344 338.15625 521.222656 324.230469 C 542.554688 320.554688 563.53125 314.65625 583.609375 306.6875 C 604.566406 298.378906 621.90625 288.554688 635.15625 277.492188 C 648.976562 265.941406 655.984375 253.6875 655.984375 241.066406 C 655.984375 229.558594 651.171875 220.609375 641.683594 214.46875 C 632.71875 208.667969 621.664062 205.726562 608.820312 205.726562 C 587.628906 205.726562 566.914062 214.070312 547.25 230.515625 C 527.855469 246.734375 511.933594 267.894531 499.929688 293.410156 C 487.917969 318.933594 481.828125 345.09375 481.828125 371.160156 C 481.828125 399.40625 489.363281 420.734375 504.226562 434.554688 C 519.003906 448.308594 537.617188 455.28125 559.542969 455.28125 C 586.070312 455.28125 608.761719 446.300781 626.992188 428.582031 C 644.835938 411.234375 658.382812 392.09375 667.25 371.6875 C 669.957031 365.445312 672.128906 360.175781 673.859375 355.699219 C 677.660156 350.585938 681.628906 345.644531 685.777344 340.894531 C 700.71875 323.773438 720.480469 315.09375 744.511719 315.09375 C 760.257812 315.09375 771.96875 319.816406 780.316406 329.539062 C 788.699219 339.285156 792.949219 353.375 792.949219 371.414062 C 792.949219 384.71875 791.207031 398.503906 787.761719 412.429688 C 766.425781 416.105469 745.453125 422.003906 725.375 429.972656 C 704.417969 438.28125 687.078125 448.105469 673.828125 459.167969 C 660.007812 470.71875 653 482.972656 653 495.59375 C 653 507.101562 657.8125 516.050781 667.300781 522.191406 C 676.261719 527.992188 687.320312 530.933594 700.160156 530.933594 C 721.351562 530.933594 742.070312 522.589844 761.730469 506.144531 C 781.125 489.925781 797.046875 468.765625 809.054688 443.25 C 821.066406 417.726562 827.15625 391.566406 827.15625 365.5 C 827.15625 337.253906 819.621094 315.925781 804.757812 302.105469 " fill-opacity="1" fill-rule="nonzero"/></g><g clip-path="url(#041dfb7adf)"><path fill="#fefefe" d="M 1421.460938 374.539062 C 1421.730469 370.730469 1421.878906 366.882812 1421.878906 363.003906 C 1421.878906 336.378906 1415.324219 311.261719 1403.757812 289.160156 L 1323.304688 243.707031 L 1219.625 300.449219 C 1219.003906 300.789062 1218.332031 300.949219 1217.667969 300.949219 C 1216.230469 300.949219 1214.832031 300.183594 1214.089844 298.832031 C 1213.011719 296.855469 1213.734375 294.378906 1215.710938 293.296875 L 1244.804688 277.375 L 1226.609375 259.265625 L 1155.386719 300.542969 L 1158.527344 303.394531 L 1153.046875 309.429688 L 1143.769531 301.003906 L 1143.769531 307.398438 L 1158.527344 320.796875 L 1153.046875 326.832031 L 1143.769531 318.410156 L 1143.769531 324.800781 L 1158.527344 338.203125 L 1153.046875 344.238281 L 1143.769531 335.808594 L 1143.769531 342.203125 L 1158.527344 355.601562 L 1153.046875 361.640625 L 1143.769531 353.214844 L 1143.769531 379.585938 C 1155.308594 382.523438 1166.480469 386.71875 1177.105469 392.101562 L 1177.105469 367.015625 L 1167.824219 375.441406 L 1162.347656 369.40625 L 1177.105469 356.007812 L 1177.105469 349.613281 L 1167.824219 358.042969 L 1162.347656 352.007812 L 1177.105469 338.605469 L 1177.105469 332.210938 L 1167.824219 340.636719 L 1162.347656 334.601562 L 1178.445312 319.988281 C 1179.996094 318.578125 1182.371094 318.578125 1183.921875 319.988281 L 1200.019531 334.601562 L 1194.539062 340.636719 L 1185.257812 332.210938 L 1185.257812 338.605469 L 1200.019531 352.007812 L 1194.539062 358.042969 L 1185.257812 349.613281 L 1185.257812 356.007812 L 1200.019531 369.40625 L 1194.539062 375.441406 L 1185.257812 367.015625 L 1185.257812 396.523438 C 1193.199219 401.136719 1200.78125 406.441406 1207.933594 412.40625 L 1207.933594 365.046875 L 1262.09375 338.289062 L 1316.257812 365.046875 L 1316.257812 412.40625 C 1321.261719 408.230469 1326.480469 404.394531 1331.882812 400.882812 C 1328.265625 399.507812 1325.539062 396.195312 1325.128906 392.085938 C 1324.683594 387.628906 1327.097656 383.554688 1330.867188 381.648438 C 1335.011719 378.507812 1340.910156 374.722656 1340.910156 374.722656 L 1345.433594 379.890625 L 1350.1875 377.410156 L 1346.359375 370.917969 L 1350.253906 368.277344 L 1345.753906 359.363281 L 1349.507812 357.355469 L 1354.582031 366.023438 L 1359.359375 363.820312 L 1360.734375 366.253906 C 1361.667969 365.867188 1362.671875 365.605469 1363.726562 365.5 C 1369.515625 364.921875 1374.671875 369.148438 1375.246094 374.933594 C 1375.484375 377.3125 1374.890625 379.5625 1373.730469 381.457031 C 1375.589844 380.894531 1377.453125 380.359375 1379.332031 379.867188 L 1379.332031 354.832031 L 1370.050781 363.253906 L 1364.570312 357.21875 L 1379.332031 343.816406 L 1379.332031 337.425781 L 1370.050781 345.851562 L 1364.570312 339.816406 L 1379.332031 326.417969 L 1379.332031 320.023438 L 1370.050781 328.449219 L 1364.570312 322.410156 L 1379.332031 309.015625 L 1379.332031 302.617188 L 1370.050781 311.046875 L 1364.570312 305.011719 L 1380.667969 290.398438 C 1382.222656 288.984375 1384.59375 288.984375 1386.144531 290.398438 L 1402.242188 305.011719 L 1396.761719 311.046875 L 1387.484375 302.617188 L 1387.484375 309.015625 L 1402.242188 322.410156 L 1396.761719 328.449219 L 1387.484375 320.023438 L 1387.484375 326.417969 L 1402.242188 339.816406 L 1396.761719 345.851562 L 1387.484375 337.425781 L 1387.484375 343.816406 L 1402.242188 357.21875 L 1396.761719 363.253906 L 1387.484375 354.832031 L 1387.484375 377.957031 C 1398.5625 375.65625 1409.9375 374.496094 1421.460938 374.539062 Z M 1419.4375 382.6875 C 1381.410156 383.011719 1345.121094 397.136719 1316.800781 422.714844 C 1288.492188 448.285156 1270.769531 482.953125 1266.582031 520.742188 C 1304.59375 520.4375 1340.886719 506.324219 1369.210938 480.742188 C 1397.546875 455.148438 1415.273438 420.472656 1419.4375 382.6875 Z M 1262.09375 499.300781 C 1269.425781 469.003906 1285.265625 441.429688 1308.105469 419.667969 L 1308.105469 370.113281 L 1262.09375 347.378906 L 1216.082031 370.113281 L 1216.082031 419.667969 C 1238.925781 441.429688 1254.765625 469.003906 1262.09375 499.300781 Z M 1257.609375 520.742188 C 1253.425781 482.953125 1235.699219 448.285156 1207.390625 422.714844 C 1179.070312 397.136719 1142.777344 383.015625 1104.753906 382.6875 C 1108.917969 420.472656 1126.644531 455.148438 1154.976562 480.742188 C 1183.304688 506.324219 1219.601562 520.433594 1257.609375 520.742188 Z M 1102.730469 374.539062 C 1113.871094 374.496094 1124.878906 375.574219 1135.613281 377.730469 L 1135.613281 353.214844 L 1126.335938 361.640625 L 1120.855469 355.601562 L 1135.613281 342.203125 L 1135.613281 335.808594 L 1126.335938 344.238281 L 1120.855469 338.203125 L 1135.613281 324.800781 L 1135.613281 318.410156 L 1126.335938 326.832031 L 1120.855469 320.796875 L 1135.613281 307.398438 L 1135.613281 301.003906 L 1126.335938 309.429688 L 1120.855469 303.394531 L 1136.953125 288.78125 C 1138.503906 287.371094 1140.878906 287.371094 1142.429688 288.78125 L 1149.050781 294.792969 L 1225.226562 250.644531 C 1226.820312 249.71875 1228.839844 249.980469 1230.148438 251.28125 L 1252.257812 273.292969 L 1321.375 235.46875 C 1322.617188 234.792969 1324.113281 234.804688 1325.339844 235.496094 L 1395.460938 275.113281 C 1366.847656 231.832031 1317.753906 203.21875 1262.09375 203.21875 C 1173.992188 203.21875 1102.3125 274.898438 1102.3125 363.003906 C 1102.3125 366.882812 1102.460938 370.726562 1102.730469 374.539062 Z M 1430.03125 363.003906 C 1430.03125 455.601562 1354.695312 530.9375 1262.09375 530.9375 C 1169.496094 530.9375 1094.160156 455.601562 1094.160156 363.003906 C 1094.160156 270.402344 1169.496094 195.066406 1262.09375 195.066406 C 1326.046875 195.066406 1381.761719 231.003906 1410.113281 283.742188 C 1410.402344 284.113281 1410.609375 284.527344 1410.757812 284.960938 C 1423.054688 308.292969 1430.03125 334.847656 1430.03125 363.003906 Z M 1263.730469 386.53125 L 1274.285156 386.53125 L 1274.285156 375.976562 L 1263.730469 375.976562 Z M 1249.90625 386.53125 L 1260.457031 386.53125 L 1260.457031 375.976562 L 1249.90625 375.976562 Z M 1263.730469 373.554688 L 1274.285156 373.554688 L 1274.285156 363.003906 L 1263.730469 363.003906 Z M 1249.90625 363.003906 L 1260.457031 363.003906 L 1260.457031 373.554688 L 1249.90625 373.554688 L 1249.90625 363.003906 " fill-opacity="1" fill-rule="nonzero"/></g><g fill="#c1ff72" fill-opacity="1"><g transform="translate(31.637913, 597.181083)"><g><path d="M 37 -33.640625 C 36.113281 -35.273438 34.835938 -36.523438 33.171875 -37.390625 C 31.515625 -38.253906 29.566406 -38.6875 27.328125 -38.6875 C 23.453125 -38.6875 20.34375 -37.410156 18 -34.859375 C 15.664062 -32.316406 14.5 -28.921875 14.5 -24.671875 C 14.5 -20.140625 15.722656 -16.597656 18.171875 -14.046875 C 20.628906 -11.503906 24.007812 -10.234375 28.3125 -10.234375 C 31.25 -10.234375 33.734375 -10.976562 35.765625 -12.46875 C 37.804688 -13.96875 39.289062 -16.117188 40.21875 -18.921875 L 25.015625 -18.921875 L 25.015625 -27.75 L 51.09375 -27.75 L 51.09375 -16.609375 C 50.195312 -13.617188 48.6875 -10.835938 46.5625 -8.265625 C 44.4375 -5.703125 41.738281 -3.625 38.46875 -2.03125 C 35.195312 -0.445312 31.507812 0.34375 27.40625 0.34375 C 22.539062 0.34375 18.203125 -0.71875 14.390625 -2.84375 C 10.585938 -4.96875 7.625 -7.921875 5.5 -11.703125 C 3.375 -15.484375 2.3125 -19.804688 2.3125 -24.671875 C 2.3125 -29.523438 3.375 -33.851562 5.5 -37.65625 C 7.625 -41.46875 10.578125 -44.4375 14.359375 -46.5625 C 18.148438 -48.6875 22.472656 -49.75 27.328125 -49.75 C 33.210938 -49.75 38.175781 -48.320312 42.21875 -45.46875 C 46.257812 -42.625 48.9375 -38.679688 50.25 -33.640625 Z M 37 -33.640625 "/></g></g></g><g fill="#c1ff72" fill-opacity="1"><g transform="translate(96.039714, 597.181083)"><g><path d="M 29.4375 0 L 19.203125 -18.578125 L 16.328125 -18.578125 L 16.328125 0 L 4.34375 0 L 4.34375 -49.1875 L 24.453125 -49.1875 C 28.335938 -49.1875 31.644531 -48.507812 34.375 -47.15625 C 37.101562 -45.800781 39.144531 -43.941406 40.5 -41.578125 C 41.851562 -39.222656 42.53125 -36.597656 42.53125 -33.703125 C 42.53125 -30.429688 41.609375 -27.507812 39.765625 -24.9375 C 37.921875 -22.375 35.203125 -20.554688 31.609375 -19.484375 L 42.953125 0 Z M 16.328125 -27.046875 L 23.75 -27.046875 C 25.945312 -27.046875 27.59375 -27.582031 28.6875 -28.65625 C 29.789062 -29.738281 30.34375 -31.257812 30.34375 -33.21875 C 30.34375 -35.082031 29.789062 -36.550781 28.6875 -37.625 C 27.59375 -38.707031 25.945312 -39.25 23.75 -39.25 L 16.328125 -39.25 Z M 16.328125 -27.046875 "/></g></g></g><g fill="#c1ff72" fill-opacity="1"><g transform="translate(152.733194, 597.181083)"><g><path d="M 16.328125 -39.59375 L 16.328125 -29.640625 L 32.375 -29.640625 L 32.375 -20.390625 L 16.328125 -20.390625 L 16.328125 -9.59375 L 34.484375 -9.59375 L 34.484375 0 L 4.34375 0 L 4.34375 -49.1875 L 34.484375 -49.1875 L 34.484375 -39.59375 Z M 16.328125 -39.59375 "/></g></g></g><g fill="#c1ff72" fill-opacity="1"><g transform="translate(201.648282, 597.181083)"><g><path d="M 16.328125 -39.59375 L 16.328125 -29.640625 L 32.375 -29.640625 L 32.375 -20.390625 L 16.328125 -20.390625 L 16.328125 -9.59375 L 34.484375 -9.59375 L 34.484375 0 L 4.34375 0 L 4.34375 -49.1875 L 34.484375 -49.1875 L 34.484375 -39.59375 Z M 16.328125 -39.59375 "/></g></g></g><g fill="#c1ff72" fill-opacity="1"><g transform="translate(250.563376, 597.181083)"><g><path d="M 48.359375 0 L 36.375 0 L 16.328125 -30.34375 L 16.328125 0 L 4.34375 0 L 4.34375 -49.1875 L 16.328125 -49.1875 L 36.375 -18.703125 L 36.375 -49.1875 L 48.359375 -49.1875 Z M 48.359375 0 "/></g></g></g><g fill="#c1ff72" fill-opacity="1"><g transform="translate(314.264428, 597.181083)"><g><path d="M 41.84375 -33.359375 C 41.84375 -30.503906 41.1875 -27.894531 39.875 -25.53125 C 38.5625 -23.175781 36.550781 -21.273438 33.84375 -19.828125 C 31.132812 -18.378906 27.769531 -17.65625 23.75 -17.65625 L 16.328125 -17.65625 L 16.328125 0 L 4.34375 0 L 4.34375 -49.1875 L 23.75 -49.1875 C 27.675781 -49.1875 30.992188 -48.507812 33.703125 -47.15625 C 36.410156 -45.800781 38.441406 -43.929688 39.796875 -41.546875 C 41.160156 -39.171875 41.84375 -36.441406 41.84375 -33.359375 Z M 22.84375 -27.1875 C 25.132812 -27.1875 26.835938 -27.722656 27.953125 -28.796875 C 29.078125 -29.867188 29.640625 -31.390625 29.640625 -33.359375 C 29.640625 -35.316406 29.078125 -36.832031 27.953125 -37.90625 C 26.835938 -38.988281 25.132812 -39.53125 22.84375 -39.53125 L 16.328125 -39.53125 L 16.328125 -27.1875 Z M 22.84375 -27.1875 "/></g></g></g><g fill="#c1ff72" fill-opacity="1"><g transform="translate(368.995782, 597.181083)"><g><path d="M 34.96875 -8.6875 L 16.609375 -8.6875 L 13.671875 0 L 1.125 0 L 18.921875 -49.1875 L 32.796875 -49.1875 L 50.59375 0 L 37.90625 0 Z M 31.890625 -17.9375 L 25.78125 -35.953125 L 19.765625 -17.9375 Z M 31.890625 -17.9375 "/></g></g></g><g fill="#c1ff72" fill-opacity="1"><g transform="translate(431.645682, 597.181083)"><g><path d="M 29.4375 0 L 19.203125 -18.578125 L 16.328125 -18.578125 L 16.328125 0 L 4.34375 0 L 4.34375 -49.1875 L 24.453125 -49.1875 C 28.335938 -49.1875 31.644531 -48.507812 34.375 -47.15625 C 37.101562 -45.800781 39.144531 -43.941406 40.5 -41.578125 C 41.851562 -39.222656 42.53125 -36.597656 42.53125 -33.703125 C 42.53125 -30.429688 41.609375 -27.507812 39.765625 -24.9375 C 37.921875 -22.375 35.203125 -20.554688 31.609375 -19.484375 L 42.953125 0 Z M 16.328125 -27.046875 L 23.75 -27.046875 C 25.945312 -27.046875 27.59375 -27.582031 28.6875 -28.65625 C 29.789062 -29.738281 30.34375 -31.257812 30.34375 -33.21875 C 30.34375 -35.082031 29.789062 -36.550781 28.6875 -37.625 C 27.59375 -38.707031 25.945312 -39.25 23.75 -39.25 L 16.328125 -39.25 Z M 16.328125 -27.046875 "/></g></g></g><g fill="#c1ff72" fill-opacity="1"><g transform="translate(488.339166, 597.181083)"><g><path d="M 32.859375 0 L 16.328125 -21.71875 L 16.328125 0 L 4.34375 0 L 4.34375 -49.1875 L 16.328125 -49.1875 L 16.328125 -27.609375 L 32.71875 -49.1875 L 46.8125 -49.1875 L 27.75 -25.09375 L 47.515625 0 Z M 32.859375 0 "/></g></g></g><g fill="#c1ff72" fill-opacity="1"><g transform="translate(548.186058, 597.181083)"><g/></g></g><g fill="#c1ff72" fill-opacity="1"><g transform="translate(574.046236, 597.181083)"><g><path d="M 60.0625 -49.1875 L 60.0625 0 L 48.078125 0 L 48.078125 -29.5 L 37.078125 0 L 27.40625 0 L 16.328125 -29.578125 L 16.328125 0 L 4.34375 0 L 4.34375 -49.1875 L 18.5 -49.1875 L 32.3125 -15.140625 L 45.96875 -49.1875 Z M 60.0625 -49.1875 "/></g></g></g><g fill="#c1ff72" fill-opacity="1"><g transform="translate(649.379852, 597.181083)"><g><path d="M 16.328125 -39.59375 L 16.328125 -29.640625 L 32.375 -29.640625 L 32.375 -20.390625 L 16.328125 -20.390625 L 16.328125 -9.59375 L 34.484375 -9.59375 L 34.484375 0 L 4.34375 0 L 4.34375 -49.1875 L 34.484375 -49.1875 L 34.484375 -39.59375 Z M 16.328125 -39.59375 "/></g></g></g><g fill="#c1ff72" fill-opacity="1"><g transform="translate(698.294932, 597.181083)"><g><path d="M 60.0625 -49.1875 L 60.0625 0 L 48.078125 0 L 48.078125 -29.5 L 37.078125 0 L 27.40625 0 L 16.328125 -29.578125 L 16.328125 0 L 4.34375 0 L 4.34375 -49.1875 L 18.5 -49.1875 L 32.3125 -15.140625 L 45.96875 -49.1875 Z M 60.0625 -49.1875 "/></g></g></g><g fill="#c1ff72" fill-opacity="1"><g transform="translate(773.628549, 597.181083)"><g><path d="M 27.609375 0.484375 C 22.984375 0.484375 18.742188 -0.585938 14.890625 -2.734375 C 11.035156 -4.878906 7.972656 -7.878906 5.703125 -11.734375 C 3.441406 -15.585938 2.3125 -19.921875 2.3125 -24.734375 C 2.3125 -29.546875 3.441406 -33.867188 5.703125 -37.703125 C 7.972656 -41.535156 11.035156 -44.523438 14.890625 -46.671875 C 18.742188 -48.816406 22.984375 -49.890625 27.609375 -49.890625 C 32.234375 -49.890625 36.472656 -48.816406 40.328125 -46.671875 C 44.179688 -44.523438 47.21875 -41.535156 49.4375 -37.703125 C 51.65625 -33.867188 52.765625 -29.546875 52.765625 -24.734375 C 52.765625 -19.921875 51.644531 -15.585938 49.40625 -11.734375 C 47.164062 -7.878906 44.128906 -4.878906 40.296875 -2.734375 C 36.460938 -0.585938 32.234375 0.484375 27.609375 0.484375 Z M 27.609375 -10.4375 C 31.535156 -10.4375 34.675781 -11.742188 37.03125 -14.359375 C 39.394531 -16.984375 40.578125 -20.441406 40.578125 -24.734375 C 40.578125 -29.078125 39.394531 -32.546875 37.03125 -35.140625 C 34.675781 -37.734375 31.535156 -39.03125 27.609375 -39.03125 C 23.640625 -39.03125 20.472656 -37.742188 18.109375 -35.171875 C 15.753906 -32.609375 14.578125 -29.128906 14.578125 -24.734375 C 14.578125 -20.390625 15.753906 -16.921875 18.109375 -14.328125 C 20.472656 -11.734375 23.640625 -10.4375 27.609375 -10.4375 Z M 27.609375 -10.4375 "/></g></g></g><g fill="#c1ff72" fill-opacity="1"><g transform="translate(839.712169, 597.181083)"><g><path d="M 29.4375 0 L 19.203125 -18.578125 L 16.328125 -18.578125 L 16.328125 0 L 4.34375 0 L 4.34375 -49.1875 L 24.453125 -49.1875 C 28.335938 -49.1875 31.644531 -48.507812 34.375 -47.15625 C 37.101562 -45.800781 39.144531 -43.941406 40.5 -41.578125 C 41.851562 -39.222656 42.53125 -36.597656 42.53125 -33.703125 C 42.53125 -30.429688 41.609375 -27.507812 39.765625 -24.9375 C 37.921875 -22.375 35.203125 -20.554688 31.609375 -19.484375 L 42.953125 0 Z M 16.328125 -27.046875 L 23.75 -27.046875 C 25.945312 -27.046875 27.59375 -27.582031 28.6875 -28.65625 C 29.789062 -29.738281 30.34375 -31.257812 30.34375 -33.21875 C 30.34375 -35.082031 29.789062 -36.550781 28.6875 -37.625 C 27.59375 -38.707031 25.945312 -39.25 23.75 -39.25 L 16.328125 -39.25 Z M 16.328125 -27.046875 "/></g></g></g><g fill="#c1ff72" fill-opacity="1"><g transform="translate(896.405623, 597.181083)"><g><path d="M 16.328125 -49.1875 L 16.328125 0 L 4.34375 0 L 4.34375 -49.1875 Z M 16.328125 -49.1875 "/></g></g></g><g fill="#c1ff72" fill-opacity="1"><g transform="translate(928.082075, 597.181083)"><g><path d="M 34.96875 -8.6875 L 16.609375 -8.6875 L 13.671875 0 L 1.125 0 L 18.921875 -49.1875 L 32.796875 -49.1875 L 50.59375 0 L 37.90625 0 Z M 31.890625 -17.9375 L 25.78125 -35.953125 L 19.765625 -17.9375 Z M 31.890625 -17.9375 "/></g></g></g><g fill="#c1ff72" fill-opacity="1"><g transform="translate(990.731975, 597.181083)"><g><path d="M 16.328125 -9.25 L 32.03125 -9.25 L 32.03125 0 L 4.34375 0 L 4.34375 -49.1875 L 16.328125 -49.1875 Z M 16.328125 -9.25 "/></g></g></g><g fill="#c1ff72" fill-opacity="1"><g transform="translate(1035.162229, 597.181083)"><g/></g></g><g fill="#c1ff72" fill-opacity="1"><g transform="translate(1061.022406, 597.181083)"><g><path d="M 37 -33.640625 C 36.113281 -35.273438 34.835938 -36.523438 33.171875 -37.390625 C 31.515625 -38.253906 29.566406 -38.6875 27.328125 -38.6875 C 23.453125 -38.6875 20.34375 -37.410156 18 -34.859375 C 15.664062 -32.316406 14.5 -28.921875 14.5 -24.671875 C 14.5 -20.140625 15.722656 -16.597656 18.171875 -14.046875 C 20.628906 -11.503906 24.007812 -10.234375 28.3125 -10.234375 C 31.25 -10.234375 33.734375 -10.976562 35.765625 -12.46875 C 37.804688 -13.96875 39.289062 -16.117188 40.21875 -18.921875 L 25.015625 -18.921875 L 25.015625 -27.75 L 51.09375 -27.75 L 51.09375 -16.609375 C 50.195312 -13.617188 48.6875 -10.835938 46.5625 -8.265625 C 44.4375 -5.703125 41.738281 -3.625 38.46875 -2.03125 C 35.195312 -0.445312 31.507812 0.34375 27.40625 0.34375 C 22.539062 0.34375 18.203125 -0.71875 14.390625 -2.84375 C 10.585938 -4.96875 7.625 -7.921875 5.5 -11.703125 C 3.375 -15.484375 2.3125 -19.804688 2.3125 -24.671875 C 2.3125 -29.523438 3.375 -33.851562 5.5 -37.65625 C 7.625 -41.46875 10.578125 -44.4375 14.359375 -46.5625 C 18.148438 -48.6875 22.472656 -49.75 27.328125 -49.75 C 33.210938 -49.75 38.175781 -48.320312 42.21875 -45.46875 C 46.257812 -42.625 48.9375 -38.679688 50.25 -33.640625 Z M 37 -33.640625 "/></g></g></g><g fill="#c1ff72" fill-opacity="1"><g transform="translate(1125.424209, 597.181083)"><g><path d="M 34.96875 -8.6875 L 16.609375 -8.6875 L 13.671875 0 L 1.125 0 L 18.921875 -49.1875 L 32.796875 -49.1875 L 50.59375 0 L 37.90625 0 Z M 31.890625 -17.9375 L 25.78125 -35.953125 L 19.765625 -17.9375 Z M 31.890625 -17.9375 "/></g></g></g><g fill="#c1ff72" fill-opacity="1"><g transform="translate(1188.074109, 597.181083)"><g><path d="M 29.4375 0 L 19.203125 -18.578125 L 16.328125 -18.578125 L 16.328125 0 L 4.34375 0 L 4.34375 -49.1875 L 24.453125 -49.1875 C 28.335938 -49.1875 31.644531 -48.507812 34.375 -47.15625 C 37.101562 -45.800781 39.144531 -43.941406 40.5 -41.578125 C 41.851562 -39.222656 42.53125 -36.597656 42.53125 -33.703125 C 42.53125 -30.429688 41.609375 -27.507812 39.765625 -24.9375 C 37.921875 -22.375 35.203125 -20.554688 31.609375 -19.484375 L 42.953125 0 Z M 16.328125 -27.046875 L 23.75 -27.046875 C 25.945312 -27.046875 27.59375 -27.582031 28.6875 -28.65625 C 29.789062 -29.738281 30.34375 -31.257812 30.34375 -33.21875 C 30.34375 -35.082031 29.789062 -36.550781 28.6875 -37.625 C 27.59375 -38.707031 25.945312 -39.25 23.75 -39.25 L 16.328125 -39.25 Z M 16.328125 -27.046875 "/></g></g></g><g fill="#c1ff72" fill-opacity="1"><g transform="translate(1244.767626, 597.181083)"><g><path d="M 22.78125 -49.1875 C 27.957031 -49.1875 32.484375 -48.160156 36.359375 -46.109375 C 40.242188 -44.054688 43.25 -41.171875 45.375 -37.453125 C 47.5 -33.742188 48.5625 -29.457031 48.5625 -24.59375 C 48.5625 -19.78125 47.5 -15.503906 45.375 -11.765625 C 43.25 -8.035156 40.234375 -5.140625 36.328125 -3.078125 C 32.429688 -1.023438 27.914062 0 22.78125 0 L 4.34375 0 L 4.34375 -49.1875 Z M 22 -10.375 C 26.53125 -10.375 30.054688 -11.609375 32.578125 -14.078125 C 35.109375 -16.554688 36.375 -20.0625 36.375 -24.59375 C 36.375 -29.125 35.109375 -32.648438 32.578125 -35.171875 C 30.054688 -37.703125 26.53125 -38.96875 22 -38.96875 L 16.328125 -38.96875 L 16.328125 -10.375 Z M 22 -10.375 "/></g></g></g><g fill="#c1ff72" fill-opacity="1"><g transform="translate(1306.71679, 597.181083)"><g><path d="M 16.328125 -39.59375 L 16.328125 -29.640625 L 32.375 -29.640625 L 32.375 -20.390625 L 16.328125 -20.390625 L 16.328125 -9.59375 L 34.484375 -9.59375 L 34.484375 0 L 4.34375 0 L 4.34375 -49.1875 L 34.484375 -49.1875 L 34.484375 -39.59375 Z M 16.328125 -39.59375 "/></g></g></g><g fill="#c1ff72" fill-opacity="1"><g transform="translate(1355.631932, 597.181083)"><g><path d="M 48.359375 0 L 36.375 0 L 16.328125 -30.34375 L 16.328125 0 L 4.34375 0 L 4.34375 -49.1875 L 16.328125 -49.1875 L 36.375 -18.703125 L 36.375 -49.1875 L 48.359375 -49.1875 Z M 48.359375 0 "/></g></g></g></svg>