<svg xmlns="http://www.w3.org/2000/svg" xmlns:xlink="http://www.w3.org/1999/xlink" width="500" zoomAndPan="magnify" viewBox="0 0 375 374.999991" height="500" preserveAspectRatio="xMidYMid meet" version="1.0"><defs><clipPath id="bd9d62549d"><path d="M 126.664062 92.027344 L 165.664062 92.027344 L 165.664062 176.027344 L 126.664062 176.027344 Z M 126.664062 92.027344 " clip-rule="nonzero"/></clipPath><clipPath id="236f3fffc2"><path d="M 53.847656 92.027344 L 126.597656 92.027344 L 126.597656 176.027344 L 53.847656 176.027344 Z M 53.847656 92.027344 " clip-rule="nonzero"/></clipPath><clipPath id="764563f658"><path d="M 0 273.734375 L 118.191406 273.734375 L 118.191406 344.585938 L 0 344.585938 Z M 0 273.734375 " clip-rule="nonzero"/></clipPath><clipPath id="f475643f23"><path d="M 149.628906 26.5 L 324.058594 26.5 L 324.058594 247.75 L 149.628906 247.75 Z M 149.628906 26.5 " clip-rule="nonzero"/></clipPath><clipPath id="b1689f6394"><path d="M 58.558594 176.015625 L 324.058594 176.015625 L 324.058594 275.765625 L 58.558594 275.765625 Z M 58.558594 176.015625 " clip-rule="nonzero"/></clipPath><clipPath id="bb10ea7d38"><path d="M 60.90625 0 L 175.65625 0 L 175.65625 81.714844 L 60.90625 81.714844 Z M 60.90625 0 " clip-rule="nonzero"/></clipPath><clipPath id="f8aeb2b300"><path d="M 149.628906 26.507812 L 324.058594 26.507812 L 324.058594 133.757812 L 149.628906 133.757812 Z M 149.628906 26.507812 " clip-rule="nonzero"/></clipPath><clipPath id="7d5beaa343"><path d="M 178.085938 97.597656 L 256.546875 97.597656 L 256.546875 170.335938 L 178.085938 170.335938 Z M 178.085938 97.597656 " clip-rule="nonzero"/></clipPath><clipPath id="84b070738a"><path d="M 217.554688 97.597656 L 256.546875 97.597656 L 256.546875 170.335938 L 217.554688 170.335938 Z M 217.554688 97.597656 " clip-rule="nonzero"/></clipPath><clipPath id="19b95042aa"><path d="M 272.253906 109.808594 L 321 109.808594 L 321 134.558594 L 272.253906 134.558594 Z M 272.253906 109.808594 " clip-rule="nonzero"/></clipPath><clipPath id="4fcf77316b"><path d="M 274.023438 111.828125 L 319 111.828125 L 319 156.828125 L 274.023438 156.828125 Z M 274.023438 111.828125 " clip-rule="nonzero"/></clipPath><clipPath id="a072998173"><path d="M 282.132812 119.9375 L 310.632812 119.9375 L 310.632812 148.4375 L 282.132812 148.4375 Z M 282.132812 119.9375 " clip-rule="nonzero"/></clipPath><clipPath id="dea678dac9"><path d="M 57.847656 199.8125 L 106.597656 199.8125 L 106.597656 248.5625 L 57.847656 248.5625 Z M 57.847656 199.8125 " clip-rule="nonzero"/></clipPath><clipPath id="cd78791557"><path d="M 59.617188 201.582031 L 104.617188 201.582031 L 104.617188 246.582031 L 59.617188 246.582031 Z M 59.617188 201.582031 " clip-rule="nonzero"/></clipPath><clipPath id="8f8e8ed1ac"><path d="M 64.390625 206 L 99.640625 206 L 99.640625 241.902344 L 64.390625 241.902344 Z M 64.390625 206 " clip-rule="nonzero"/></clipPath></defs><g clip-path="url(#bd9d62549d)"><path fill="#00bf63" d="M 131.777344 141.105469 C 132.601562 141.148438 133.605469 141.152344 134.851562 141.152344 C 140.410156 141.152344 145.972656 141.152344 151.707031 141.152344 L 151.707031 162.769531 L 68.011719 162.769531 L 68.011719 141.035156 L 120.246094 141.035156 L 120.246094 127.476562 L 67.90625 127.476562 L 67.90625 105.578125 L 165.523438 105.578125 L 165.523438 92.101562 C 129.546875 92.101562 100.414062 92.101562 71.277344 92.101562 L 67.957031 92.101562 L 67.957031 92.035156 L 54.105469 92.035156 L 54.105469 142.054688 C 54.140625 142.214844 54.167969 142.390625 54.167969 142.605469 C 54.175781 149.25 54.167969 155.890625 54.167969 162.898438 L 54.105469 162.898438 L 54.105469 176.003906 L 164.578125 176.003906 C 165.277344 175.496094 165.496094 174.589844 165.480469 173.058594 C 165.363281 161.707031 165.488281 150.355469 165.519531 139.007812 C 165.527344 135.25 165.519531 131.496094 165.519531 127.75 L 131.777344 127.75 Z M 131.777344 141.105469 " fill-opacity="1" fill-rule="nonzero"/></g><g clip-path="url(#236f3fffc2)"><path fill="#c1ff72" d="M 131.519531 141.105469 C 132.347656 141.148438 133.351562 141.152344 134.597656 141.152344 C 140.15625 141.152344 145.71875 141.152344 151.453125 141.152344 L 151.453125 162.769531 L 67.757812 162.769531 L 67.757812 141.035156 L 119.988281 141.035156 L 119.988281 127.476562 L 67.648438 127.476562 L 67.648438 105.578125 L 165.265625 105.578125 L 165.265625 92.101562 C 129.289062 92.101562 100.15625 92.101562 71.019531 92.101562 L 67.699219 92.101562 L 67.699219 92.035156 L 53.847656 92.035156 L 53.847656 142.054688 C 53.882812 142.214844 53.910156 142.390625 53.910156 142.605469 C 53.921875 149.25 53.914062 155.890625 53.914062 162.898438 L 53.847656 162.898438 L 53.847656 176.003906 L 164.320312 176.003906 C 165.019531 175.496094 165.238281 174.589844 165.222656 173.058594 C 165.105469 161.707031 165.230469 150.355469 165.261719 139.007812 C 165.269531 135.25 165.265625 131.496094 165.265625 127.75 L 131.519531 127.75 Z M 131.519531 141.105469 " fill-opacity="1" fill-rule="nonzero"/></g><path fill="#00bf63" d="M 55.421875 183.75 L 169.578125 183.75 L 169.578125 228.804688 L 103.039062 228.804688 C 107.910156 257.476562 132.613281 289.15625 169.578125 300.601562 L 169.578125 347.320312 C 96.921875 332.53125 45 264.726562 55.421875 183.75 Z M 55.421875 183.75 " fill-opacity="1" fill-rule="nonzero"/><g clip-path="url(#764563f658)"><path fill="#c1ff72" d="M -139.617188 87.761719 C -139.761719 144.515625 -93.632812 190.734375 -36.910156 190.734375 L 19.035156 190.734375 C 43.292969 190.734375 62.960938 210.402344 62.960938 234.660156 L 62.960938 291.203125 L 116.425781 344.667969 L 116.425781 248.496094 C 116.425781 187.074219 66.632812 137.273438 5.199219 137.273438 L -36.921875 137.273438 C -64 137.273438 -86.054688 115.296875 -86.164062 88.230469 C -86.277344 61.039062 -63.800781 38.785156 -36.597656 38.785156 L 64.957031 38.785156 L 118.417969 -14.664062 L -36.429688 -14.664062 C -93.117188 -14.664062 -139.472656 31.074219 -139.617188 87.761719 Z M -139.617188 87.761719 " fill-opacity="1" fill-rule="nonzero"/></g><g clip-path="url(#f475643f23)"><path fill="#c1ff72" d="M 324.0625 131.871094 C 324.214844 190.261719 276.753906 237.808594 218.402344 237.808594 L 160.84375 237.808594 C 135.890625 237.808594 115.65625 258.042969 115.65625 283 L 115.65625 341.167969 L 60.65625 396.167969 L 60.65625 297.234375 C 60.65625 234.042969 111.878906 182.808594 175.078125 182.808594 L 218.414062 182.808594 C 246.273438 182.808594 268.960938 160.203125 269.074219 132.355469 C 269.191406 104.382812 246.066406 81.488281 218.082031 81.488281 L 113.605469 81.488281 L 58.605469 26.5 L 217.90625 26.5 C 276.226562 26.5 323.914062 73.554688 324.0625 131.871094 Z M 324.0625 131.871094 " fill-opacity="1" fill-rule="nonzero"/></g><g clip-path="url(#b1689f6394)"><path fill="#c1ff72" d="M 324.0625 131.199219 C 324.214844 189.585938 276.753906 237.136719 218.402344 237.136719 L 160.84375 237.136719 C 135.890625 237.136719 115.65625 257.371094 115.65625 282.328125 L 115.65625 340.496094 L 60.65625 395.496094 L 60.65625 296.5625 C 60.65625 233.371094 111.878906 182.136719 175.078125 182.136719 L 218.414062 182.136719 C 246.273438 182.136719 268.960938 159.53125 269.074219 131.683594 C 269.191406 103.710938 246.066406 80.816406 218.082031 80.816406 L 113.605469 80.816406 L 58.605469 25.828125 L 217.90625 25.828125 C 276.226562 25.828125 323.914062 72.882812 324.0625 131.199219 Z M 324.0625 131.199219 " fill-opacity="1" fill-rule="nonzero"/></g><g clip-path="url(#bb10ea7d38)"><path fill="#00bf63" d="M 327.511719 -24.09375 C 327.660156 -82.726562 280.003906 -130.472656 221.410156 -130.472656 L 163.613281 -130.472656 C 138.554688 -130.472656 118.238281 -150.789062 118.238281 -175.847656 L 118.238281 -234.257812 L 63.007812 -289.488281 L 63.007812 -190.140625 C 63.007812 -126.691406 114.445312 -75.242188 177.90625 -75.242188 L 221.421875 -75.242188 C 249.394531 -75.242188 272.175781 -52.542969 272.292969 -24.582031 C 272.40625 3.507812 249.1875 26.496094 221.085938 26.496094 L 116.179688 26.496094 L 60.949219 81.714844 L 220.914062 81.714844 C 279.472656 81.714844 327.359375 34.464844 327.511719 -24.09375 Z M 327.511719 -24.09375 " fill-opacity="1" fill-rule="nonzero"/></g><g clip-path="url(#f8aeb2b300)"><path fill="#00bf63" d="M 324.0625 131.878906 C 324.214844 190.265625 276.753906 237.816406 218.402344 237.816406 L 160.84375 237.816406 C 135.890625 237.816406 115.65625 258.050781 115.65625 283.003906 L 115.65625 341.171875 L 60.65625 396.175781 L 60.65625 297.238281 C 60.65625 234.050781 111.878906 182.816406 175.078125 182.816406 L 218.414062 182.816406 C 246.273438 182.816406 268.960938 160.207031 269.074219 132.363281 C 269.191406 104.390625 246.066406 81.496094 218.082031 81.496094 L 113.605469 81.496094 L 58.605469 26.507812 L 217.90625 26.507812 C 276.226562 26.507812 323.914062 73.5625 324.0625 131.878906 Z M 324.0625 131.878906 " fill-opacity="1" fill-rule="nonzero"/></g><g clip-path="url(#7d5beaa343)"><path fill="#c1ff72" d="M 241.363281 142.996094 C 235.203125 145.414062 230.738281 141.222656 228.046875 134.945312 C 225.355469 128.671875 226.960938 122.097656 231.625 120.269531 C 236.289062 118.441406 242.25 122.046875 244.941406 128.324219 C 247.628906 134.601562 247.894531 140.4375 241.363281 142.996094 Z M 222.421875 146.316406 C 222.410156 146.332031 222.394531 146.347656 222.386719 146.359375 C 221.730469 147.09375 220.847656 147.042969 219.992188 146.675781 C 218.460938 146.019531 216.996094 144.351562 216.996094 144.351562 C 216.996094 144.351562 215.347656 146.261719 213.796875 146.777344 C 213.179688 146.984375 212.574219 146.96875 212.101562 146.519531 C 211.992188 146.417969 211.894531 146.3125 211.808594 146.203125 C 209.214844 142.863281 217.5625 136.578125 217.5625 136.578125 C 217.5625 136.578125 224.648438 143.6875 222.421875 146.316406 Z M 207.976562 134.75 C 205.289062 141.027344 200.820312 145.21875 194.660156 142.804688 C 188.132812 140.246094 188.394531 134.40625 191.085938 128.128906 C 193.773438 121.855469 199.734375 118.25 204.402344 120.078125 C 209.066406 121.90625 210.667969 128.476562 207.976562 134.75 Z M 217.316406 97.597656 C 188.710938 97.597656 178.085938 112.152344 178.085938 130.109375 C 178.085938 142.140625 185.976562 152.648438 197.699219 158.269531 L 197.699219 158.308594 C 197.699219 165.007812 198.875 170.441406 202.882812 170.441406 C 205.332031 170.441406 206.785156 168.160156 207.503906 164.730469 C 208.171875 168.160156 209.578125 170.441406 212.175781 170.441406 C 214.628906 170.441406 216.078125 168.15625 216.796875 164.722656 C 217.464844 168.15625 218.875 170.441406 221.472656 170.441406 C 223.921875 170.441406 225.371094 168.15625 226.089844 164.726562 C 226.757812 168.15625 228.167969 170.441406 230.765625 170.441406 C 234.464844 170.441406 235.886719 165.234375 235.945312 158.726562 C 248.210938 153.230469 256.546875 142.476562 256.546875 130.109375 C 256.546875 112.152344 247.636719 97.597656 217.316406 97.597656 " fill-opacity="1" fill-rule="nonzero"/></g><g clip-path="url(#84b070738a)"><path fill="#00bf63" d="M 241.363281 142.996094 C 235.203125 145.414062 230.738281 141.222656 228.046875 134.945312 C 225.355469 128.671875 226.960938 122.097656 231.625 120.269531 C 236.289062 118.441406 242.25 122.046875 244.941406 128.324219 C 247.628906 134.601562 247.894531 140.4375 241.363281 142.996094 Z M 222.421875 146.316406 C 222.410156 146.332031 222.398438 146.347656 222.386719 146.359375 C 221.730469 147.09375 220.847656 147.042969 219.992188 146.675781 C 218.460938 146.019531 216.996094 144.351562 216.996094 144.351562 C 216.996094 144.351562 215.347656 146.261719 213.796875 146.777344 C 213.179688 146.984375 212.574219 146.96875 212.101562 146.519531 C 211.992188 146.417969 211.894531 146.3125 211.808594 146.203125 C 209.214844 142.863281 217.5625 136.578125 217.5625 136.578125 C 217.5625 136.578125 224.648438 143.6875 222.421875 146.316406 Z M 207.976562 134.75 C 205.289062 141.027344 200.820312 145.21875 194.660156 142.804688 C 188.132812 140.246094 188.394531 134.40625 191.085938 128.128906 C 193.773438 121.855469 199.734375 118.25 204.402344 120.078125 C 209.066406 121.90625 210.667969 128.476562 207.976562 134.75 Z M 217.316406 97.597656 C 188.710938 97.597656 178.085938 112.152344 178.085938 130.109375 C 178.085938 142.140625 185.976562 152.648438 197.699219 158.269531 L 197.699219 158.308594 C 197.699219 165.007812 198.875 170.441406 202.882812 170.441406 C 205.332031 170.441406 206.785156 168.160156 207.503906 164.730469 C 208.171875 168.160156 209.578125 170.441406 212.175781 170.441406 C 214.628906 170.441406 216.078125 168.15625 216.796875 164.722656 C 217.464844 168.15625 218.875 170.441406 221.472656 170.441406 C 223.921875 170.441406 225.371094 168.15625 226.089844 164.726562 C 226.757812 168.15625 228.167969 170.441406 230.765625 170.441406 C 234.464844 170.441406 235.886719 165.234375 235.945312 158.726562 C 248.210938 153.230469 256.546875 142.476562 256.546875 130.109375 C 256.546875 112.152344 247.636719 97.597656 217.316406 97.597656 " fill-opacity="1" fill-rule="nonzero"/></g><g clip-path="url(#19b95042aa)"><path fill="#c1ff72" d="M 320.664062 134.015625 C 320.664062 134.808594 320.625 135.597656 320.546875 136.386719 C 320.46875 137.175781 320.355469 137.960938 320.199219 138.738281 C 320.042969 139.515625 319.851562 140.28125 319.621094 141.042969 C 319.390625 141.800781 319.125 142.546875 318.820312 143.277344 C 318.519531 144.011719 318.179688 144.726562 317.804688 145.425781 C 317.433594 146.125 317.027344 146.804688 316.585938 147.464844 C 316.144531 148.121094 315.671875 148.757812 315.171875 149.371094 C 314.667969 149.984375 314.136719 150.570312 313.574219 151.132812 C 313.015625 151.691406 312.425781 152.222656 311.816406 152.726562 C 311.203125 153.230469 310.566406 153.699219 309.90625 154.140625 C 309.246094 154.582031 308.570312 154.988281 307.871094 155.363281 C 307.171875 155.734375 306.453125 156.074219 305.722656 156.378906 C 304.988281 156.679688 304.246094 156.949219 303.484375 157.179688 C 302.726562 157.410156 301.957031 157.601562 301.179688 157.753906 C 300.402344 157.910156 299.621094 158.027344 298.832031 158.105469 C 298.042969 158.183594 297.253906 158.21875 296.460938 158.21875 C 295.667969 158.21875 294.875 158.183594 294.085938 158.105469 C 293.296875 158.027344 292.515625 157.910156 291.738281 157.753906 C 290.960938 157.601562 290.191406 157.410156 289.433594 157.179688 C 288.675781 156.949219 287.929688 156.679688 287.195312 156.378906 C 286.464844 156.074219 285.75 155.734375 285.050781 155.363281 C 284.351562 154.988281 283.671875 154.582031 283.011719 154.140625 C 282.351562 153.699219 281.714844 153.230469 281.105469 152.726562 C 280.492188 152.222656 279.902344 151.691406 279.34375 151.132812 C 278.78125 150.570312 278.25 149.984375 277.75 149.371094 C 277.246094 148.757812 276.773438 148.121094 276.332031 147.464844 C 275.894531 146.804688 275.484375 146.125 275.113281 145.425781 C 274.738281 144.726562 274.398438 144.011719 274.097656 143.277344 C 273.792969 142.546875 273.527344 141.800781 273.296875 141.042969 C 273.066406 140.28125 272.875 139.515625 272.71875 138.738281 C 272.566406 137.960938 272.449219 137.175781 272.371094 136.386719 C 272.292969 135.597656 272.253906 134.808594 272.253906 134.015625 C 272.253906 133.222656 272.292969 132.433594 272.371094 131.644531 C 272.449219 130.855469 272.566406 130.070312 272.71875 129.292969 C 272.875 128.515625 273.066406 127.746094 273.296875 126.988281 C 273.527344 126.230469 273.792969 125.484375 274.097656 124.753906 C 274.398438 124.019531 274.738281 123.304688 275.113281 122.605469 C 275.484375 121.90625 275.894531 121.226562 276.332031 120.566406 C 276.773438 119.910156 277.246094 119.273438 277.75 118.660156 C 278.25 118.046875 278.78125 117.460938 279.34375 116.898438 C 279.902344 116.339844 280.492188 115.808594 281.105469 115.304688 C 281.714844 114.800781 282.351562 114.328125 283.011719 113.890625 C 283.671875 113.449219 284.351562 113.042969 285.050781 112.667969 C 285.75 112.292969 286.464844 111.957031 287.195312 111.652344 C 287.929688 111.347656 288.675781 111.082031 289.433594 110.851562 C 290.191406 110.621094 290.960938 110.429688 291.738281 110.277344 C 292.515625 110.121094 293.296875 110.003906 294.085938 109.925781 C 294.875 109.847656 295.667969 109.808594 296.460938 109.808594 C 297.253906 109.808594 298.042969 109.847656 298.832031 109.925781 C 299.621094 110.003906 300.402344 110.121094 301.179688 110.277344 C 301.957031 110.429688 302.726562 110.621094 303.484375 110.851562 C 304.246094 111.082031 304.988281 111.347656 305.722656 111.652344 C 306.453125 111.957031 307.171875 112.292969 307.871094 112.667969 C 308.570312 113.042969 309.246094 113.449219 309.90625 113.890625 C 310.566406 114.328125 311.203125 114.800781 311.816406 115.304688 C 312.425781 115.808594 313.015625 116.339844 313.574219 116.898438 C 314.136719 117.460938 314.667969 118.046875 315.171875 118.660156 C 315.671875 119.273438 316.144531 119.910156 316.585938 120.566406 C 317.027344 121.226562 317.433594 121.90625 317.804688 122.605469 C 318.179688 123.304688 318.519531 124.019531 318.820312 124.753906 C 319.125 125.484375 319.390625 126.230469 319.621094 126.988281 C 319.851562 127.746094 320.042969 128.515625 320.199219 129.292969 C 320.355469 130.070312 320.46875 130.855469 320.546875 131.644531 C 320.625 132.433594 320.664062 133.222656 320.664062 134.015625 Z M 320.664062 134.015625 " fill-opacity="1" fill-rule="nonzero"/></g><g clip-path="url(#4fcf77316b)"><path fill="#00bf63" d="M 318.894531 134.261719 C 318.894531 134.996094 318.859375 135.730469 318.789062 136.460938 C 318.714844 137.195312 318.609375 137.917969 318.464844 138.640625 C 318.320312 139.359375 318.144531 140.074219 317.929688 140.777344 C 317.714844 141.480469 317.46875 142.171875 317.1875 142.847656 C 316.90625 143.527344 316.59375 144.191406 316.246094 144.839844 C 315.898438 145.488281 315.523438 146.117188 315.113281 146.726562 C 314.707031 147.339844 314.269531 147.929688 313.804688 148.496094 C 313.335938 149.0625 312.84375 149.609375 312.324219 150.128906 C 311.804688 150.648438 311.261719 151.140625 310.691406 151.605469 C 310.125 152.070312 309.535156 152.507812 308.925781 152.917969 C 308.3125 153.324219 307.683594 153.703125 307.035156 154.050781 C 306.386719 154.394531 305.726562 154.710938 305.046875 154.992188 C 304.367188 155.273438 303.675781 155.519531 302.972656 155.734375 C 302.269531 155.945312 301.558594 156.125 300.835938 156.265625 C 300.117188 156.410156 299.390625 156.519531 298.660156 156.589844 C 297.929688 156.664062 297.195312 156.699219 296.460938 156.699219 C 295.726562 156.699219 294.992188 156.664062 294.261719 156.589844 C 293.53125 156.519531 292.804688 156.410156 292.082031 156.265625 C 291.363281 156.125 290.652344 155.945312 289.949219 155.734375 C 289.246094 155.519531 288.554688 155.273438 287.875 154.992188 C 287.195312 154.710938 286.53125 154.394531 285.882812 154.050781 C 285.234375 153.703125 284.605469 153.324219 283.996094 152.917969 C 283.386719 152.507812 282.796875 152.070312 282.226562 151.605469 C 281.660156 151.140625 281.117188 150.648438 280.597656 150.128906 C 280.078125 149.609375 279.582031 149.0625 279.117188 148.496094 C 278.652344 147.929688 278.214844 147.339844 277.804688 146.726562 C 277.398438 146.117188 277.019531 145.488281 276.675781 144.839844 C 276.328125 144.191406 276.015625 143.527344 275.734375 142.847656 C 275.453125 142.171875 275.203125 141.480469 274.992188 140.777344 C 274.777344 140.074219 274.597656 139.359375 274.457031 138.640625 C 274.3125 137.917969 274.203125 137.195312 274.132812 136.460938 C 274.0625 135.730469 274.023438 134.996094 274.023438 134.261719 C 274.023438 133.527344 274.0625 132.796875 274.132812 132.0625 C 274.203125 131.332031 274.3125 130.605469 274.457031 129.886719 C 274.597656 129.164062 274.777344 128.453125 274.992188 127.75 C 275.203125 127.046875 275.453125 126.355469 275.734375 125.675781 C 276.015625 125 276.328125 124.335938 276.675781 123.6875 C 277.019531 123.039062 277.398438 122.410156 277.804688 121.796875 C 278.214844 121.1875 278.652344 120.597656 279.117188 120.03125 C 279.582031 119.460938 280.078125 118.917969 280.597656 118.398438 C 281.117188 117.878906 281.660156 117.386719 282.226562 116.921875 C 282.796875 116.453125 283.386719 116.015625 283.996094 115.609375 C 284.605469 115.199219 285.234375 114.824219 285.882812 114.476562 C 286.53125 114.128906 287.195312 113.816406 287.875 113.535156 C 288.554688 113.253906 289.246094 113.007812 289.949219 112.792969 C 290.652344 112.582031 291.363281 112.402344 292.082031 112.257812 C 292.804688 112.117188 293.53125 112.007812 294.261719 111.9375 C 294.992188 111.863281 295.726562 111.828125 296.460938 111.828125 C 297.195312 111.828125 297.929688 111.863281 298.660156 111.9375 C 299.390625 112.007812 300.117188 112.117188 300.835938 112.257812 C 301.558594 112.402344 302.269531 112.582031 302.972656 112.792969 C 303.675781 113.007812 304.367188 113.253906 305.046875 113.535156 C 305.726562 113.816406 306.386719 114.128906 307.035156 114.476562 C 307.683594 114.824219 308.3125 115.199219 308.925781 115.609375 C 309.535156 116.015625 310.125 116.453125 310.691406 116.921875 C 311.261719 117.386719 311.804688 117.878906 312.324219 118.398438 C 312.84375 118.917969 313.335938 119.460938 313.804688 120.03125 C 314.269531 120.597656 314.707031 121.1875 315.113281 121.796875 C 315.523438 122.410156 315.898438 123.039062 316.246094 123.6875 C 316.59375 124.335938 316.90625 125 317.1875 125.675781 C 317.46875 126.355469 317.714844 127.046875 317.929688 127.75 C 318.144531 128.453125 318.320312 129.164062 318.464844 129.886719 C 318.609375 130.605469 318.714844 131.332031 318.789062 132.0625 C 318.859375 132.796875 318.894531 133.527344 318.894531 134.261719 Z M 318.894531 134.261719 " fill-opacity="1" fill-rule="nonzero"/></g><g clip-path="url(#a072998173)"><path fill="#c1ff72" d="M 300.90625 130.3125 C 300.632812 130.3125 300.414062 130.089844 300.414062 129.816406 C 300.414062 129.816406 300.414062 121.429688 300.414062 121.429688 C 300.414062 120.613281 299.75 119.949219 298.929688 119.949219 L 293.992188 119.949219 C 293.171875 119.949219 292.507812 120.613281 292.507812 121.429688 L 292.507812 129.816406 C 292.507812 130.089844 292.289062 130.3125 292.015625 130.3125 C 292.015625 130.3125 283.628906 130.3125 283.628906 130.3125 C 282.808594 130.3125 282.148438 130.976562 282.148438 131.792969 L 282.148438 136.734375 C 282.148438 137.550781 282.808594 138.214844 283.628906 138.214844 L 292.015625 138.214844 C 292.289062 138.214844 292.507812 138.4375 292.507812 138.710938 C 292.507812 138.710938 292.507812 147.097656 292.507812 147.097656 C 292.507812 147.914062 293.171875 148.578125 293.992188 148.578125 L 298.929688 148.578125 C 299.75 148.578125 300.414062 147.914062 300.414062 147.097656 L 300.414062 138.710938 C 300.414062 138.4375 300.632812 138.214844 300.90625 138.214844 C 300.90625 138.214844 309.292969 138.214844 309.292969 138.214844 C 310.113281 138.214844 310.773438 137.550781 310.773438 136.734375 L 310.773438 131.792969 C 310.773438 130.976562 310.113281 130.3125 309.292969 130.3125 Z M 300.90625 130.3125 " fill-opacity="1" fill-rule="evenodd"/></g><g clip-path="url(#dea678dac9)"><path fill="#00bf63" d="M 106.257812 224.015625 C 106.257812 224.808594 106.21875 225.601562 106.140625 226.390625 C 106.0625 227.179688 105.945312 227.960938 105.792969 228.738281 C 105.636719 229.515625 105.445312 230.285156 105.214844 231.042969 C 104.984375 231.800781 104.71875 232.546875 104.414062 233.277344 C 104.113281 234.011719 103.773438 234.726562 103.398438 235.425781 C 103.027344 236.125 102.617188 236.804688 102.179688 237.464844 C 101.738281 238.125 101.265625 238.757812 100.761719 239.371094 C 100.261719 239.984375 99.726562 240.570312 99.167969 241.132812 C 98.605469 241.691406 98.019531 242.222656 97.40625 242.726562 C 96.796875 243.230469 96.160156 243.703125 95.5 244.140625 C 94.839844 244.582031 94.160156 244.988281 93.460938 245.363281 C 92.761719 245.738281 92.046875 246.074219 91.316406 246.378906 C 90.582031 246.683594 89.835938 246.949219 89.078125 247.179688 C 88.320312 247.410156 87.550781 247.601562 86.773438 247.757812 C 85.996094 247.910156 85.214844 248.027344 84.425781 248.105469 C 83.636719 248.183594 82.84375 248.222656 82.050781 248.222656 C 81.257812 248.222656 80.46875 248.183594 79.679688 248.105469 C 78.890625 248.027344 78.109375 247.910156 77.332031 247.757812 C 76.550781 247.601562 75.785156 247.410156 75.027344 247.179688 C 74.265625 246.949219 73.523438 246.683594 72.789062 246.378906 C 72.058594 246.074219 71.339844 245.738281 70.640625 245.363281 C 69.941406 244.988281 69.265625 244.582031 68.605469 244.140625 C 67.945312 243.703125 67.308594 243.230469 66.695312 242.726562 C 66.085938 242.222656 65.496094 241.691406 64.9375 241.132812 C 64.375 240.570312 63.84375 239.984375 63.339844 239.371094 C 62.839844 238.757812 62.367188 238.125 61.925781 237.464844 C 61.484375 236.804688 61.078125 236.125 60.707031 235.425781 C 60.332031 234.726562 59.992188 234.011719 59.691406 233.277344 C 59.386719 232.546875 59.121094 231.800781 58.890625 231.042969 C 58.660156 230.285156 58.46875 229.515625 58.3125 228.738281 C 58.15625 227.960938 58.042969 227.179688 57.964844 226.390625 C 57.886719 225.601562 57.847656 224.808594 57.847656 224.015625 C 57.847656 223.222656 57.886719 222.433594 57.964844 221.644531 C 58.042969 220.855469 58.15625 220.070312 58.3125 219.292969 C 58.46875 218.515625 58.660156 217.75 58.890625 216.988281 C 59.121094 216.230469 59.386719 215.484375 59.691406 214.753906 C 59.992188 214.019531 60.332031 213.304688 60.707031 212.605469 C 61.078125 211.90625 61.484375 211.226562 61.925781 210.570312 C 62.367188 209.910156 62.839844 209.273438 63.339844 208.660156 C 63.84375 208.046875 64.375 207.460938 64.9375 206.902344 C 65.496094 206.339844 66.085938 205.808594 66.695312 205.304688 C 67.308594 204.800781 67.945312 204.332031 68.605469 203.890625 C 69.265625 203.449219 69.941406 203.042969 70.640625 202.667969 C 71.339844 202.296875 72.058594 201.957031 72.789062 201.652344 C 73.523438 201.351562 74.265625 201.082031 75.027344 200.851562 C 75.785156 200.625 76.550781 200.429688 77.332031 200.277344 C 78.109375 200.121094 78.890625 200.003906 79.679688 199.929688 C 80.46875 199.851562 81.257812 199.8125 82.050781 199.8125 C 82.84375 199.8125 83.636719 199.851562 84.425781 199.929688 C 85.214844 200.003906 85.996094 200.121094 86.773438 200.277344 C 87.550781 200.429688 88.320312 200.625 89.078125 200.851562 C 89.835938 201.082031 90.582031 201.351562 91.316406 201.652344 C 92.046875 201.957031 92.761719 202.296875 93.460938 202.667969 C 94.160156 203.042969 94.839844 203.449219 95.5 203.890625 C 96.160156 204.332031 96.796875 204.800781 97.40625 205.304688 C 98.019531 205.808594 98.605469 206.339844 99.167969 206.902344 C 99.726562 207.460938 100.261719 208.046875 100.761719 208.660156 C 101.265625 209.273438 101.738281 209.910156 102.179688 210.570312 C 102.617188 211.226562 103.027344 211.90625 103.398438 212.605469 C 103.773438 213.304688 104.113281 214.019531 104.414062 214.753906 C 104.71875 215.484375 104.984375 216.230469 105.214844 216.988281 C 105.445312 217.75 105.636719 218.515625 105.792969 219.292969 C 105.945312 220.070312 106.0625 220.855469 106.140625 221.644531 C 106.21875 222.433594 106.257812 223.222656 106.257812 224.015625 Z M 106.257812 224.015625 " fill-opacity="1" fill-rule="nonzero"/></g><g clip-path="url(#cd78791557)"><path fill="#c1ff72" d="M 104.488281 224.015625 C 104.488281 224.753906 104.453125 225.484375 104.382812 226.214844 C 104.308594 226.949219 104.203125 227.671875 104.058594 228.394531 C 103.914062 229.113281 103.734375 229.828125 103.523438 230.53125 C 103.308594 231.234375 103.0625 231.925781 102.78125 232.601562 C 102.5 233.28125 102.1875 233.945312 101.839844 234.59375 C 101.492188 235.242188 101.117188 235.871094 100.707031 236.480469 C 100.300781 237.09375 99.863281 237.683594 99.394531 238.25 C 98.929688 238.816406 98.4375 239.363281 97.917969 239.882812 C 97.398438 240.402344 96.855469 240.894531 96.285156 241.359375 C 95.71875 241.828125 95.128906 242.261719 94.519531 242.671875 C 93.90625 243.078125 93.277344 243.457031 92.628906 243.804688 C 91.980469 244.148438 91.316406 244.464844 90.640625 244.746094 C 89.960938 245.027344 89.269531 245.273438 88.566406 245.488281 C 87.863281 245.699219 87.152344 245.878906 86.429688 246.023438 C 85.710938 246.164062 84.984375 246.273438 84.253906 246.34375 C 83.519531 246.417969 82.789062 246.453125 82.054688 246.453125 C 81.320312 246.453125 80.585938 246.417969 79.855469 246.34375 C 79.125 246.273438 78.398438 246.164062 77.675781 246.023438 C 76.957031 245.878906 76.242188 245.699219 75.539062 245.488281 C 74.835938 245.273438 74.148438 245.027344 73.46875 244.746094 C 72.789062 244.464844 72.125 244.148438 71.476562 243.804688 C 70.828125 243.457031 70.199219 243.078125 69.589844 242.671875 C 68.976562 242.261719 68.386719 241.828125 67.820312 241.359375 C 67.253906 240.894531 66.707031 240.402344 66.1875 239.882812 C 65.667969 239.363281 65.175781 238.816406 64.710938 238.25 C 64.246094 237.683594 63.808594 237.09375 63.398438 236.480469 C 62.992188 235.871094 62.613281 235.242188 62.265625 234.59375 C 61.921875 233.945312 61.605469 233.28125 61.324219 232.601562 C 61.042969 231.925781 60.796875 231.234375 60.582031 230.53125 C 60.371094 229.828125 60.191406 229.113281 60.050781 228.394531 C 59.90625 227.671875 59.796875 226.949219 59.726562 226.214844 C 59.652344 225.484375 59.617188 224.753906 59.617188 224.015625 C 59.617188 223.28125 59.652344 222.550781 59.726562 221.816406 C 59.796875 221.085938 59.90625 220.359375 60.050781 219.640625 C 60.191406 218.917969 60.371094 218.207031 60.582031 217.503906 C 60.796875 216.800781 61.042969 216.109375 61.324219 215.429688 C 61.605469 214.753906 61.921875 214.089844 62.265625 213.441406 C 62.613281 212.792969 62.992188 212.164062 63.398438 211.554688 C 63.808594 210.941406 64.246094 210.351562 64.710938 209.785156 C 65.175781 209.214844 65.667969 208.671875 66.1875 208.152344 C 66.707031 207.632812 67.253906 207.140625 67.820312 206.675781 C 68.386719 206.207031 68.976562 205.769531 69.589844 205.363281 C 70.199219 204.953125 70.828125 204.578125 71.476562 204.230469 C 72.125 203.882812 72.789062 203.570312 73.46875 203.289062 C 74.148438 203.007812 74.835938 202.761719 75.539062 202.546875 C 76.242188 202.335938 76.957031 202.15625 77.675781 202.011719 C 78.398438 201.871094 79.125 201.761719 79.855469 201.691406 C 80.585938 201.617188 81.320312 201.582031 82.054688 201.582031 C 82.789062 201.582031 83.519531 201.617188 84.253906 201.691406 C 84.984375 201.761719 85.710938 201.871094 86.429688 202.011719 C 87.152344 202.15625 87.863281 202.335938 88.566406 202.546875 C 89.269531 202.761719 89.960938 203.007812 90.640625 203.289062 C 91.316406 203.570312 91.980469 203.882812 92.628906 204.230469 C 93.277344 204.578125 93.90625 204.953125 94.519531 205.363281 C 95.128906 205.769531 95.71875 206.207031 96.285156 206.675781 C 96.855469 207.140625 97.398438 207.632812 97.917969 208.152344 C 98.4375 208.671875 98.929688 209.214844 99.394531 209.785156 C 99.863281 210.351562 100.300781 210.941406 100.707031 211.554688 C 101.117188 212.164062 101.492188 212.792969 101.839844 213.441406 C 102.1875 214.089844 102.5 214.753906 102.78125 215.429688 C 103.0625 216.109375 103.308594 216.800781 103.523438 217.503906 C 103.734375 218.207031 103.914062 218.917969 104.058594 219.640625 C 104.203125 220.359375 104.308594 221.085938 104.382812 221.816406 C 104.453125 222.550781 104.488281 223.28125 104.488281 224.015625 Z M 104.488281 224.015625 " fill-opacity="1" fill-rule="nonzero"/></g><g clip-path="url(#8f8e8ed1ac)"><path fill="#00bf63" d="M 95.441406 225.777344 C 95.515625 225.199219 95.566406 224.617188 95.566406 224.019531 C 95.566406 223.425781 95.515625 222.839844 95.441406 222.261719 L 99.253906 219.28125 C 99.59375 219.011719 99.695312 218.523438 99.46875 218.128906 L 95.867188 211.882812 C 95.640625 211.496094 95.171875 211.335938 94.765625 211.496094 L 90.277344 213.308594 C 89.351562 212.59375 88.332031 211.992188 87.234375 211.53125 L 86.558594 206.757812 C 86.476562 206.332031 86.105469 206 85.65625 206 L 78.449219 206 C 77.996094 206 77.628906 206.332031 77.554688 206.757812 L 76.878906 211.53125 C 75.78125 211.992188 74.761719 212.585938 73.835938 213.308594 L 69.347656 211.496094 C 68.941406 211.34375 68.472656 211.496094 68.25 211.882812 L 64.644531 218.128906 C 64.417969 218.515625 64.519531 219 64.859375 219.28125 L 68.664062 222.261719 C 68.589844 222.839844 68.539062 223.425781 68.539062 224.019531 C 68.539062 224.617188 68.589844 225.199219 68.664062 225.777344 L 64.859375 228.761719 C 64.519531 229.03125 64.417969 229.515625 64.644531 229.914062 L 68.25 236.15625 C 68.472656 236.542969 68.941406 236.707031 69.347656 236.542969 L 73.835938 234.734375 C 74.761719 235.445312 75.78125 236.050781 76.878906 236.507812 L 77.554688 241.285156 C 77.628906 241.707031 77.996094 242.042969 78.449219 242.042969 L 85.65625 242.042969 C 86.105469 242.042969 86.476562 241.707031 86.546875 241.285156 L 87.222656 236.507812 C 88.324219 236.050781 89.34375 235.453125 90.269531 234.734375 L 94.757812 236.542969 C 95.164062 236.699219 95.632812 236.542969 95.855469 236.15625 L 99.460938 229.914062 C 99.6875 229.527344 99.585938 229.039062 99.246094 228.761719 Z M 82.050781 230.328125 C 78.566406 230.328125 75.746094 227.507812 75.746094 224.019531 C 75.746094 220.535156 78.566406 217.714844 82.050781 217.714844 C 85.539062 217.714844 88.359375 220.535156 88.359375 224.019531 C 88.359375 227.507812 85.539062 230.328125 82.050781 230.328125 Z M 82.050781 230.328125 " fill-opacity="1" fill-rule="nonzero"/></g></svg>